%FSLAX34Y34*%
%MOMM*%
%LNCOPPER_BOTTOM*%
G71*
G01*
%ADD10C,1.600*%
%ADD11C,0.800*%
%ADD12C,1.500*%
%ADD13C,0.200*%
%ADD14C,0.250*%
%ADD15C,0.150*%
%LPD*%
G36*
X1098488Y291369D02*
X1114488Y291369D01*
X1114488Y275369D01*
X1098488Y275369D01*
X1098488Y291369D01*
G37*
X1106488Y257969D02*
G54D10*
D03*
X1106488Y232569D02*
G54D10*
D03*
X366712Y696913D02*
G54D11*
D03*
X442912Y696913D02*
G54D11*
D03*
X546100Y722312D02*
G54D11*
D03*
X523875Y690562D02*
G54D11*
D03*
X600075Y696912D02*
G54D11*
D03*
X676275Y696912D02*
G54D11*
D03*
X620712Y715962D02*
G54D11*
D03*
X234950Y706438D02*
G54D11*
D03*
X331787Y685800D02*
G54D11*
D03*
X331788Y665956D02*
G54D11*
D03*
X417512Y676275D02*
G54D11*
D03*
X706438Y706438D02*
G54D11*
D03*
X762000Y681038D02*
G54D11*
D03*
X793750Y706438D02*
G54D11*
D03*
X849312Y681038D02*
G54D11*
D03*
X874712Y706438D02*
G54D11*
D03*
X930275Y681038D02*
G54D11*
D03*
X244475Y604838D02*
G54D11*
D03*
X315912Y588962D02*
G54D11*
D03*
X300831Y559594D02*
G54D11*
D03*
X300831Y533400D02*
G54D11*
D03*
X382588Y544512D02*
G54D11*
D03*
X382588Y523875D02*
G54D11*
D03*
X477838Y533400D02*
G54D11*
D03*
X558800Y538162D02*
G54D11*
D03*
X636588Y544512D02*
G54D11*
D03*
X974725Y411162D02*
G54D11*
D03*
X898525Y411162D02*
G54D11*
D03*
X812800Y411162D02*
G54D11*
D03*
X863600Y431800D02*
G54D11*
D03*
X954088Y390525D02*
G54D11*
D03*
X773112Y431800D02*
G54D11*
D03*
X741362Y431800D02*
G54D11*
D03*
X685800Y431800D02*
G54D11*
D03*
X655638Y431800D02*
G54D11*
D03*
X595312Y431800D02*
G54D11*
D03*
X569912Y431800D02*
G54D11*
D03*
X519112Y431800D02*
G54D11*
D03*
X477838Y431800D02*
G54D11*
D03*
X417512Y431800D02*
G54D11*
D03*
X387350Y431800D02*
G54D11*
D03*
X341312Y431800D02*
G54D11*
D03*
X300831Y431800D02*
G54D11*
D03*
X244475Y431800D02*
G54D11*
D03*
X188912Y411162D02*
G54D11*
D03*
X223838Y376237D02*
G54D11*
D03*
X341312Y376237D02*
G54D11*
D03*
X452438Y376237D02*
G54D11*
D03*
X544512Y379412D02*
G54D11*
D03*
X569912Y376237D02*
G54D11*
D03*
X681038Y376237D02*
G54D11*
D03*
X796925Y376237D02*
G54D11*
D03*
X909638Y376237D02*
G54D11*
D03*
X1046162Y390525D02*
G54D11*
D03*
X1000125Y279400D02*
G54D11*
D03*
X889000Y279400D02*
G54D11*
D03*
X909638Y268288D02*
G54D11*
D03*
X898525Y304800D02*
G54D11*
D03*
X974725Y203200D02*
G54D11*
D03*
X863600Y203200D02*
G54D11*
D03*
X792162Y295275D02*
G54D11*
D03*
X771525Y279400D02*
G54D11*
D03*
X792162Y238125D02*
G54D11*
D03*
X746125Y203200D02*
G54D11*
D03*
X801687Y182563D02*
G54D11*
D03*
X915987Y182563D02*
G54D11*
D03*
X687387Y182563D02*
G54D11*
D03*
X635000Y203200D02*
G54D11*
D03*
X1030287Y182563D02*
G54D11*
D03*
X681038Y207962D02*
G54D11*
D03*
X681038Y228600D02*
G54D11*
D03*
X685800Y309562D02*
G54D11*
D03*
X655638Y304800D02*
G54D11*
D03*
X720725Y290512D02*
G54D11*
D03*
X660400Y279400D02*
G54D11*
D03*
X660400Y228600D02*
G54D11*
D03*
X544512Y279400D02*
G54D11*
D03*
X549275Y244475D02*
G54D11*
D03*
X549275Y219075D02*
G54D11*
D03*
X565150Y300038D02*
G54D11*
D03*
X565150Y259556D02*
G54D11*
D03*
X565150Y234156D02*
G54D11*
D03*
X569912Y212725D02*
G54D11*
D03*
X574675Y182563D02*
G54D11*
D03*
X614362Y203200D02*
G54D11*
D03*
X792162Y263525D02*
G54D11*
D03*
X669925Y259556D02*
G54D11*
D03*
X447675Y258762D02*
G54D11*
D03*
X447675Y304800D02*
G54D11*
D03*
X460375Y182563D02*
G54D11*
D03*
X517525Y203200D02*
G54D11*
D03*
X431800Y279400D02*
G54D11*
D03*
X427038Y207962D02*
G54D11*
D03*
X406400Y203200D02*
G54D11*
D03*
X381000Y182562D02*
G54D11*
D03*
X346075Y182563D02*
G54D11*
D03*
X231775Y182563D02*
G54D11*
D03*
X290513Y203200D02*
G54D11*
D03*
X330200Y238125D02*
G54D11*
D03*
X330200Y265112D02*
G54D11*
D03*
X330200Y300038D02*
G54D11*
D03*
X315912Y279400D02*
G54D11*
D03*
X219075Y304800D02*
G54D11*
D03*
X219075Y263525D02*
G54D11*
D03*
X219075Y234156D02*
G54D11*
D03*
X203200Y212725D02*
G54D11*
D03*
X177800Y203200D02*
G54D11*
D03*
X203200Y279400D02*
G54D11*
D03*
X898525Y254000D02*
G54D11*
D03*
G36*
X282668Y500503D02*
X297668Y500503D01*
X297668Y485503D01*
X282668Y485503D01*
X282668Y500503D01*
G37*
X315568Y493003D02*
G54D12*
D03*
X340968Y493003D02*
G54D12*
D03*
X366368Y493003D02*
G54D12*
D03*
X391768Y493003D02*
G54D12*
D03*
X417168Y493003D02*
G54D12*
D03*
X442568Y493003D02*
G54D12*
D03*
X467968Y493003D02*
G54D12*
D03*
X493368Y493003D02*
G54D12*
D03*
X518768Y493003D02*
G54D12*
D03*
X544168Y493003D02*
G54D12*
D03*
X569568Y493003D02*
G54D12*
D03*
X594968Y493003D02*
G54D12*
D03*
X620368Y493003D02*
G54D12*
D03*
X645768Y493003D02*
G54D12*
D03*
X671168Y493003D02*
G54D12*
D03*
X696568Y493003D02*
G54D12*
D03*
X721968Y493003D02*
G54D12*
D03*
X747368Y493003D02*
G54D12*
D03*
X772768Y493003D02*
G54D12*
D03*
X798168Y493003D02*
G54D12*
D03*
X823568Y493003D02*
G54D12*
D03*
X848968Y493003D02*
G54D12*
D03*
X874368Y493003D02*
G54D12*
D03*
X899768Y493003D02*
G54D12*
D03*
X925168Y493003D02*
G54D12*
D03*
X950568Y493003D02*
G54D12*
D03*
X975968Y493003D02*
G54D12*
D03*
X1001368Y493003D02*
G54D12*
D03*
X1026767Y493003D02*
G54D12*
D03*
G36*
X282668Y627503D02*
X297668Y627503D01*
X297668Y612503D01*
X282668Y612503D01*
X282668Y627503D01*
G37*
X315568Y620003D02*
G54D12*
D03*
X340968Y620003D02*
G54D12*
D03*
X366368Y620003D02*
G54D12*
D03*
X391768Y620003D02*
G54D12*
D03*
X417168Y620003D02*
G54D12*
D03*
X442568Y620003D02*
G54D12*
D03*
X467968Y620003D02*
G54D12*
D03*
X493368Y620003D02*
G54D12*
D03*
X518768Y620003D02*
G54D12*
D03*
X544168Y620003D02*
G54D12*
D03*
X569568Y620003D02*
G54D12*
D03*
X594968Y620003D02*
G54D12*
D03*
X620368Y620003D02*
G54D12*
D03*
X645768Y620003D02*
G54D12*
D03*
X671168Y620003D02*
G54D12*
D03*
X696568Y620003D02*
G54D12*
D03*
X721968Y620003D02*
G54D12*
D03*
X747368Y620003D02*
G54D12*
D03*
X772768Y620003D02*
G54D12*
D03*
X798168Y620003D02*
G54D12*
D03*
X823567Y620003D02*
G54D12*
D03*
X848968Y620003D02*
G54D12*
D03*
X874368Y620003D02*
G54D12*
D03*
X899768Y620003D02*
G54D12*
D03*
X925168Y620003D02*
G54D12*
D03*
X950568Y620003D02*
G54D12*
D03*
X975968Y620003D02*
G54D12*
D03*
X1001368Y620003D02*
G54D12*
D03*
X1026767Y620003D02*
G54D12*
D03*
G54D13*
X382588Y544512D02*
X382588Y449262D01*
X387350Y444500D01*
X387350Y431800D01*
G54D13*
X417512Y431800D02*
X417512Y492659D01*
X417168Y493003D01*
G54D13*
X477838Y431800D02*
X477838Y533400D01*
G54D13*
X655638Y431800D02*
X671512Y447675D01*
X671512Y492659D01*
X671168Y493003D01*
G54D13*
X772768Y493003D02*
X772768Y432144D01*
X773112Y431800D01*
G54D13*
X741362Y431800D02*
X741362Y288925D01*
X681038Y228600D01*
G54D13*
X792162Y263525D02*
X792162Y315912D01*
X787400Y320675D01*
G54D13*
X899768Y493003D02*
X899768Y459236D01*
X898525Y457994D01*
X898525Y411162D01*
G54D13*
X848968Y493003D02*
X848968Y446432D01*
X863600Y431800D01*
G54D13*
X812800Y411162D02*
X812800Y258762D01*
X792162Y238125D01*
G36*
X112209Y724256D02*
X112209Y709256D01*
X97209Y709256D01*
X97209Y724256D01*
X112209Y724256D01*
G37*
X28510Y716756D02*
G54D12*
D03*
X104709Y691356D02*
G54D12*
D03*
X28510Y691356D02*
G54D12*
D03*
X104709Y665956D02*
G54D12*
D03*
X28509Y665956D02*
G54D12*
D03*
X104709Y640556D02*
G54D12*
D03*
X28509Y640556D02*
G54D12*
D03*
X104709Y615156D02*
G54D12*
D03*
X28509Y615156D02*
G54D12*
D03*
X104709Y589756D02*
G54D12*
D03*
X28509Y589756D02*
G54D12*
D03*
X104709Y564356D02*
G54D12*
D03*
X28509Y564356D02*
G54D12*
D03*
X104709Y538956D02*
G54D12*
D03*
X28509Y538956D02*
G54D12*
D03*
X104709Y513556D02*
G54D12*
D03*
X28509Y513556D02*
G54D12*
D03*
X104709Y488156D02*
G54D12*
D03*
X28509Y488156D02*
G54D12*
D03*
X104709Y462756D02*
G54D12*
D03*
X28509Y462756D02*
G54D12*
D03*
X104709Y437356D02*
G54D12*
D03*
X28509Y437356D02*
G54D12*
D03*
X104709Y411956D02*
G54D12*
D03*
X28509Y411956D02*
G54D12*
D03*
X104709Y386556D02*
G54D12*
D03*
X28509Y386556D02*
G54D12*
D03*
X104709Y361156D02*
G54D12*
D03*
X28509Y361156D02*
G54D12*
D03*
X104709Y335756D02*
G54D12*
D03*
X28509Y335756D02*
G54D12*
D03*
X104709Y310356D02*
G54D12*
D03*
X28509Y310356D02*
G54D12*
D03*
X104709Y284956D02*
G54D12*
D03*
X28509Y284956D02*
G54D12*
D03*
X104709Y259556D02*
G54D12*
D03*
X28509Y259556D02*
G54D12*
D03*
X104709Y234156D02*
G54D12*
D03*
X28509Y234156D02*
G54D12*
D03*
X104709Y208755D02*
G54D12*
D03*
X28510Y208755D02*
G54D12*
D03*
X104709Y183356D02*
G54D12*
D03*
X28510Y183356D02*
G54D12*
D03*
X788194Y655638D02*
G54D11*
D03*
X51594Y208756D02*
G54D11*
D03*
X51594Y183356D02*
G54D11*
D03*
X51594Y234156D02*
G54D11*
D03*
X51594Y259556D02*
G54D11*
D03*
X76994Y234156D02*
G54D11*
D03*
X57150Y295275D02*
G54D11*
D03*
X82550Y295275D02*
G54D11*
D03*
X53181Y716756D02*
G54D11*
D03*
X53181Y691356D02*
G54D11*
D03*
X53181Y589756D02*
G54D11*
D03*
G54D13*
X104709Y615156D02*
X104709Y615090D01*
X57150Y567531D01*
X57150Y295275D01*
G54D13*
X82550Y295275D02*
X82550Y389796D01*
X104709Y411956D01*
G54D13*
X76994Y234156D02*
X76994Y265112D01*
X73025Y269081D01*
X73025Y431072D01*
X104709Y462756D01*
X104774Y462756D01*
X118269Y476250D01*
X118269Y651669D01*
X203994Y737394D01*
X531019Y737394D01*
X546100Y722312D01*
G54D13*
X28509Y437356D02*
X28576Y437356D01*
X39688Y426244D01*
X39688Y246062D01*
X51594Y234156D01*
G54D13*
X28509Y462756D02*
X28576Y462756D01*
X44450Y446881D01*
X44450Y266700D01*
X51594Y259556D01*
G54D13*
X28509Y513556D02*
X28576Y513556D01*
X50006Y492125D01*
X50006Y283369D01*
X62706Y270669D01*
X62706Y193675D01*
X88106Y168275D01*
X579438Y168275D01*
X614362Y203200D01*
G54D13*
X954088Y390525D02*
X954088Y181769D01*
X939800Y167481D01*
X680244Y167481D01*
X660400Y187325D01*
X660400Y228600D01*
X650875Y219075D01*
X650875Y198438D01*
X640556Y188119D01*
X630238Y188119D01*
X625475Y192881D01*
X625475Y208756D01*
X620712Y213519D01*
X589756Y213519D01*
X549275Y173038D01*
X93662Y173038D01*
X68262Y198438D01*
X68262Y477109D01*
X104709Y513556D01*
G54D13*
X219075Y304800D02*
X219075Y263525D01*
G54D13*
X188912Y411162D02*
X188912Y392112D01*
X229394Y351631D01*
X229394Y259556D01*
X203200Y233362D01*
X203200Y212725D01*
G54D13*
X234950Y706438D02*
X234950Y250031D01*
X219075Y234156D01*
G54D13*
X300831Y558800D02*
X300831Y533400D01*
X300831Y431800D01*
G54D13*
X340968Y493003D02*
X340968Y432144D01*
X341312Y431800D01*
G54D13*
X315568Y493003D02*
X315568Y588618D01*
X315912Y588962D01*
G54D13*
X331788Y665956D02*
X331788Y646112D01*
X328612Y642938D01*
X328612Y327025D01*
X330200Y325438D01*
X330200Y300038D01*
G54D13*
X331788Y685800D02*
X352425Y665162D01*
X352425Y260350D01*
X330200Y238125D01*
G54D13*
X330200Y300038D02*
X330200Y265112D01*
G54D13*
X447675Y304800D02*
X447675Y258762D01*
G54D13*
X565150Y300038D02*
X565150Y259556D01*
G54D13*
X104709Y234156D02*
X104776Y234156D01*
X118269Y220662D01*
X118269Y188912D01*
X128588Y178594D01*
X204788Y178594D01*
X219075Y192881D01*
X241300Y192881D01*
X256381Y177800D01*
X322262Y177800D01*
X337344Y192881D01*
X370681Y192881D01*
X381000Y182562D01*
G54D13*
X104709Y259556D02*
X104776Y259556D01*
X123825Y240506D01*
X123825Y193675D01*
X134144Y183356D01*
X199231Y183356D01*
X214312Y198438D01*
X246062Y198438D01*
X261144Y183356D01*
X316706Y183356D01*
X331788Y198438D01*
X381794Y198438D01*
X387350Y192881D01*
X411956Y192881D01*
X427038Y207962D01*
G54D13*
X671168Y620003D02*
X671168Y675137D01*
X676275Y680244D01*
X676275Y696912D01*
G54D13*
X594968Y620003D02*
X594968Y675137D01*
X600075Y680244D01*
X600075Y696912D01*
G54D13*
X772768Y620003D02*
X772768Y670270D01*
X762000Y681038D01*
G54D13*
X544168Y620003D02*
X544168Y493003D01*
X544168Y379757D01*
X544512Y379412D01*
G54D13*
X696568Y620003D02*
X696568Y493003D01*
X696568Y320330D01*
X685800Y309562D01*
G54D13*
X721968Y620003D02*
X721968Y493003D01*
X721968Y291756D01*
X720725Y290512D01*
G54D13*
X798168Y620003D02*
X798168Y493003D01*
G54D13*
X788194Y655638D02*
X788194Y334962D01*
X787400Y334169D01*
X787400Y320675D01*
G54D13*
X898525Y304800D02*
X898525Y254000D01*
G54D13*
X975968Y620003D02*
X975968Y493003D01*
X975968Y412405D01*
X974725Y411162D01*
G54D13*
X950568Y620003D02*
X950568Y493003D01*
X950568Y447330D01*
X939800Y436562D01*
X939800Y298450D01*
X909638Y268288D01*
G54D13*
X849312Y681038D02*
X849312Y620348D01*
X848968Y620003D01*
G54D13*
X899768Y620003D02*
X899768Y650530D01*
X930275Y681038D01*
G54D13*
X645768Y620003D02*
X645768Y493003D01*
G54D13*
X620368Y620003D02*
X620368Y493003D01*
G54D13*
X594968Y493003D02*
X594968Y432144D01*
X595312Y431800D01*
G54D13*
X569568Y620003D02*
X569568Y493003D01*
G54D13*
X518768Y493003D02*
X518768Y432144D01*
X519112Y431800D01*
G54D13*
X417512Y676275D02*
X417512Y620348D01*
X417168Y620003D01*
G54D13*
X518768Y620003D02*
X518768Y675930D01*
X523875Y681038D01*
X523875Y690562D01*
G54D13*
X366368Y493003D02*
X366368Y620003D01*
X366368Y666300D01*
X315912Y716756D01*
X223044Y716756D01*
X138112Y631825D01*
X138112Y343759D01*
X104709Y310356D01*
G54D13*
X391768Y493003D02*
X391768Y620003D01*
X391768Y650426D01*
X319881Y722312D01*
X219075Y722312D01*
X133350Y636588D01*
X133350Y364396D01*
X104709Y335756D01*
G54D13*
X442568Y493003D02*
X442568Y620003D01*
X442568Y665507D01*
X381000Y727075D01*
X214312Y727075D01*
X128588Y641350D01*
X128588Y385034D01*
X104709Y361156D01*
G54D13*
X467968Y493003D02*
X467968Y620003D01*
X467968Y650426D01*
X386556Y731838D01*
X207169Y731838D01*
X123031Y647700D01*
X123031Y404878D01*
X104709Y386556D01*
G54D13*
X685800Y431800D02*
X670719Y416719D01*
X670719Y304800D01*
X681038Y294481D01*
X681038Y248444D01*
X670719Y238125D01*
X670719Y218281D01*
X681038Y207962D01*
G54D13*
X669925Y259556D02*
X669925Y290512D01*
X655638Y304800D01*
X635794Y324644D01*
X635794Y520700D01*
X636588Y521494D01*
X636588Y544512D01*
G54D13*
X549275Y219075D02*
X538956Y229394D01*
X538956Y258762D01*
X554038Y273844D01*
X554038Y284956D01*
X549275Y289719D01*
X549275Y355600D01*
X533400Y371475D01*
X533400Y676275D01*
X594519Y737394D01*
X843756Y737394D01*
X874712Y706438D01*
G54D13*
X549275Y244475D02*
X549275Y258762D01*
X559594Y269081D01*
X559594Y290512D01*
X555625Y294481D01*
X555625Y516731D01*
X549275Y523081D01*
X549275Y593725D01*
X556419Y600869D01*
X556419Y688181D01*
X600075Y731838D01*
X768350Y731838D01*
X793750Y706438D01*
G54D13*
X565150Y234156D02*
X580231Y249238D01*
X580231Y701675D01*
X604838Y726281D01*
X686594Y726281D01*
X706438Y706438D01*
G54D13*
X569912Y212725D02*
X585788Y228600D01*
X585788Y436562D01*
X584200Y438150D01*
X584200Y696119D01*
X604044Y715962D01*
X620712Y715962D01*
G54D14*
X595000Y224150D02*
X595000Y416719D01*
X600000Y222250D02*
X600000Y416719D01*
X605000Y222250D02*
X605000Y416719D01*
X610000Y222250D02*
X610000Y416719D01*
X615000Y222250D02*
X615000Y416719D01*
X620000Y222250D02*
X620000Y416719D01*
X625000Y222250D02*
X625000Y416719D01*
X630000Y198675D02*
X630000Y296069D01*
X635000Y196850D02*
X635000Y296069D01*
X640000Y197088D02*
X640000Y296069D01*
X645000Y225106D02*
X645000Y294800D01*
X650000Y273050D02*
X650000Y285750D01*
X655000Y273050D02*
X655000Y285750D01*
X660000Y273050D02*
X660000Y285750D01*
X665000Y274475D02*
X665000Y284325D01*
X629444Y200000D02*
X642144Y200000D01*
X629444Y205000D02*
X642144Y205000D01*
X629444Y210000D02*
X642144Y210000D01*
X629444Y215000D02*
X642144Y215000D01*
X629444Y220000D02*
X642144Y220000D01*
X594519Y225000D02*
X644894Y225000D01*
X594519Y230000D02*
X646906Y230000D01*
X594519Y235000D02*
X646906Y235000D01*
X594519Y240000D02*
X646906Y240000D01*
X594519Y245000D02*
X646906Y245000D01*
X594519Y250000D02*
X646906Y250000D01*
X594519Y255000D02*
X646906Y255000D01*
X594519Y260000D02*
X646906Y260000D01*
X594519Y265000D02*
X646906Y265000D01*
X594519Y270000D02*
X646906Y270000D01*
X594519Y275000D02*
X665525Y275000D01*
X594519Y280000D02*
X666750Y280000D01*
X594519Y285000D02*
X664325Y285000D01*
X594519Y290000D02*
X646906Y290000D01*
X594519Y295000D02*
X644800Y295000D01*
X594519Y300000D02*
X626269Y300000D01*
X594519Y305000D02*
X626269Y305000D01*
X594519Y310000D02*
X626269Y310000D01*
X594519Y315000D02*
X626269Y315000D01*
X594519Y320000D02*
X626269Y320000D01*
X594519Y325000D02*
X626269Y325000D01*
X594519Y330000D02*
X626269Y330000D01*
X594519Y335000D02*
X626269Y335000D01*
X594519Y340000D02*
X626269Y340000D01*
X594519Y345000D02*
X626269Y345000D01*
X594519Y350000D02*
X626269Y350000D01*
X594519Y355000D02*
X626269Y355000D01*
X594519Y360000D02*
X626269Y360000D01*
X594519Y365000D02*
X626269Y365000D01*
X594519Y370000D02*
X626269Y370000D01*
X594519Y375000D02*
X626269Y375000D01*
X594519Y380000D02*
X626269Y380000D01*
X594519Y385000D02*
X626269Y385000D01*
X594519Y390000D02*
X626269Y390000D01*
X594519Y395000D02*
X626269Y395000D01*
X594519Y400000D02*
X626269Y400000D01*
X594519Y405000D02*
X626269Y405000D01*
X594519Y410000D02*
X626269Y410000D01*
X594519Y415000D02*
X626269Y415000D01*
G54D13*
X594519Y416719D02*
X626269Y416719D01*
X626269Y296069D01*
X643731Y296069D01*
X646906Y292894D01*
X646906Y285750D01*
X663575Y285750D01*
X666750Y282575D01*
X666750Y276225D01*
X663575Y273050D01*
X646906Y273050D01*
X646906Y227012D01*
X642144Y222250D01*
X642144Y199231D01*
X639762Y196850D01*
X631825Y196850D01*
X629444Y199231D01*
X629444Y221456D01*
X628650Y222250D01*
X596900Y222250D01*
X594519Y224631D01*
X594519Y416719D01*
G54D14*
X145000Y204250D02*
X145000Y622044D01*
X150000Y203200D02*
X150000Y622300D01*
X155000Y203200D02*
X155000Y622300D01*
X160000Y203200D02*
X160000Y622300D01*
X165000Y203200D02*
X165000Y622300D01*
X170000Y203200D02*
X170000Y622300D01*
X175000Y203200D02*
X175000Y619544D01*
X180000Y203200D02*
X180000Y377825D01*
X180000Y426244D02*
X180000Y459581D01*
X180000Y508000D02*
X180000Y601662D01*
X185000Y203200D02*
X185000Y377825D01*
X185000Y426244D02*
X185000Y459581D01*
X185000Y508000D02*
X185000Y601662D01*
X190000Y203200D02*
X190000Y377825D01*
X190000Y426244D02*
X190000Y459581D01*
X190000Y508000D02*
X190000Y601662D01*
X195000Y205319D02*
X195000Y374912D01*
X195000Y426244D02*
X195000Y459581D01*
X195000Y508000D02*
X195000Y601662D01*
X200000Y273844D02*
X200000Y286544D01*
X200000Y426244D02*
X200000Y459581D01*
X200000Y508000D02*
X200000Y601662D01*
X205000Y273844D02*
X205000Y286544D01*
X205000Y426244D02*
X205000Y459581D01*
X205000Y508000D02*
X205000Y601662D01*
X210000Y275881D02*
X210000Y284507D01*
X210000Y426244D02*
X210000Y459581D01*
X210000Y508000D02*
X210000Y601662D01*
X215000Y429313D02*
X215000Y456512D01*
X215000Y511863D02*
X215000Y597800D01*
X144250Y205000D02*
X194681Y205000D01*
X142081Y210000D02*
X195262Y210000D01*
X142081Y215000D02*
X195262Y215000D01*
X142081Y220000D02*
X195262Y220000D01*
X142081Y225000D02*
X195262Y225000D01*
X142081Y230000D02*
X195262Y230000D01*
X142081Y235000D02*
X195262Y235000D01*
X142081Y240000D02*
X195262Y240000D01*
X142081Y245000D02*
X195262Y245000D01*
X142081Y250000D02*
X195262Y250000D01*
X142081Y255000D02*
X195262Y255000D01*
X142081Y260000D02*
X195262Y260000D01*
X142081Y265000D02*
X195262Y265000D01*
X142081Y270000D02*
X195262Y270000D01*
X142081Y275000D02*
X209118Y275000D01*
X142081Y280000D02*
X211138Y280000D01*
X142081Y285000D02*
X209506Y285000D01*
X142081Y290000D02*
X195262Y290000D01*
X142081Y295000D02*
X195262Y295000D01*
X142081Y300000D02*
X195262Y300000D01*
X142081Y305000D02*
X195262Y305000D01*
X142081Y310000D02*
X195262Y310000D01*
X142081Y315000D02*
X195262Y315000D01*
X142081Y320000D02*
X195262Y320000D01*
X142081Y325000D02*
X195262Y325000D01*
X142081Y330000D02*
X195262Y330000D01*
X142081Y335000D02*
X195262Y335000D01*
X142081Y340000D02*
X195262Y340000D01*
X142081Y345000D02*
X195262Y345000D01*
X142081Y350000D02*
X195262Y350000D01*
X142081Y355000D02*
X195262Y355000D01*
X142081Y360000D02*
X195262Y360000D01*
X142081Y365000D02*
X195262Y365000D01*
X142081Y370000D02*
X195262Y370000D01*
X142081Y375000D02*
X194912Y375000D01*
X142081Y380000D02*
X175419Y380000D01*
X142081Y385000D02*
X175419Y385000D01*
X142081Y390000D02*
X175419Y390000D01*
X142081Y395000D02*
X175419Y395000D01*
X142081Y400000D02*
X175419Y400000D01*
X142081Y405000D02*
X175419Y405000D01*
X142081Y410000D02*
X175419Y410000D01*
X142081Y415000D02*
X175419Y415000D01*
X142081Y420000D02*
X175419Y420000D01*
X142081Y425000D02*
X175419Y425000D01*
X142081Y430000D02*
X215106Y430000D01*
X142081Y435000D02*
X215106Y435000D01*
X142081Y440000D02*
X215106Y440000D01*
X142081Y445000D02*
X215106Y445000D01*
X142081Y450000D02*
X215106Y450000D01*
X142081Y455000D02*
X215106Y455000D01*
X142081Y460000D02*
X175419Y460000D01*
X142081Y465000D02*
X175419Y465000D01*
X142081Y470000D02*
X175419Y470000D01*
X142081Y475000D02*
X175419Y475000D01*
X142081Y480000D02*
X175419Y480000D01*
X142081Y485000D02*
X175419Y485000D01*
X142081Y490000D02*
X175419Y490000D01*
X142081Y495000D02*
X175419Y495000D01*
X142081Y500000D02*
X175419Y500000D01*
X142081Y505000D02*
X175419Y505000D01*
X142081Y510000D02*
X213137Y510000D01*
X142081Y515000D02*
X215106Y515000D01*
X142081Y520000D02*
X215106Y520000D01*
X142081Y525000D02*
X215106Y525000D01*
X142081Y530000D02*
X215106Y530000D01*
X142081Y535000D02*
X215106Y535000D01*
X142081Y540000D02*
X215106Y540000D01*
X142081Y545000D02*
X215106Y545000D01*
X142081Y550000D02*
X215106Y550000D01*
X142081Y555000D02*
X215106Y555000D01*
X142081Y560000D02*
X215106Y560000D01*
X142081Y565000D02*
X215106Y565000D01*
X142081Y570000D02*
X215106Y570000D01*
X142081Y575000D02*
X215106Y575000D01*
X142081Y580000D02*
X215106Y580000D01*
X142081Y585000D02*
X215106Y585000D01*
X142081Y590000D02*
X215106Y590000D01*
X142081Y595000D02*
X215106Y595000D01*
X142081Y600000D02*
X212800Y600000D01*
X142081Y605000D02*
X175419Y605000D01*
X142081Y610000D02*
X175419Y610000D01*
X142081Y615000D02*
X175419Y615000D01*
X142956Y620000D02*
X174544Y620000D01*
G54D13*
X145256Y622300D02*
X172244Y622300D01*
X175419Y619125D01*
X175419Y602456D01*
X176212Y601662D01*
X211138Y601662D01*
X215106Y597694D01*
X215106Y511969D01*
X211138Y508000D01*
X175419Y508000D01*
X175419Y459581D01*
X211931Y459581D01*
X215106Y456406D01*
X215106Y429419D01*
X211931Y426244D01*
X175419Y426244D01*
X175419Y377825D01*
X192088Y377825D01*
X195262Y374650D01*
X195262Y286544D01*
X207962Y286544D01*
X211138Y283369D01*
X211138Y277019D01*
X207962Y273844D01*
X195262Y273844D01*
X195262Y205581D01*
X192881Y203200D01*
X146050Y203200D01*
X142081Y207169D01*
X142081Y619125D01*
X145256Y622300D01*
G54D13*
X244475Y431800D02*
X244475Y604838D01*
G54D14*
X250000Y226250D02*
X250000Y415893D01*
X250000Y448500D02*
X250000Y580200D01*
X250000Y615188D02*
X250000Y705612D01*
X255000Y221250D02*
X255000Y418306D01*
X255000Y446881D02*
X255000Y581025D01*
X255000Y610188D02*
X255000Y708025D01*
X260000Y216250D02*
X260000Y418306D01*
X260000Y446881D02*
X260000Y581025D01*
X260000Y605187D02*
X260000Y708025D01*
X265000Y211250D02*
X265000Y418306D01*
X265000Y446881D02*
X265000Y479425D01*
X265000Y507206D02*
X265000Y581025D01*
X265000Y600187D02*
X265000Y618444D01*
X265000Y634206D02*
X265000Y708025D01*
X270000Y206250D02*
X270000Y479425D01*
X270000Y507206D02*
X270000Y613444D01*
X270000Y634206D02*
X270000Y708025D01*
X275000Y203200D02*
X275000Y479425D01*
X275000Y507206D02*
X275000Y608444D01*
X275000Y634206D02*
X275000Y708025D01*
X280000Y203200D02*
X280000Y478032D01*
X280000Y508600D02*
X280000Y603444D01*
X280000Y634206D02*
X280000Y708025D01*
X285000Y203200D02*
X285000Y418306D01*
X285000Y634206D02*
X285000Y708025D01*
X290000Y203200D02*
X290000Y418306D01*
X290000Y634206D02*
X290000Y708025D01*
X295000Y203200D02*
X295000Y418306D01*
X295000Y634206D02*
X295000Y708025D01*
X300000Y203200D02*
X300000Y418306D01*
X300000Y634206D02*
X300000Y708025D01*
X305000Y203200D02*
X305000Y418306D01*
X305000Y634206D02*
X305000Y708025D01*
X310000Y203200D02*
X310000Y418306D01*
X310000Y634206D02*
X310000Y708025D01*
X315000Y203200D02*
X315000Y418306D01*
X315000Y634206D02*
X315000Y708025D01*
X320000Y204906D02*
X320000Y416600D01*
X320000Y635118D02*
X320000Y705525D01*
X271250Y205000D02*
X320094Y205000D01*
X266250Y210000D02*
X322262Y210000D01*
X261250Y215000D02*
X322262Y215000D01*
X256250Y220000D02*
X322262Y220000D01*
X251250Y225000D02*
X322262Y225000D01*
X249238Y230000D02*
X322262Y230000D01*
X249238Y235000D02*
X322262Y235000D01*
X249238Y240000D02*
X322262Y240000D01*
X249238Y245000D02*
X322262Y245000D01*
X249238Y250000D02*
X322262Y250000D01*
X249238Y255000D02*
X322262Y255000D01*
X249238Y260000D02*
X322262Y260000D01*
X249238Y265000D02*
X322262Y265000D01*
X249238Y270000D02*
X322262Y270000D01*
X249238Y275000D02*
X322262Y275000D01*
X249238Y280000D02*
X322262Y280000D01*
X249238Y285000D02*
X322262Y285000D01*
X249238Y290000D02*
X322262Y290000D01*
X249238Y295000D02*
X322262Y295000D01*
X249238Y300000D02*
X322262Y300000D01*
X249238Y305000D02*
X322262Y305000D01*
X249238Y310000D02*
X322262Y310000D01*
X249238Y315000D02*
X322262Y315000D01*
X249238Y320000D02*
X322262Y320000D01*
X249238Y325000D02*
X322262Y325000D01*
X249238Y330000D02*
X322262Y330000D01*
X249238Y335000D02*
X322262Y335000D01*
X249238Y340000D02*
X322262Y340000D01*
X249238Y345000D02*
X322262Y345000D01*
X249238Y350000D02*
X322262Y350000D01*
X249238Y355000D02*
X322262Y355000D01*
X249238Y360000D02*
X322262Y360000D01*
X249238Y365000D02*
X322262Y365000D01*
X249238Y370000D02*
X322262Y370000D01*
X249238Y375000D02*
X322262Y375000D01*
X249238Y380000D02*
X322262Y380000D01*
X249238Y385000D02*
X322262Y385000D01*
X249238Y390000D02*
X322262Y390000D01*
X249238Y395000D02*
X322262Y395000D01*
X249238Y400000D02*
X322262Y400000D01*
X249238Y405000D02*
X322262Y405000D01*
X249238Y410000D02*
X322262Y410000D01*
X249238Y415000D02*
X321600Y415000D01*
X269081Y420000D02*
X280988Y420000D01*
X269081Y425000D02*
X280988Y425000D01*
X269081Y430000D02*
X280988Y430000D01*
X269081Y435000D02*
X280988Y435000D01*
X269081Y440000D02*
X280988Y440000D01*
X269081Y445000D02*
X280988Y445000D01*
X249238Y450000D02*
X280988Y450000D01*
X249238Y455000D02*
X280988Y455000D01*
X249238Y460000D02*
X280988Y460000D01*
X249238Y465000D02*
X280988Y465000D01*
X249238Y470000D02*
X280988Y470000D01*
X249238Y475000D02*
X280988Y475000D01*
X249238Y480000D02*
X261144Y480000D01*
X249238Y485000D02*
X261144Y485000D01*
X249238Y490000D02*
X261144Y490000D01*
X249238Y495000D02*
X261144Y495000D01*
X249238Y500000D02*
X261144Y500000D01*
X249238Y505000D02*
X261144Y505000D01*
X249238Y510000D02*
X280988Y510000D01*
X249238Y515000D02*
X280988Y515000D01*
X249238Y520000D02*
X280988Y520000D01*
X249238Y525000D02*
X280988Y525000D01*
X249238Y530000D02*
X280988Y530000D01*
X249238Y535000D02*
X280988Y535000D01*
X249238Y540000D02*
X280988Y540000D01*
X249238Y545000D02*
X280988Y545000D01*
X249238Y550000D02*
X280988Y550000D01*
X249238Y555000D02*
X280988Y555000D01*
X249238Y560000D02*
X280988Y560000D01*
X249238Y565000D02*
X280988Y565000D01*
X249238Y570000D02*
X280988Y570000D01*
X249238Y575000D02*
X280988Y575000D01*
X249800Y580000D02*
X280988Y580000D01*
X269081Y585000D02*
X280988Y585000D01*
X269081Y590000D02*
X280988Y590000D01*
X269081Y595000D02*
X280988Y595000D01*
X265187Y600000D02*
X280988Y600000D01*
X260187Y605000D02*
X278444Y605000D01*
X255188Y610000D02*
X273444Y610000D01*
X250188Y615000D02*
X268444Y615000D01*
X248444Y620000D02*
X263444Y620000D01*
X248444Y625000D02*
X260350Y625000D01*
X248444Y630000D02*
X260350Y630000D01*
X248444Y635000D02*
X319882Y635000D01*
X248444Y640000D02*
X321469Y640000D01*
X248444Y645000D02*
X321469Y645000D01*
X248444Y650000D02*
X321469Y650000D01*
X248444Y655000D02*
X321469Y655000D01*
X248444Y660000D02*
X321469Y660000D01*
X248444Y665000D02*
X321469Y665000D01*
X248444Y670000D02*
X321469Y670000D01*
X248444Y675000D02*
X321469Y675000D01*
X248444Y680000D02*
X321469Y680000D01*
X248444Y685000D02*
X321469Y685000D01*
X248444Y690000D02*
X321469Y690000D01*
X248444Y695000D02*
X321469Y695000D01*
X248444Y700000D02*
X321469Y700000D01*
X249388Y705000D02*
X320525Y705000D01*
G54D13*
X248444Y704056D02*
X252412Y708025D01*
X317500Y708025D01*
X321469Y704056D01*
X321469Y636588D01*
X319088Y634206D01*
X260350Y634206D01*
X260350Y623094D01*
X280988Y602456D01*
X280988Y509588D01*
X278606Y507206D01*
X261144Y507206D01*
X261144Y479425D01*
X278606Y479425D01*
X280988Y477044D01*
X280988Y418306D01*
X318294Y418306D01*
X322262Y414338D01*
X322262Y207169D01*
X318294Y203200D01*
X273050Y203200D01*
X249238Y227012D01*
X249238Y415131D01*
X252412Y418306D01*
X269081Y418306D01*
X269081Y446881D01*
X251619Y446881D01*
X249238Y449262D01*
X249238Y579438D01*
X250825Y581025D01*
X269081Y581025D01*
X269081Y596106D01*
X248444Y616744D01*
X248444Y704056D01*
G54D14*
X365000Y371475D02*
X365000Y418306D01*
X370000Y371475D02*
X370000Y418306D01*
X375000Y371475D02*
X375000Y418306D01*
X380000Y371475D02*
X380000Y418306D01*
X385000Y371475D02*
X385000Y418306D01*
X390000Y371475D02*
X390000Y418306D01*
X395000Y371475D02*
X395000Y418306D01*
X400000Y371475D02*
X400000Y418306D01*
X405000Y371475D02*
X405000Y418306D01*
X410000Y371475D02*
X410000Y418306D01*
X415000Y371475D02*
X415000Y418306D01*
X420000Y371475D02*
X420000Y418306D01*
X425000Y371475D02*
X425000Y418306D01*
X430000Y371475D02*
X430000Y418306D01*
X430000Y694744D02*
X430000Y727869D01*
X435000Y385762D02*
X435000Y418306D01*
X435000Y689744D02*
X435000Y727869D01*
X440000Y385762D02*
X440000Y418306D01*
X440000Y684744D02*
X440000Y727869D01*
X445000Y385762D02*
X445000Y418306D01*
X445000Y679744D02*
X445000Y727869D01*
X450000Y385762D02*
X450000Y418306D01*
X450000Y674744D02*
X450000Y727869D01*
X455000Y385762D02*
X455000Y418306D01*
X455000Y669744D02*
X455000Y727869D01*
X460000Y385762D02*
X460000Y418306D01*
X460000Y664743D02*
X460000Y727869D01*
X465000Y385762D02*
X465000Y418306D01*
X465000Y659743D02*
X465000Y727869D01*
X470000Y371475D02*
X470000Y418306D01*
X470000Y654743D02*
X470000Y727869D01*
X475000Y371475D02*
X475000Y418306D01*
X475000Y649743D02*
X475000Y727869D01*
X480000Y371475D02*
X480000Y418306D01*
X480000Y644743D02*
X480000Y727869D01*
X485000Y371475D02*
X485000Y418306D01*
X485000Y639743D02*
X485000Y727869D01*
X490000Y371475D02*
X490000Y727869D01*
X495000Y371475D02*
X495000Y727869D01*
X500000Y371475D02*
X500000Y417512D01*
X505000Y371475D02*
X505000Y417512D01*
X510000Y371475D02*
X510000Y417512D01*
X515000Y371475D02*
X515000Y417512D01*
X360362Y375000D02*
X433388Y375000D01*
X467519Y375000D02*
X519906Y375000D01*
X360362Y380000D02*
X433388Y380000D01*
X467519Y380000D02*
X519906Y380000D01*
X360362Y385000D02*
X433419Y385000D01*
X467488Y385000D02*
X519906Y385000D01*
X360362Y390000D02*
X519906Y390000D01*
X360362Y395000D02*
X519906Y395000D01*
X360362Y400000D02*
X519906Y400000D01*
X360362Y405000D02*
X519906Y405000D01*
X360362Y410000D02*
X519906Y410000D01*
X360362Y415000D02*
X519906Y415000D01*
X487362Y420000D02*
X499269Y420000D01*
X487362Y425000D02*
X499269Y425000D01*
X487362Y430000D02*
X499269Y430000D01*
X487362Y435000D02*
X499269Y435000D01*
X487362Y440000D02*
X499269Y440000D01*
X487362Y445000D02*
X499269Y445000D01*
X487362Y450000D02*
X499269Y450000D01*
X487362Y455000D02*
X499269Y455000D01*
X487362Y460000D02*
X499269Y460000D01*
X487362Y465000D02*
X499269Y465000D01*
X487362Y470000D02*
X499269Y470000D01*
X487362Y475000D02*
X499269Y475000D01*
X487362Y480000D02*
X499269Y480000D01*
X487362Y485000D02*
X499269Y485000D01*
X487362Y490000D02*
X499269Y490000D01*
X487362Y495000D02*
X499269Y495000D01*
X487362Y500000D02*
X499269Y500000D01*
X487362Y505000D02*
X499269Y505000D01*
X487362Y510000D02*
X499269Y510000D01*
X487362Y515000D02*
X499269Y515000D01*
X487362Y520000D02*
X499269Y520000D01*
X487362Y525000D02*
X499269Y525000D01*
X487362Y530000D02*
X499269Y530000D01*
X487362Y535000D02*
X499269Y535000D01*
X487362Y540000D02*
X499269Y540000D01*
X487362Y545000D02*
X499269Y545000D01*
X487362Y550000D02*
X499269Y550000D01*
X487362Y555000D02*
X499269Y555000D01*
X487362Y560000D02*
X499269Y560000D01*
X487362Y565000D02*
X499269Y565000D01*
X487362Y570000D02*
X499269Y570000D01*
X487362Y575000D02*
X499269Y575000D01*
X487362Y580000D02*
X499269Y580000D01*
X487362Y585000D02*
X499269Y585000D01*
X487362Y590000D02*
X499269Y590000D01*
X487362Y595000D02*
X499269Y595000D01*
X487362Y600000D02*
X499269Y600000D01*
X487362Y605000D02*
X499269Y605000D01*
X487362Y610000D02*
X499269Y610000D01*
X487362Y615000D02*
X499269Y615000D01*
X487362Y620000D02*
X499269Y620000D01*
X487362Y625000D02*
X499269Y625000D01*
X487362Y630000D02*
X499269Y630000D01*
X487362Y635000D02*
X499269Y635000D01*
X484743Y640000D02*
X499269Y640000D01*
X479743Y645000D02*
X499269Y645000D01*
X474743Y650000D02*
X499269Y650000D01*
X469743Y655000D02*
X499269Y655000D01*
X464743Y660000D02*
X499269Y660000D01*
X459743Y665000D02*
X499269Y665000D01*
X454744Y670000D02*
X499269Y670000D01*
X449744Y675000D02*
X499269Y675000D01*
X444744Y680000D02*
X499269Y680000D01*
X439744Y685000D02*
X499269Y685000D01*
X434744Y690000D02*
X499269Y690000D01*
X429744Y695000D02*
X499269Y695000D01*
X426244Y700000D02*
X499269Y700000D01*
X426244Y705000D02*
X499269Y705000D01*
X426244Y710000D02*
X499269Y710000D01*
X426244Y715000D02*
X499269Y715000D01*
X426244Y720000D02*
X499269Y720000D01*
X426244Y725000D02*
X498963Y725000D01*
G54D15*
X496094Y727869D02*
X499269Y724694D01*
X499269Y417512D01*
X517525Y417512D01*
X519906Y415131D01*
X519906Y371475D01*
X467519Y371475D01*
X467519Y384969D01*
X466725Y385762D01*
X434181Y385762D01*
X433388Y384969D01*
X433388Y371475D01*
X360362Y371475D01*
X360362Y415925D01*
X362744Y418306D01*
X487362Y418306D01*
X487362Y637381D01*
X426244Y698500D01*
X426244Y725488D01*
X428625Y727869D01*
X496094Y727869D01*
G54D14*
X365000Y279400D02*
X365000Y371475D01*
X370000Y279400D02*
X370000Y371475D01*
X375000Y279400D02*
X375000Y371475D01*
X380000Y279400D02*
X380000Y371475D01*
X385000Y279400D02*
X385000Y371475D01*
X390000Y279400D02*
X390000Y371475D01*
X395000Y279400D02*
X395000Y371475D01*
X400000Y279400D02*
X400000Y371475D01*
X405000Y279400D02*
X405000Y371475D01*
X410000Y279400D02*
X410000Y371475D01*
X415000Y279400D02*
X415000Y371475D01*
X420000Y279400D02*
X420000Y371475D01*
X425000Y279400D02*
X425000Y371475D01*
X430000Y279400D02*
X430000Y371475D01*
X435000Y324644D02*
X435000Y357188D01*
X440000Y324644D02*
X440000Y357188D01*
X445000Y324644D02*
X445000Y357188D01*
X450000Y324644D02*
X450000Y357188D01*
X455000Y324644D02*
X455000Y357188D01*
X460000Y324644D02*
X460000Y357188D01*
X465000Y324644D02*
X465000Y357188D01*
X470000Y279400D02*
X470000Y371475D01*
X475000Y279400D02*
X475000Y371475D01*
X480000Y279400D02*
X480000Y371475D01*
X485000Y279400D02*
X485000Y371475D01*
X490000Y279400D02*
X490000Y371475D01*
X495000Y279400D02*
X495000Y371475D01*
X500000Y279400D02*
X500000Y371475D01*
X505000Y279400D02*
X505000Y371475D01*
X510000Y279400D02*
X510000Y371475D01*
X515000Y279400D02*
X515000Y371475D01*
X520000Y279400D02*
X520000Y357188D01*
X525000Y279400D02*
X525000Y357188D01*
X530000Y279400D02*
X530000Y357188D01*
X535000Y279400D02*
X535000Y357188D01*
X540000Y279400D02*
X540000Y291056D01*
X545000Y279400D02*
X545000Y286057D01*
X550000Y279400D02*
X550000Y281057D01*
X360362Y280000D02*
X432400Y280000D01*
X466725Y280000D02*
X550069Y280000D01*
X360362Y285000D02*
X433388Y285000D01*
X466725Y285000D02*
X546057Y285000D01*
X360362Y290000D02*
X433388Y290000D01*
X466725Y290000D02*
X541056Y290000D01*
X360362Y295000D02*
X433388Y295000D01*
X466725Y295000D02*
X539750Y295000D01*
X360362Y300000D02*
X433388Y300000D01*
X466725Y300000D02*
X539750Y300000D01*
X360362Y305000D02*
X433388Y305000D01*
X466725Y305000D02*
X539750Y305000D01*
X360362Y310000D02*
X433388Y310000D01*
X466725Y310000D02*
X539750Y310000D01*
X360362Y315000D02*
X433388Y315000D01*
X466725Y315000D02*
X539750Y315000D01*
X360362Y320000D02*
X433388Y320000D01*
X466725Y320000D02*
X539750Y320000D01*
X360362Y325000D02*
X539750Y325000D01*
X360362Y330000D02*
X539750Y330000D01*
X360362Y335000D02*
X539750Y335000D01*
X360362Y340000D02*
X539750Y340000D01*
X360362Y345000D02*
X539750Y345000D01*
X360362Y350000D02*
X539750Y350000D01*
X360362Y355000D02*
X538762Y355000D01*
X360362Y360000D02*
X433388Y360000D01*
X467519Y360000D02*
X519906Y360000D01*
X360362Y365000D02*
X433388Y365000D01*
X467519Y365000D02*
X519906Y365000D01*
X360362Y370000D02*
X433388Y370000D01*
X467519Y370000D02*
X519906Y370000D01*
G54D15*
X433388Y371475D02*
X433388Y357188D01*
X467519Y357188D01*
X467519Y371475D01*
X519906Y371475D01*
X519906Y357188D01*
X536575Y357188D01*
X539750Y354012D01*
X539750Y291306D01*
X550069Y280988D01*
X550069Y279400D01*
X466725Y279400D01*
X466725Y324644D01*
X433388Y324644D01*
X433388Y280988D01*
X431800Y279400D01*
X360362Y279400D01*
X360362Y371475D01*
X433388Y371475D01*
G54D14*
X365000Y222250D02*
X365000Y279400D01*
X370000Y222250D02*
X370000Y279400D01*
X375000Y222250D02*
X375000Y279400D01*
X380000Y222250D02*
X380000Y279400D01*
X385000Y222250D02*
X385000Y279400D01*
X390000Y222250D02*
X390000Y279400D01*
X395000Y222250D02*
X395000Y279400D01*
X400000Y222250D02*
X400000Y279400D01*
X405000Y222250D02*
X405000Y279400D01*
X410000Y222250D02*
X410000Y279400D01*
X415000Y222250D02*
X415000Y279400D01*
X420000Y222250D02*
X420000Y279400D01*
X425000Y222250D02*
X425000Y279400D01*
X430000Y222250D02*
X430000Y279400D01*
X435000Y222250D02*
X435000Y234950D01*
X440000Y222250D02*
X440000Y234950D01*
X445000Y201906D02*
X445000Y234950D01*
X450000Y201612D02*
X450000Y234950D01*
X455000Y201612D02*
X455000Y234950D01*
X460000Y201612D02*
X460000Y234950D01*
X465000Y201612D02*
X465000Y234950D01*
X470000Y201612D02*
X470000Y279400D01*
X475000Y197306D02*
X475000Y279400D01*
X480000Y192306D02*
X480000Y279400D01*
X485000Y187307D02*
X485000Y279400D01*
X490000Y182307D02*
X490000Y279400D01*
X495000Y181769D02*
X495000Y279400D01*
X500000Y181769D02*
X500000Y279400D01*
X505000Y181769D02*
X505000Y279400D01*
X510000Y181769D02*
X510000Y279400D01*
X515000Y181769D02*
X515000Y279400D01*
X520000Y263525D02*
X520000Y279400D01*
X525000Y263525D02*
X525000Y279400D01*
X530000Y263525D02*
X530000Y279400D01*
X535000Y263525D02*
X535000Y279400D01*
X540000Y266156D02*
X540000Y279400D01*
X545000Y271156D02*
X545000Y279400D01*
X550000Y276156D02*
X550000Y279400D01*
X487307Y185000D02*
X519906Y185000D01*
X482307Y190000D02*
X519906Y190000D01*
X477306Y195000D02*
X519906Y195000D01*
X472306Y200000D02*
X519906Y200000D01*
X441906Y205000D02*
X519906Y205000D01*
X441325Y210000D02*
X519906Y210000D01*
X441325Y215000D02*
X519906Y215000D01*
X441325Y220000D02*
X519906Y220000D01*
X361581Y225000D02*
X519906Y225000D01*
X360362Y230000D02*
X519906Y230000D01*
X360362Y235000D02*
X433388Y235000D01*
X466725Y235000D02*
X519906Y235000D01*
X360362Y240000D02*
X433388Y240000D01*
X466725Y240000D02*
X519906Y240000D01*
X360362Y245000D02*
X433388Y245000D01*
X466725Y245000D02*
X519906Y245000D01*
X360362Y250000D02*
X433388Y250000D01*
X466725Y250000D02*
X519906Y250000D01*
X360362Y255000D02*
X433388Y255000D01*
X466725Y255000D02*
X519906Y255000D01*
X360362Y260000D02*
X433388Y260000D01*
X466725Y260000D02*
X519906Y260000D01*
X360362Y265000D02*
X433388Y265000D01*
X466725Y265000D02*
X538844Y265000D01*
X360362Y270000D02*
X433388Y270000D01*
X466725Y270000D02*
X543844Y270000D01*
X360362Y275000D02*
X433388Y275000D01*
X466725Y275000D02*
X548844Y275000D01*
G54D15*
X360362Y279400D02*
X360362Y226219D01*
X364331Y222250D01*
X441325Y222250D01*
X441325Y205581D01*
X445294Y201612D01*
X470694Y201612D01*
X490538Y181769D01*
X516731Y181769D01*
X519906Y184944D01*
X519906Y263525D01*
X537369Y263525D01*
X550069Y276225D01*
X550069Y279400D01*
X466725Y279400D01*
X466725Y234950D01*
X433388Y234950D01*
X433388Y277812D01*
X431800Y279400D01*
X360362Y279400D01*
G54D14*
X710000Y181769D02*
X710000Y236131D01*
X715000Y181769D02*
X715000Y241131D01*
X720000Y181769D02*
X720000Y246131D01*
X725000Y181769D02*
X725000Y251131D01*
X730000Y181769D02*
X730000Y256131D01*
X735000Y181769D02*
X735000Y261131D01*
X740000Y181769D02*
X740000Y266131D01*
X745000Y181769D02*
X745000Y271131D01*
X750000Y181769D02*
X750000Y417512D01*
X755000Y181769D02*
X755000Y417512D01*
X760000Y181769D02*
X760000Y417512D01*
X765000Y181769D02*
X765000Y417512D01*
X770000Y181769D02*
X770000Y417512D01*
X775000Y181769D02*
X775000Y417512D01*
X780000Y201612D02*
X780000Y214312D01*
X785000Y201612D02*
X785000Y214312D01*
X790000Y201612D02*
X790000Y214312D01*
X795000Y201612D02*
X795000Y214312D01*
X800000Y201612D02*
X800000Y214312D01*
X805000Y201612D02*
X805000Y214312D01*
X810000Y201612D02*
X810000Y214312D01*
X815000Y201612D02*
X815000Y214312D01*
X820000Y182507D02*
X820000Y397669D01*
X825000Y181769D02*
X825000Y397669D01*
X830000Y181769D02*
X830000Y397669D01*
X830000Y415393D02*
X830000Y417512D01*
X835000Y181769D02*
X835000Y397669D01*
X835000Y410393D02*
X835000Y417512D01*
X840000Y181769D02*
X840000Y417512D01*
X845000Y181769D02*
X845000Y417512D01*
X850000Y181769D02*
X850000Y417512D01*
X855000Y181769D02*
X855000Y417512D01*
X860000Y181769D02*
X860000Y417512D01*
X865000Y181769D02*
X865000Y417512D01*
X870000Y181769D02*
X870000Y234950D01*
X870000Y262731D02*
X870000Y296069D01*
X870000Y324644D02*
X870000Y412700D01*
X875000Y181769D02*
X875000Y234950D01*
X875000Y262731D02*
X875000Y296069D01*
X875000Y324644D02*
X875000Y407700D01*
X880000Y181769D02*
X880000Y234950D01*
X880000Y262731D02*
X880000Y296069D01*
X880000Y324644D02*
X880000Y402700D01*
X885000Y181769D02*
X885000Y234950D01*
X885000Y265875D02*
X885000Y292925D01*
X885000Y324644D02*
X885000Y397700D01*
X890000Y184357D02*
X890000Y234950D01*
X890000Y270875D02*
X890000Y287925D01*
X890000Y324644D02*
X890000Y356394D01*
X895000Y189357D02*
X895000Y234950D01*
X895000Y324644D02*
X895000Y356394D01*
X900000Y194356D02*
X900000Y234950D01*
X900000Y324644D02*
X900000Y356394D01*
X905000Y199356D02*
X905000Y234950D01*
X905000Y324644D02*
X905000Y356394D01*
X910000Y201612D02*
X910000Y234950D01*
X910000Y324644D02*
X910000Y356394D01*
X915000Y201612D02*
X915000Y234950D01*
X915000Y324644D02*
X915000Y356394D01*
X920000Y201612D02*
X920000Y234950D01*
X920000Y324644D02*
X920000Y356394D01*
X925000Y201612D02*
X925000Y234950D01*
X925000Y324644D02*
X925000Y356394D01*
X930000Y204512D02*
X930000Y232050D01*
X930000Y326750D02*
X930000Y354288D01*
X705644Y185000D02*
X778669Y185000D01*
X817507Y185000D02*
X890643Y185000D01*
X705644Y190000D02*
X778669Y190000D01*
X816769Y190000D02*
X895643Y190000D01*
X705644Y195000D02*
X778669Y195000D01*
X816769Y195000D02*
X900644Y195000D01*
X705644Y200000D02*
X778669Y200000D01*
X816769Y200000D02*
X905644Y200000D01*
X705644Y205000D02*
X930488Y205000D01*
X705644Y210000D02*
X931069Y210000D01*
X705644Y215000D02*
X778669Y215000D01*
X816769Y215000D02*
X931069Y215000D01*
X705644Y220000D02*
X778669Y220000D01*
X816769Y220000D02*
X931069Y220000D01*
X705644Y225000D02*
X778669Y225000D01*
X816769Y225000D02*
X931069Y225000D01*
X705644Y230000D02*
X778669Y230000D01*
X816769Y230000D02*
X931069Y230000D01*
X708869Y235000D02*
X778669Y235000D01*
X816769Y235000D02*
X869950Y235000D01*
X713869Y240000D02*
X778669Y240000D01*
X816769Y240000D02*
X869950Y240000D01*
X718869Y245000D02*
X778669Y245000D01*
X816769Y245000D02*
X869950Y245000D01*
X723869Y250000D02*
X778669Y250000D01*
X816769Y250000D02*
X869950Y250000D01*
X728869Y255000D02*
X778669Y255000D01*
X816769Y255000D02*
X869950Y255000D01*
X733869Y260000D02*
X778669Y260000D01*
X816769Y260000D02*
X869950Y260000D01*
X738869Y265000D02*
X778669Y265000D01*
X816769Y265000D02*
X884125Y265000D01*
X743869Y270000D02*
X778669Y270000D01*
X816769Y270000D02*
X889125Y270000D01*
X746125Y275000D02*
X778669Y275000D01*
X816769Y275000D02*
X894125Y275000D01*
X746125Y280000D02*
X778669Y280000D01*
X816769Y280000D02*
X894556Y280000D01*
X746125Y285000D02*
X778669Y285000D01*
X816769Y285000D02*
X892925Y285000D01*
X746125Y290000D02*
X778669Y290000D01*
X816769Y290000D02*
X887925Y290000D01*
X746125Y295000D02*
X778669Y295000D01*
X816769Y295000D02*
X882925Y295000D01*
X746125Y300000D02*
X778669Y300000D01*
X816769Y300000D02*
X869950Y300000D01*
X746125Y305000D02*
X778669Y305000D01*
X816769Y305000D02*
X869950Y305000D01*
X746125Y310000D02*
X778669Y310000D01*
X816769Y310000D02*
X869950Y310000D01*
X746125Y315000D02*
X778669Y315000D01*
X816769Y315000D02*
X869950Y315000D01*
X746125Y320000D02*
X778669Y320000D01*
X816769Y320000D02*
X869950Y320000D01*
X746125Y325000D02*
X778669Y325000D01*
X816769Y325000D02*
X928250Y325000D01*
X746125Y330000D02*
X778669Y330000D01*
X816769Y330000D02*
X931069Y330000D01*
X746125Y335000D02*
X778669Y335000D01*
X816769Y335000D02*
X931069Y335000D01*
X746125Y340000D02*
X778669Y340000D01*
X816769Y340000D02*
X931069Y340000D01*
X746125Y345000D02*
X778669Y345000D01*
X816769Y345000D02*
X931069Y345000D01*
X746125Y350000D02*
X778669Y350000D01*
X816769Y350000D02*
X931069Y350000D01*
X746125Y355000D02*
X778669Y355000D01*
X816769Y355000D02*
X929288Y355000D01*
X746125Y360000D02*
X778669Y360000D01*
X816769Y360000D02*
X889794Y360000D01*
X746125Y365000D02*
X778669Y365000D01*
X816769Y365000D02*
X889794Y365000D01*
X746125Y370000D02*
X778669Y370000D01*
X816769Y370000D02*
X889794Y370000D01*
X746125Y375000D02*
X778669Y375000D01*
X816769Y375000D02*
X889794Y375000D01*
X746125Y380000D02*
X778669Y380000D01*
X816769Y380000D02*
X889794Y380000D01*
X746125Y385000D02*
X778669Y385000D01*
X816769Y385000D02*
X889794Y385000D01*
X746125Y390000D02*
X778669Y390000D01*
X816769Y390000D02*
X889794Y390000D01*
X746125Y395000D02*
X778669Y395000D01*
X817275Y395000D02*
X887700Y395000D01*
X746125Y400000D02*
X778669Y400000D01*
X836612Y400000D02*
X882700Y400000D01*
X746125Y405000D02*
X778669Y405000D01*
X836612Y405000D02*
X877700Y405000D01*
X746125Y410000D02*
X778669Y410000D01*
X835393Y410000D02*
X872700Y410000D01*
X746787Y415000D02*
X778007Y415000D01*
X830393Y415000D02*
X867700Y415000D01*
G54D15*
X749300Y417512D02*
X746125Y414338D01*
X746125Y272256D01*
X705644Y231775D01*
X705644Y184944D01*
X708819Y181769D01*
X775494Y181769D01*
X778669Y184944D01*
X778669Y201612D01*
X816769Y201612D01*
X816769Y185738D01*
X820738Y181769D01*
X887412Y181769D01*
X907256Y201612D01*
X927100Y201612D01*
X931069Y205581D01*
X931069Y230981D01*
X927100Y234950D01*
X869950Y234950D01*
X869950Y262731D01*
X881856Y262731D01*
X894556Y275431D01*
X894556Y283369D01*
X881856Y296069D01*
X869950Y296069D01*
X869950Y324644D01*
X927894Y324644D01*
X931069Y327819D01*
X931069Y353219D01*
X927894Y356394D01*
X889794Y356394D01*
X889794Y392906D01*
X865188Y417512D01*
X827881Y417512D01*
X836612Y408781D01*
X836612Y397669D01*
X819944Y397669D01*
X816769Y394494D01*
X816769Y214312D01*
X778669Y214312D01*
X778669Y414338D01*
X775494Y417512D01*
X749300Y417512D01*
G54D14*
X820000Y425394D02*
X820000Y702469D01*
X825000Y420393D02*
X825000Y702469D01*
X830000Y417512D02*
X830000Y432063D01*
X830000Y507206D02*
X830000Y600869D01*
X830000Y689769D02*
X830000Y702469D01*
X835000Y417512D02*
X835000Y427063D01*
X835000Y507206D02*
X835000Y600869D01*
X835000Y689769D02*
X835000Y702469D01*
X840000Y417512D02*
X840000Y422062D01*
X840000Y507206D02*
X840000Y600869D01*
X840000Y689769D02*
X840000Y702469D01*
X845000Y507206D02*
X845000Y600869D01*
X845000Y689769D02*
X845000Y702469D01*
X850000Y507206D02*
X850000Y600869D01*
X850000Y689769D02*
X850000Y702469D01*
X855000Y507206D02*
X855000Y600869D01*
X855000Y689769D02*
X855000Y702469D01*
X860000Y507206D02*
X860000Y600869D01*
X860000Y686225D02*
X860000Y702100D01*
X865000Y507206D02*
X865000Y600869D01*
X865000Y681225D02*
X865000Y697100D01*
X870000Y507206D02*
X870000Y600869D01*
X870000Y679450D02*
X870000Y692150D01*
X875000Y507206D02*
X875000Y600869D01*
X875000Y679450D02*
X875000Y692150D01*
X880000Y507206D02*
X880000Y600869D01*
X880000Y679450D02*
X880000Y692150D01*
X885000Y507206D02*
X885000Y600869D01*
X885000Y679450D02*
X885000Y692150D01*
X890000Y507206D02*
X890000Y600869D01*
X890000Y679450D02*
X890000Y692150D01*
X895000Y507206D02*
X895000Y600869D01*
X895000Y679450D02*
X895000Y692150D01*
X900000Y507206D02*
X900000Y600869D01*
X900000Y679450D02*
X900000Y710406D01*
X905000Y507206D02*
X905000Y600869D01*
X905000Y679450D02*
X905000Y710406D01*
X910000Y507206D02*
X910000Y600869D01*
X910000Y682194D02*
X910000Y710406D01*
X915000Y507206D02*
X915000Y600869D01*
X920000Y507206D02*
X920000Y600869D01*
X925000Y507206D02*
X925000Y600869D01*
X930000Y510900D02*
X930000Y597175D01*
X825393Y420000D02*
X842062Y420000D01*
X820394Y425000D02*
X837062Y425000D01*
X816769Y430000D02*
X832063Y430000D01*
X816769Y435000D02*
X828675Y435000D01*
X816769Y440000D02*
X828675Y440000D01*
X816769Y445000D02*
X828675Y445000D01*
X816769Y450000D02*
X828675Y450000D01*
X816769Y455000D02*
X828675Y455000D01*
X816769Y460000D02*
X828675Y460000D01*
X816769Y465000D02*
X828675Y465000D01*
X816769Y470000D02*
X828675Y470000D01*
X816769Y475000D02*
X828675Y475000D01*
X816769Y480000D02*
X828675Y480000D01*
X816769Y485000D02*
X828675Y485000D01*
X816769Y490000D02*
X828675Y490000D01*
X816769Y495000D02*
X828675Y495000D01*
X816769Y500000D02*
X828675Y500000D01*
X816769Y505000D02*
X828675Y505000D01*
X816769Y510000D02*
X929100Y510000D01*
X816769Y515000D02*
X930275Y515000D01*
X816769Y520000D02*
X930275Y520000D01*
X816769Y525000D02*
X930275Y525000D01*
X816769Y530000D02*
X930275Y530000D01*
X816769Y535000D02*
X930275Y535000D01*
X816769Y540000D02*
X930275Y540000D01*
X816769Y545000D02*
X930275Y545000D01*
X816769Y550000D02*
X930275Y550000D01*
X816769Y555000D02*
X930275Y555000D01*
X816769Y560000D02*
X930275Y560000D01*
X816769Y565000D02*
X930275Y565000D01*
X816769Y570000D02*
X930275Y570000D01*
X816769Y575000D02*
X930275Y575000D01*
X816769Y580000D02*
X930275Y580000D01*
X816769Y585000D02*
X930275Y585000D01*
X816769Y590000D02*
X930275Y590000D01*
X816769Y595000D02*
X930275Y595000D01*
X816769Y600000D02*
X927175Y600000D01*
X816769Y605000D02*
X828675Y605000D01*
X816769Y610000D02*
X828675Y610000D01*
X816769Y615000D02*
X828675Y615000D01*
X816769Y620000D02*
X828675Y620000D01*
X816769Y625000D02*
X828675Y625000D01*
X816769Y630000D02*
X828675Y630000D01*
X816769Y635000D02*
X828675Y635000D01*
X816769Y640000D02*
X828675Y640000D01*
X816769Y645000D02*
X828675Y645000D01*
X816769Y650000D02*
X828675Y650000D01*
X816769Y655000D02*
X828675Y655000D01*
X816769Y660000D02*
X828675Y660000D01*
X816769Y665000D02*
X828675Y665000D01*
X816769Y670000D02*
X828675Y670000D01*
X816769Y675000D02*
X828675Y675000D01*
X816769Y680000D02*
X828675Y680000D01*
X866225Y680000D02*
X907806Y680000D01*
X816769Y685000D02*
X828675Y685000D01*
X861225Y685000D02*
X910431Y685000D01*
X816769Y690000D02*
X910431Y690000D01*
X816769Y695000D02*
X867100Y695000D01*
X896938Y695000D02*
X910431Y695000D01*
X816769Y700000D02*
X862100Y700000D01*
X896938Y700000D02*
X910431Y700000D01*
X896938Y705000D02*
X910431Y705000D01*
X896938Y710000D02*
X910431Y710000D01*
G54D15*
X827881Y417512D02*
X845344Y417512D01*
X844550Y417512D01*
X828675Y433388D01*
X828675Y507206D01*
X926306Y507206D01*
X930275Y511175D01*
X930275Y596900D01*
X926306Y600869D01*
X828675Y600869D01*
X828675Y689769D01*
X856456Y689769D01*
X866775Y679450D01*
X907256Y679450D01*
X910431Y682625D01*
X910431Y710406D01*
X896938Y710406D01*
X896938Y692150D01*
X869950Y692150D01*
X859631Y702469D01*
X819150Y702469D01*
X816769Y700088D01*
X816769Y428625D01*
X827881Y417512D01*
G54D14*
X900000Y710406D02*
X900000Y742838D01*
X905000Y710406D02*
X905000Y742950D01*
X910000Y710406D02*
X910000Y742950D01*
X915000Y710406D02*
X915000Y742950D01*
X920000Y710406D02*
X920000Y742950D01*
X925000Y710406D02*
X925000Y742950D01*
X930000Y710406D02*
X930000Y742950D01*
X935000Y710406D02*
X935000Y742950D01*
X940000Y692743D02*
X940000Y742950D01*
X945000Y689769D02*
X945000Y742950D01*
X950000Y689769D02*
X950000Y742950D01*
X955000Y689769D02*
X955000Y742950D01*
X960000Y651312D02*
X960000Y742950D01*
X965000Y649288D02*
X965000Y742950D01*
X970000Y649288D02*
X970000Y742950D01*
X975000Y649288D02*
X975000Y742950D01*
X980000Y649288D02*
X980000Y742950D01*
X985000Y649288D02*
X985000Y742950D01*
X990000Y649288D02*
X990000Y742950D01*
X995000Y649288D02*
X995000Y742950D01*
X1000000Y649288D02*
X1000000Y742950D01*
X1005000Y649288D02*
X1005000Y742950D01*
X1010000Y649288D02*
X1010000Y742950D01*
X1015000Y649288D02*
X1015000Y742950D01*
X1020000Y649288D02*
X1020000Y742950D01*
X1025000Y649288D02*
X1025000Y742950D01*
X1030000Y649288D02*
X1030000Y742950D01*
X1035000Y649288D02*
X1035000Y742950D01*
X1040000Y619919D02*
X1040000Y742950D01*
X1045000Y619919D02*
X1045000Y742950D01*
X1050000Y619919D02*
X1050000Y742950D01*
X1055000Y619919D02*
X1055000Y742950D01*
X1060000Y619919D02*
X1060000Y742950D01*
X1065000Y619919D02*
X1065000Y742950D01*
X1070000Y619919D02*
X1070000Y742950D01*
X1075000Y619919D02*
X1075000Y742950D01*
X1080000Y619919D02*
X1080000Y742950D01*
X1085000Y619919D02*
X1085000Y742950D01*
X1090000Y619919D02*
X1090000Y742950D01*
X1095000Y649288D02*
X1095000Y742950D01*
X1100000Y649288D02*
X1100000Y742950D01*
X1105000Y649288D02*
X1105000Y742950D01*
X1110000Y649288D02*
X1110000Y742950D01*
X1115000Y649288D02*
X1115000Y742950D01*
X1120000Y649288D02*
X1120000Y742950D01*
X1125000Y649288D02*
X1125000Y742950D01*
X1130000Y649288D02*
X1130000Y742950D01*
X1135000Y649288D02*
X1135000Y742950D01*
X1140000Y649288D02*
X1140000Y742950D01*
X1145000Y619919D02*
X1145000Y742950D01*
X1150000Y619919D02*
X1150000Y742300D01*
X1039812Y620000D02*
X1092994Y620000D01*
X1141412Y620000D02*
X1154112Y620000D01*
X1039812Y625000D02*
X1092994Y625000D01*
X1141412Y625000D02*
X1154112Y625000D01*
X1039812Y630000D02*
X1092994Y630000D01*
X1141412Y630000D02*
X1154112Y630000D01*
X1039812Y635000D02*
X1092994Y635000D01*
X1141412Y635000D02*
X1154112Y635000D01*
X1039812Y640000D02*
X1092994Y640000D01*
X1141412Y640000D02*
X1154112Y640000D01*
X1039812Y645000D02*
X1092994Y645000D01*
X1141412Y645000D02*
X1154112Y645000D01*
X961313Y650000D02*
X1154112Y650000D01*
X958850Y655000D02*
X1154112Y655000D01*
X958850Y660000D02*
X1154112Y660000D01*
X958850Y665000D02*
X1154112Y665000D01*
X958850Y670000D02*
X1154112Y670000D01*
X958850Y675000D02*
X1154112Y675000D01*
X958850Y680000D02*
X1154112Y680000D01*
X958850Y685000D02*
X1154112Y685000D01*
X942744Y690000D02*
X1154112Y690000D01*
X938212Y695000D02*
X1154112Y695000D01*
X938212Y700000D02*
X1154112Y700000D01*
X938212Y705000D02*
X1154112Y705000D01*
X938212Y710000D02*
X1154112Y710000D01*
X896938Y715000D02*
X1154112Y715000D01*
X896938Y720000D02*
X1154112Y720000D01*
X896938Y725000D02*
X1154112Y725000D01*
X896938Y730000D02*
X1154112Y730000D01*
X896938Y735000D02*
X1154112Y735000D01*
X897163Y740000D02*
X1152300Y740000D01*
G54D15*
X938212Y710406D02*
X938212Y694531D01*
X942975Y689769D01*
X958850Y689769D01*
X958850Y652462D01*
X962025Y649288D01*
X1039812Y649288D01*
X1039812Y619919D01*
X1092994Y619919D01*
X1092994Y649288D01*
X1141412Y649288D01*
X1141412Y619919D01*
X1154112Y619919D01*
X1154112Y738188D01*
X1149350Y742950D01*
X900112Y742950D01*
X896938Y739775D01*
X896938Y710406D01*
X938212Y710406D01*
G54D14*
X985000Y506412D02*
X985000Y600869D01*
X990000Y506412D02*
X990000Y600869D01*
X995000Y506412D02*
X995000Y600869D01*
X1000000Y506412D02*
X1000000Y600869D01*
X1005000Y506412D02*
X1005000Y600869D01*
X1010000Y506412D02*
X1010000Y600869D01*
X1015000Y506412D02*
X1015000Y600869D01*
X1020000Y506412D02*
X1020000Y600869D01*
X1025000Y506412D02*
X1025000Y600869D01*
X1030000Y506412D02*
X1030000Y600869D01*
X1035000Y506412D02*
X1035000Y600869D01*
X1040000Y492919D02*
X1040000Y619919D01*
X1045000Y492919D02*
X1045000Y619919D01*
X1050000Y492919D02*
X1050000Y619919D01*
X1055000Y492919D02*
X1055000Y619919D01*
X1060000Y492919D02*
X1060000Y619919D01*
X1065000Y492919D02*
X1065000Y619919D01*
X1070000Y492919D02*
X1070000Y619919D01*
X1075000Y492919D02*
X1075000Y619919D01*
X1080000Y492919D02*
X1080000Y619919D01*
X1085000Y492919D02*
X1085000Y619919D01*
X1090000Y492919D02*
X1090000Y619919D01*
X1095000Y527050D02*
X1095000Y600869D01*
X1100000Y527050D02*
X1100000Y600869D01*
X1105000Y527050D02*
X1105000Y600869D01*
X1110000Y527050D02*
X1110000Y600869D01*
X1115000Y527050D02*
X1115000Y600869D01*
X1120000Y527050D02*
X1120000Y600869D01*
X1125000Y527050D02*
X1125000Y600869D01*
X1130000Y527050D02*
X1130000Y600869D01*
X1135000Y527050D02*
X1135000Y600869D01*
X1140000Y527050D02*
X1140000Y600869D01*
X1145000Y492919D02*
X1145000Y619919D01*
X1150000Y492919D02*
X1150000Y619919D01*
X1039812Y495000D02*
X1092994Y495000D01*
X1141412Y495000D02*
X1154112Y495000D01*
X1039812Y500000D02*
X1092994Y500000D01*
X1141412Y500000D02*
X1154112Y500000D01*
X1039812Y505000D02*
X1092994Y505000D01*
X1141412Y505000D02*
X1154112Y505000D01*
X980281Y510000D02*
X1092994Y510000D01*
X1141412Y510000D02*
X1154112Y510000D01*
X980281Y515000D02*
X1092994Y515000D01*
X1141412Y515000D02*
X1154112Y515000D01*
X980281Y520000D02*
X1092994Y520000D01*
X1141412Y520000D02*
X1154112Y520000D01*
X980281Y525000D02*
X1092994Y525000D01*
X1141412Y525000D02*
X1154112Y525000D01*
X980281Y530000D02*
X1154112Y530000D01*
X980281Y535000D02*
X1154112Y535000D01*
X980281Y540000D02*
X1154112Y540000D01*
X980281Y545000D02*
X1154112Y545000D01*
X980281Y550000D02*
X1154112Y550000D01*
X980281Y555000D02*
X1154112Y555000D01*
X980281Y560000D02*
X1154112Y560000D01*
X980281Y565000D02*
X1154112Y565000D01*
X980281Y570000D02*
X1154112Y570000D01*
X980281Y575000D02*
X1154112Y575000D01*
X980281Y580000D02*
X1154112Y580000D01*
X980281Y585000D02*
X1154112Y585000D01*
X980281Y590000D02*
X1154112Y590000D01*
X980281Y595000D02*
X1154112Y595000D01*
X982587Y600000D02*
X1154112Y600000D01*
X1039812Y605000D02*
X1092994Y605000D01*
X1141412Y605000D02*
X1154112Y605000D01*
X1039812Y610000D02*
X1092994Y610000D01*
X1141412Y610000D02*
X1154112Y610000D01*
X1039812Y615000D02*
X1092994Y615000D01*
X1141412Y615000D02*
X1154112Y615000D01*
G54D15*
X1141412Y619919D02*
X1141412Y600869D01*
X1092994Y600869D01*
X1092994Y619919D01*
X1039812Y619919D01*
X1039812Y600869D01*
X983456Y600869D01*
X980281Y597694D01*
X980281Y509588D01*
X983456Y506412D01*
X1039812Y506412D01*
X1039812Y492919D01*
X1092994Y492919D01*
X1092994Y527050D01*
X1141412Y527050D01*
X1141412Y492919D01*
X1154112Y492919D01*
X1154112Y619919D01*
X1141412Y619919D01*
G54D14*
X980000Y390525D02*
X980000Y394212D01*
X985000Y390525D02*
X985000Y397669D01*
X985000Y425450D02*
X985000Y478631D01*
X990000Y390525D02*
X990000Y397669D01*
X990000Y425450D02*
X990000Y478631D01*
X995000Y390525D02*
X995000Y397669D01*
X995000Y425450D02*
X995000Y478631D01*
X1000000Y390525D02*
X1000000Y478631D01*
X1005000Y390525D02*
X1005000Y478631D01*
X1010000Y390525D02*
X1010000Y478631D01*
X1015000Y390525D02*
X1015000Y478631D01*
X1020000Y390525D02*
X1020000Y478631D01*
X1025000Y390525D02*
X1025000Y478631D01*
X1030000Y390525D02*
X1030000Y478631D01*
X1035000Y405606D02*
X1035000Y478631D01*
X1040000Y405606D02*
X1040000Y492919D01*
X1045000Y405606D02*
X1045000Y492919D01*
X1050000Y405606D02*
X1050000Y492919D01*
X1055000Y405606D02*
X1055000Y492919D01*
X1060000Y405606D02*
X1060000Y492919D01*
X1065000Y390525D02*
X1065000Y492919D01*
X1070000Y390525D02*
X1070000Y492919D01*
X1075000Y390525D02*
X1075000Y492919D01*
X1080000Y390525D02*
X1080000Y492919D01*
X1085000Y390525D02*
X1085000Y492919D01*
X1090000Y390525D02*
X1090000Y492919D01*
X1095000Y390525D02*
X1095000Y457994D01*
X1100000Y390525D02*
X1100000Y457994D01*
X1105000Y390525D02*
X1105000Y457994D01*
X1110000Y390525D02*
X1110000Y457994D01*
X1115000Y390525D02*
X1115000Y457994D01*
X1120000Y390525D02*
X1120000Y457994D01*
X1125000Y390525D02*
X1125000Y457994D01*
X1130000Y390525D02*
X1130000Y457994D01*
X1135000Y390525D02*
X1135000Y457994D01*
X1140000Y390525D02*
X1140000Y457994D01*
X1145000Y390525D02*
X1145000Y492919D01*
X1150000Y390525D02*
X1150000Y492919D01*
X980788Y395000D02*
X1031875Y395000D01*
X1060450Y395000D02*
X1154112Y395000D01*
X999331Y400000D02*
X1031875Y400000D01*
X1060450Y400000D02*
X1154112Y400000D01*
X999331Y405000D02*
X1031875Y405000D01*
X1060450Y405000D02*
X1154112Y405000D01*
X999331Y410000D02*
X1154112Y410000D01*
X999331Y415000D02*
X1154112Y415000D01*
X999331Y420000D02*
X1154112Y420000D01*
X999331Y425000D02*
X1154112Y425000D01*
X980281Y430000D02*
X1154112Y430000D01*
X980281Y435000D02*
X1154112Y435000D01*
X980281Y440000D02*
X1154112Y440000D01*
X980281Y445000D02*
X1154112Y445000D01*
X980281Y450000D02*
X1154112Y450000D01*
X980281Y455000D02*
X1154112Y455000D01*
X980281Y460000D02*
X1092994Y460000D01*
X1141412Y460000D02*
X1154112Y460000D01*
X980281Y465000D02*
X1092994Y465000D01*
X1141412Y465000D02*
X1154112Y465000D01*
X980281Y470000D02*
X1092994Y470000D01*
X1141412Y470000D02*
X1154112Y470000D01*
X980281Y475000D02*
X1092994Y475000D01*
X1141412Y475000D02*
X1154112Y475000D01*
X1039812Y480000D02*
X1092994Y480000D01*
X1141412Y480000D02*
X1154112Y480000D01*
X1039812Y485000D02*
X1092994Y485000D01*
X1141412Y485000D02*
X1154112Y485000D01*
X1039812Y490000D02*
X1092994Y490000D01*
X1141412Y490000D02*
X1154112Y490000D01*
G54D15*
X1141412Y492919D02*
X1154112Y492919D01*
X1154112Y390525D01*
X1060450Y390525D01*
X1060450Y405606D01*
X1031875Y405606D01*
X1031875Y390525D01*
X979488Y390525D01*
X979488Y393700D01*
X983456Y397669D01*
X999331Y397669D01*
X999331Y425450D01*
X983456Y425450D01*
X980281Y428625D01*
X980281Y475456D01*
X983456Y478631D01*
X1039812Y478631D01*
X1039812Y492919D01*
X1092994Y492919D01*
X1092994Y457994D01*
X1141412Y457994D01*
X1141412Y492919D01*
G54D14*
X960000Y283369D02*
X960000Y374212D01*
X965000Y283369D02*
X965000Y377031D01*
X970000Y283369D02*
X970000Y377031D01*
X975000Y283369D02*
X975000Y377031D01*
X980000Y283369D02*
X980000Y390525D01*
X985000Y283369D02*
X985000Y390525D01*
X990000Y283369D02*
X990000Y390525D01*
X995000Y283369D02*
X995000Y390525D01*
X1000000Y283369D02*
X1000000Y390525D01*
X1005000Y283369D02*
X1005000Y390525D01*
X1010000Y283369D02*
X1010000Y390525D01*
X1015000Y283369D02*
X1015000Y390525D01*
X1020000Y283369D02*
X1020000Y390525D01*
X1025000Y283369D02*
X1025000Y390525D01*
X1030000Y283369D02*
X1030000Y390525D01*
X1035000Y283369D02*
X1035000Y377031D01*
X1040000Y283369D02*
X1040000Y377031D01*
X1045000Y283369D02*
X1045000Y377031D01*
X1050000Y283369D02*
X1050000Y377031D01*
X1055000Y283369D02*
X1055000Y377031D01*
X1060000Y283369D02*
X1060000Y377031D01*
X1065000Y283369D02*
X1065000Y390525D01*
X1070000Y283369D02*
X1070000Y390525D01*
X1075000Y283369D02*
X1075000Y390525D01*
X1080000Y283369D02*
X1080000Y390525D01*
X1085000Y283369D02*
X1085000Y390525D01*
X1090000Y283369D02*
X1090000Y390525D01*
X1095000Y304006D02*
X1095000Y390525D01*
X1100000Y304006D02*
X1100000Y390525D01*
X1105000Y304006D02*
X1105000Y390525D01*
X1110000Y304006D02*
X1110000Y390525D01*
X1115000Y304006D02*
X1115000Y390525D01*
X1120000Y304006D02*
X1120000Y390525D01*
X1125000Y283369D02*
X1125000Y390525D01*
X1130000Y283369D02*
X1130000Y390525D01*
X1135000Y283369D02*
X1135000Y390525D01*
X1140000Y283369D02*
X1140000Y390525D01*
X1145000Y283369D02*
X1145000Y390525D01*
X1150000Y283369D02*
X1150000Y390525D01*
X959644Y285000D02*
X1092994Y285000D01*
X1121569Y285000D02*
X1154112Y285000D01*
X959644Y290000D02*
X1092994Y290000D01*
X1121569Y290000D02*
X1154112Y290000D01*
X959644Y295000D02*
X1092994Y295000D01*
X1121569Y295000D02*
X1154112Y295000D01*
X959644Y300000D02*
X1092994Y300000D01*
X1121569Y300000D02*
X1154112Y300000D01*
X959644Y305000D02*
X1154112Y305000D01*
X959644Y310000D02*
X1154112Y310000D01*
X959644Y315000D02*
X1154112Y315000D01*
X959644Y320000D02*
X1154112Y320000D01*
X959644Y325000D02*
X1154112Y325000D01*
X959644Y330000D02*
X1154112Y330000D01*
X959644Y335000D02*
X1154112Y335000D01*
X959644Y340000D02*
X1154112Y340000D01*
X959644Y345000D02*
X1154112Y345000D01*
X959644Y350000D02*
X1154112Y350000D01*
X959644Y355000D02*
X1154112Y355000D01*
X959644Y360000D02*
X1154112Y360000D01*
X959644Y365000D02*
X1154112Y365000D01*
X959644Y370000D02*
X1154112Y370000D01*
X960788Y375000D02*
X1154112Y375000D01*
X979488Y380000D02*
X1031875Y380000D01*
X1060450Y380000D02*
X1154112Y380000D01*
X979488Y385000D02*
X1031875Y385000D01*
X1060450Y385000D02*
X1154112Y385000D01*
X979488Y390000D02*
X1031875Y390000D01*
X1060450Y390000D02*
X1154112Y390000D01*
G54D15*
X1031875Y390525D02*
X1031875Y377031D01*
X1060450Y377031D01*
X1060450Y390525D01*
X1154112Y390525D01*
X1154112Y283369D01*
X1121569Y283369D01*
X1121569Y304006D01*
X1092994Y304006D01*
X1092994Y283369D01*
X959644Y283369D01*
X959644Y373856D01*
X962819Y377031D01*
X979488Y377031D01*
X979488Y390525D01*
X1031875Y390525D01*
G54D14*
X960000Y232569D02*
X960000Y283369D01*
X965000Y232569D02*
X965000Y283369D01*
X970000Y232569D02*
X970000Y283369D01*
X975000Y232569D02*
X975000Y283369D01*
X980000Y232569D02*
X980000Y283369D01*
X985000Y232569D02*
X985000Y283369D01*
X990000Y232569D02*
X990000Y283369D01*
X995000Y232569D02*
X995000Y283369D01*
X1000000Y232569D02*
X1000000Y283369D01*
X1005000Y232569D02*
X1005000Y283369D01*
X1010000Y232569D02*
X1010000Y283369D01*
X1015000Y232569D02*
X1015000Y283369D01*
X1020000Y232569D02*
X1020000Y283369D01*
X1025000Y232569D02*
X1025000Y283369D01*
X1030000Y232569D02*
X1030000Y283369D01*
X1035000Y232569D02*
X1035000Y283369D01*
X1040000Y232569D02*
X1040000Y283369D01*
X1045000Y232569D02*
X1045000Y283369D01*
X1050000Y232569D02*
X1050000Y283369D01*
X1055000Y232569D02*
X1055000Y283369D01*
X1060000Y232569D02*
X1060000Y283369D01*
X1065000Y232569D02*
X1065000Y283369D01*
X1070000Y232569D02*
X1070000Y283369D01*
X1075000Y232569D02*
X1075000Y283369D01*
X1080000Y232569D02*
X1080000Y283369D01*
X1085000Y232569D02*
X1085000Y283369D01*
X1090000Y232569D02*
X1090000Y283369D01*
X1095000Y252412D02*
X1095000Y265112D01*
X1100000Y252412D02*
X1100000Y265112D01*
X1105000Y252412D02*
X1105000Y265112D01*
X1110000Y252412D02*
X1110000Y265112D01*
X1115000Y252412D02*
X1115000Y265112D01*
X1120000Y252412D02*
X1120000Y265112D01*
X1125000Y232569D02*
X1125000Y283369D01*
X1130000Y232569D02*
X1130000Y283369D01*
X1135000Y232569D02*
X1135000Y283369D01*
X1140000Y232569D02*
X1140000Y283369D01*
X1145000Y232569D02*
X1145000Y283369D01*
X1150000Y232569D02*
X1150000Y283369D01*
X959644Y235000D02*
X1092994Y235000D01*
X1121569Y235000D02*
X1154112Y235000D01*
X959644Y240000D02*
X1092994Y240000D01*
X1121569Y240000D02*
X1154112Y240000D01*
X959644Y245000D02*
X1092994Y245000D01*
X1121569Y245000D02*
X1154112Y245000D01*
X959644Y250000D02*
X1092994Y250000D01*
X1121569Y250000D02*
X1154112Y250000D01*
X959644Y255000D02*
X1154112Y255000D01*
X959644Y260000D02*
X1154112Y260000D01*
X959644Y265000D02*
X1154112Y265000D01*
X959644Y270000D02*
X1092994Y270000D01*
X1121569Y270000D02*
X1154112Y270000D01*
X959644Y275000D02*
X1092994Y275000D01*
X1121569Y275000D02*
X1154112Y275000D01*
X959644Y280000D02*
X1092994Y280000D01*
X1121569Y280000D02*
X1154112Y280000D01*
G54D15*
X1121569Y283369D02*
X1121569Y265112D01*
X1092994Y265112D01*
X1092994Y283369D01*
X959644Y283369D01*
X959644Y232569D01*
X1092994Y232569D01*
X1092994Y252412D01*
X1121569Y252412D01*
X1121569Y232569D01*
X1154112Y232569D01*
X1154112Y283369D01*
X1121569Y283369D01*
G54D14*
X960000Y182562D02*
X960000Y232569D01*
X965000Y182562D02*
X965000Y232569D01*
X970000Y182562D02*
X970000Y232569D01*
X975000Y182562D02*
X975000Y232569D01*
X980000Y182562D02*
X980000Y232569D01*
X985000Y182562D02*
X985000Y232569D01*
X990000Y182562D02*
X990000Y232569D01*
X995000Y182562D02*
X995000Y232569D01*
X1000000Y182562D02*
X1000000Y232569D01*
X1005000Y182562D02*
X1005000Y232569D01*
X1010000Y182562D02*
X1010000Y232569D01*
X1015000Y201612D02*
X1015000Y232569D01*
X1020000Y201612D02*
X1020000Y232569D01*
X1025000Y201612D02*
X1025000Y232569D01*
X1030000Y201612D02*
X1030000Y232569D01*
X1035000Y201612D02*
X1035000Y232569D01*
X1040000Y182562D02*
X1040000Y232569D01*
X1045000Y182562D02*
X1045000Y232569D01*
X1050000Y182562D02*
X1050000Y232569D01*
X1055000Y182562D02*
X1055000Y232569D01*
X1060000Y182562D02*
X1060000Y232569D01*
X1065000Y182562D02*
X1065000Y232569D01*
X1070000Y182562D02*
X1070000Y232569D01*
X1075000Y182562D02*
X1075000Y232569D01*
X1080000Y182562D02*
X1080000Y232569D01*
X1085000Y182562D02*
X1085000Y232569D01*
X1090000Y182562D02*
X1090000Y232569D01*
X1095000Y182562D02*
X1095000Y214312D01*
X1100000Y182562D02*
X1100000Y214312D01*
X1105000Y182562D02*
X1105000Y214312D01*
X1110000Y182562D02*
X1110000Y214312D01*
X1115000Y182562D02*
X1115000Y214312D01*
X1120000Y182562D02*
X1120000Y214312D01*
X1125000Y182562D02*
X1125000Y232569D01*
X1130000Y182562D02*
X1130000Y232569D01*
X1135000Y186468D02*
X1135000Y232569D01*
X1140000Y191468D02*
X1140000Y232569D01*
X1145000Y196469D02*
X1145000Y232569D01*
X1150000Y201469D02*
X1150000Y232569D01*
X959644Y185000D02*
X1012031Y185000D01*
X1039812Y185000D02*
X1133532Y185000D01*
X959644Y190000D02*
X1012031Y190000D01*
X1039812Y190000D02*
X1138532Y190000D01*
X959644Y195000D02*
X1012031Y195000D01*
X1039812Y195000D02*
X1143531Y195000D01*
X959644Y200000D02*
X1012031Y200000D01*
X1039812Y200000D02*
X1148531Y200000D01*
X959644Y205000D02*
X1153531Y205000D01*
X959644Y210000D02*
X1154112Y210000D01*
X959644Y215000D02*
X1092994Y215000D01*
X1121569Y215000D02*
X1154112Y215000D01*
X959644Y220000D02*
X1092994Y220000D01*
X1121569Y220000D02*
X1154112Y220000D01*
X959644Y225000D02*
X1092994Y225000D01*
X1121569Y225000D02*
X1154112Y225000D01*
X959644Y230000D02*
X1092994Y230000D01*
X1121569Y230000D02*
X1154112Y230000D01*
G54D15*
X1092994Y232569D02*
X1092994Y214312D01*
X1121569Y214312D01*
X1121569Y232569D01*
X1154112Y232569D01*
X1154112Y205581D01*
X1131094Y182562D01*
X1039812Y182562D01*
X1039812Y201612D01*
X1012031Y201612D01*
X1012031Y182562D01*
X959644Y182562D01*
X959644Y232569D01*
X1092994Y232569D01*
G54D14*
X960000Y163950D02*
X960000Y182562D01*
X965000Y161131D02*
X965000Y182562D01*
X970000Y161131D02*
X970000Y182562D01*
X975000Y161131D02*
X975000Y182562D01*
X980000Y161131D02*
X980000Y182562D01*
X985000Y161131D02*
X985000Y182562D01*
X990000Y161131D02*
X990000Y182562D01*
X995000Y161131D02*
X995000Y182562D01*
X1000000Y161131D02*
X1000000Y182562D01*
X1005000Y161131D02*
X1005000Y182562D01*
X1010000Y161131D02*
X1010000Y182562D01*
X1015000Y161131D02*
X1015000Y173831D01*
X1020000Y161131D02*
X1020000Y173831D01*
X1025000Y161131D02*
X1025000Y173831D01*
X1030000Y161131D02*
X1030000Y173831D01*
X1035000Y161131D02*
X1035000Y173831D01*
X1040000Y161131D02*
X1040000Y182562D01*
X1045000Y161131D02*
X1045000Y182562D01*
X1050000Y161131D02*
X1050000Y182562D01*
X1055000Y161131D02*
X1055000Y182562D01*
X1060000Y161131D02*
X1060000Y182562D01*
X1065000Y161131D02*
X1065000Y182562D01*
X1070000Y161131D02*
X1070000Y182562D01*
X1075000Y161131D02*
X1075000Y182562D01*
X1080000Y161131D02*
X1080000Y182562D01*
X1085000Y161131D02*
X1085000Y182562D01*
X1090000Y161131D02*
X1090000Y182562D01*
X1095000Y161131D02*
X1095000Y182562D01*
X1100000Y161131D02*
X1100000Y182562D01*
X1105000Y161131D02*
X1105000Y182562D01*
X1110000Y161469D02*
X1110000Y182562D01*
X1115000Y166469D02*
X1115000Y182562D01*
X1120000Y171469D02*
X1120000Y182562D01*
X1125000Y176468D02*
X1125000Y182562D01*
X1130000Y181468D02*
X1130000Y182562D01*
X959644Y165000D02*
X1113531Y165000D01*
X959644Y170000D02*
X1118531Y170000D01*
X959644Y175000D02*
X1012031Y175000D01*
X1039812Y175000D02*
X1123532Y175000D01*
X959644Y180000D02*
X1012031Y180000D01*
X1039812Y180000D02*
X1128532Y180000D01*
G54D15*
X1012031Y182562D02*
X1012031Y173831D01*
X1039812Y173831D01*
X1039812Y182562D01*
X1131094Y182562D01*
X1109662Y161131D01*
X962819Y161131D01*
X959644Y164306D01*
X959644Y182562D01*
X1012031Y182562D01*
G54D15*
X558800Y538162D02*
X558800Y442912D01*
X569912Y431800D01*
M02*
