%FSLAX34Y34*%
%MOMM*%
%LNSILK_BOTTOM*%
G71*
G01*
%ADD10C,0.254*%
%ADD11C,0.150*%
%ADD12C,0.333*%
%ADD13C,0.167*%
%LPD*%
G54D10*
X1051141Y133510D02*
X1045807Y147732D01*
X1040474Y133510D01*
G54D10*
X1049008Y138844D02*
X1042607Y138844D01*
G54D10*
X1035496Y133510D02*
X1035496Y147732D01*
X1030162Y147732D01*
X1028029Y146844D01*
X1026962Y145066D01*
X1026962Y143288D01*
X1028029Y141510D01*
X1030162Y140621D01*
X1035496Y140621D01*
G54D10*
X1021985Y133510D02*
X1021985Y147732D01*
X1016651Y147732D01*
X1014518Y146844D01*
X1013451Y145066D01*
X1013451Y143288D01*
X1014518Y141510D01*
X1016651Y140621D01*
X1021985Y140621D01*
G54D10*
X1008474Y147732D02*
X1008474Y133510D01*
X1001007Y133510D01*
G54D10*
X988562Y133510D02*
X996029Y133510D01*
X996029Y147732D01*
X988562Y147732D01*
G54D10*
X996029Y140621D02*
X988562Y140621D01*
G54D10*
X959477Y136177D02*
X960544Y134399D01*
X962677Y133510D01*
X964811Y133510D01*
X966944Y134399D01*
X968011Y136177D01*
X968011Y145066D01*
X966944Y146844D01*
X964811Y147732D01*
X962677Y147732D01*
X960544Y146844D01*
X959477Y145066D01*
G54D10*
X945966Y145066D02*
X945966Y136177D01*
X947033Y134399D01*
X949166Y133510D01*
X951300Y133510D01*
X953433Y134399D01*
X954500Y136177D01*
X954500Y145066D01*
X953433Y146844D01*
X951300Y147732D01*
X949166Y147732D01*
X947033Y146844D01*
X945966Y145066D01*
G54D10*
X940989Y133510D02*
X940989Y147732D01*
X935655Y138844D01*
X930322Y147732D01*
X930322Y133510D01*
G54D10*
X925344Y133510D02*
X925344Y147732D01*
X920010Y147732D01*
X917877Y146844D01*
X916810Y145066D01*
X916810Y143288D01*
X917877Y141510D01*
X920010Y140621D01*
X925344Y140621D01*
G54D10*
X911833Y147732D02*
X911833Y136177D01*
X910766Y134399D01*
X908633Y133510D01*
X906499Y133510D01*
X904366Y134399D01*
X903299Y136177D01*
X903299Y147732D01*
G54D10*
X894055Y133510D02*
X894055Y147732D01*
G54D10*
X898322Y147732D02*
X889788Y147732D01*
G54D10*
X877344Y133510D02*
X884811Y133510D01*
X884811Y147732D01*
X877344Y147732D01*
G54D10*
X884811Y140621D02*
X877344Y140621D01*
G54D10*
X868099Y140621D02*
X864899Y138844D01*
X863832Y137066D01*
X863832Y133510D01*
G54D10*
X872366Y133510D02*
X872366Y147732D01*
X867032Y147732D01*
X864899Y146844D01*
X863832Y145066D01*
X863832Y143288D01*
X864899Y141510D01*
X867032Y140621D01*
X872366Y140621D01*
G54D10*
X843282Y133510D02*
X843282Y147732D01*
G54D10*
X838304Y133510D02*
X838304Y147732D01*
X829770Y133510D01*
X829770Y147732D01*
G54D10*
X816259Y136177D02*
X817326Y134399D01*
X819459Y133510D01*
X821593Y133510D01*
X823726Y134399D01*
X824793Y136177D01*
X824793Y145066D01*
X823726Y146844D01*
X821593Y147732D01*
X819459Y147732D01*
X817326Y146844D01*
X816259Y145066D01*
G54D10*
X811282Y133510D02*
X811282Y133510D01*
G54D10*
X698552Y140461D02*
X700685Y140461D01*
X702818Y141350D01*
X703885Y143128D01*
X703885Y144906D01*
X702818Y146683D01*
X700685Y147572D01*
X698552Y147572D01*
X696418Y146683D01*
X695352Y144906D01*
X695352Y143128D01*
X696418Y141350D01*
X698552Y140461D01*
X696418Y139572D01*
X695352Y137794D01*
X695352Y136017D01*
X696418Y134239D01*
X698552Y133350D01*
X700685Y133350D01*
X702818Y134239D01*
X703885Y136017D01*
X703885Y137794D01*
X702818Y139572D01*
X700685Y140461D01*
G54D10*
X681841Y133350D02*
X690374Y133350D01*
X690374Y134239D01*
X689307Y136017D01*
X682907Y141350D01*
X681841Y143128D01*
X681841Y144906D01*
X682907Y146683D01*
X685041Y147572D01*
X687174Y147572D01*
X689307Y146683D01*
X690374Y144906D01*
G54D10*
X668330Y144906D02*
X668330Y136017D01*
X669396Y134239D01*
X671530Y133350D01*
X673663Y133350D01*
X675796Y134239D01*
X676863Y136017D01*
X676863Y144906D01*
X675796Y146683D01*
X673663Y147572D01*
X671530Y147572D01*
X669396Y146683D01*
X668330Y144906D01*
G54D10*
X663352Y139572D02*
X654819Y139572D01*
G54D10*
X641308Y144906D02*
X641308Y136017D01*
X642374Y134239D01*
X644508Y133350D01*
X646641Y133350D01*
X648774Y134239D01*
X649841Y136017D01*
X649841Y144906D01*
X648774Y146683D01*
X646641Y147572D01*
X644508Y147572D01*
X642374Y146683D01*
X641308Y144906D01*
G54D10*
X629930Y133350D02*
X629930Y147572D01*
X636330Y138683D01*
X636330Y136906D01*
X627797Y136906D01*
G54D10*
X614286Y144906D02*
X614286Y136017D01*
X615352Y134239D01*
X617486Y133350D01*
X619619Y133350D01*
X621752Y134239D01*
X622819Y136017D01*
X622819Y144906D01*
X621752Y146683D01*
X619619Y147572D01*
X617486Y147572D01*
X615352Y146683D01*
X614286Y144906D01*
G54D10*
X600775Y147572D02*
X609308Y147572D01*
X609308Y141350D01*
X608241Y141350D01*
X606108Y142239D01*
X603975Y142239D01*
X601841Y141350D01*
X600775Y139572D01*
X600775Y136017D01*
X601841Y134239D01*
X603975Y133350D01*
X606108Y133350D01*
X608241Y134239D01*
X609308Y136017D01*
G54D10*
X595797Y139572D02*
X587264Y139572D01*
G54D10*
X573753Y144906D02*
X573753Y136017D01*
X574819Y134239D01*
X576953Y133350D01*
X579086Y133350D01*
X581219Y134239D01*
X582286Y136017D01*
X582286Y144906D01*
X581219Y146683D01*
X579086Y147572D01*
X576953Y147572D01*
X574819Y146683D01*
X573753Y144906D01*
G54D10*
X568775Y142239D02*
X563442Y147572D01*
X563442Y133350D01*
G54D10*
X517552Y136017D02*
X518618Y134239D01*
X520752Y133350D01*
X522885Y133350D01*
X525018Y134239D01*
X526085Y136017D01*
X526085Y144906D01*
X525018Y146683D01*
X522885Y147572D01*
X520752Y147572D01*
X518618Y146683D01*
X517552Y144906D01*
G54D11*
G75*
G01X537197Y140494D02*
G03X537197Y140494I-15081J0D01*
G01*
G54D10*
X495129Y142239D02*
X489795Y147572D01*
X489795Y133350D01*
G54D10*
X484818Y136017D02*
X483751Y134239D01*
X481618Y133350D01*
X479484Y133350D01*
X477351Y134239D01*
X476284Y136017D01*
X476284Y140461D01*
X476284Y141350D01*
X479484Y139572D01*
X481618Y139572D01*
X483751Y140461D01*
X484818Y142239D01*
X484818Y144906D01*
X483751Y146683D01*
X481618Y147572D01*
X479484Y147572D01*
X477351Y146683D01*
X476284Y144906D01*
X476284Y140461D01*
G54D10*
X471307Y136017D02*
X470240Y134239D01*
X468107Y133350D01*
X465973Y133350D01*
X463840Y134239D01*
X462773Y136017D01*
X462773Y140461D01*
X462773Y141350D01*
X465973Y139572D01*
X468107Y139572D01*
X470240Y140461D01*
X471307Y142239D01*
X471307Y144906D01*
X470240Y146683D01*
X468107Y147572D01*
X465973Y147572D01*
X463840Y146683D01*
X462773Y144906D01*
X462773Y140461D01*
G54D10*
X449262Y144906D02*
X449262Y136017D01*
X450329Y134239D01*
X452462Y133350D01*
X454596Y133350D01*
X456729Y134239D01*
X457796Y136017D01*
X457796Y144906D01*
X456729Y146683D01*
X454596Y147572D01*
X452462Y147572D01*
X450329Y146683D01*
X449262Y144906D01*
G54D12*
X818948Y751631D02*
X818948Y778298D01*
X808948Y761631D01*
X798948Y778298D01*
X798948Y751631D01*
G54D12*
X791615Y764964D02*
X787615Y766631D01*
X782815Y766631D01*
X779615Y763298D01*
X779615Y751631D01*
G54D12*
X779615Y756631D02*
X781615Y759964D01*
X785615Y760631D01*
X789615Y759964D01*
X791615Y756631D01*
X790815Y753298D01*
X787615Y751631D01*
X785615Y751631D01*
X784815Y751631D01*
X781615Y753298D01*
X779615Y756631D01*
G54D12*
X762282Y765631D02*
X766282Y766631D01*
X770282Y765631D01*
X772282Y762298D01*
X772282Y755631D01*
X770282Y752298D01*
X766282Y751631D01*
X762282Y752298D01*
G54D12*
X754949Y751631D02*
X754949Y766631D01*
G54D12*
X754949Y771631D02*
X754949Y771631D01*
G54D12*
X747616Y751631D02*
X747616Y766631D01*
G54D12*
X747616Y763298D02*
X745616Y765631D01*
X741616Y766631D01*
X737616Y765631D01*
X735616Y763298D01*
X735616Y751631D01*
G54D12*
X724283Y778298D02*
X724283Y753298D01*
X722283Y751631D01*
X720283Y752298D01*
G54D12*
X728283Y766631D02*
X720283Y766631D01*
G54D12*
X700950Y755631D02*
X700950Y762298D01*
X702950Y765631D01*
X706950Y766631D01*
X710950Y765631D01*
X712950Y762298D01*
X712950Y755631D01*
X710950Y752298D01*
X706950Y751631D01*
X702950Y752298D01*
X700950Y755631D01*
G54D12*
X693617Y753298D02*
X689617Y751631D01*
X685617Y751631D01*
X681617Y753298D01*
X681617Y756631D01*
X683617Y758298D01*
X691617Y759964D01*
X693617Y761631D01*
X693617Y764964D01*
X689617Y766631D01*
X685617Y766631D01*
X681617Y764964D01*
G54D12*
X674284Y751631D02*
X674284Y778298D01*
G54D12*
X674284Y762298D02*
X672284Y765631D01*
X668284Y766631D01*
X664284Y765631D01*
X662284Y762298D01*
X662284Y751631D01*
G54D12*
X631218Y756631D02*
X633218Y753298D01*
X637218Y751631D01*
X641218Y751631D01*
X645218Y753298D01*
X647218Y756631D01*
X647218Y773298D01*
X645218Y776631D01*
X641218Y778298D01*
X637218Y778298D01*
X633218Y776631D01*
X631218Y773298D01*
G54D12*
X623885Y751631D02*
X623885Y778298D01*
G54D12*
X616552Y764964D02*
X612552Y766631D01*
X607752Y766631D01*
X604552Y763298D01*
X604552Y751631D01*
G54D12*
X604552Y756631D02*
X606552Y759964D01*
X610552Y760631D01*
X614552Y759964D01*
X616552Y756631D01*
X615752Y753298D01*
X612552Y751631D01*
X610552Y751631D01*
X609752Y751631D01*
X606552Y753298D01*
X604552Y756631D01*
G54D12*
X597219Y753298D02*
X593219Y751631D01*
X589219Y751631D01*
X585219Y753298D01*
X585219Y756631D01*
X587219Y758298D01*
X595219Y759964D01*
X597219Y761631D01*
X597219Y764964D01*
X593219Y766631D01*
X589219Y766631D01*
X585219Y764964D01*
G54D12*
X577886Y753298D02*
X573886Y751631D01*
X569886Y751631D01*
X565886Y753298D01*
X565886Y756631D01*
X567886Y758298D01*
X575886Y759964D01*
X577886Y761631D01*
X577886Y764964D01*
X573886Y766631D01*
X569886Y766631D01*
X565886Y764964D01*
G54D12*
X558553Y751631D02*
X558553Y766631D01*
G54D12*
X558553Y771631D02*
X558553Y771631D01*
G54D12*
X541220Y765631D02*
X545220Y766631D01*
X549220Y765631D01*
X551220Y762298D01*
X551220Y755631D01*
X549220Y752298D01*
X545220Y751631D01*
X541220Y752298D01*
G54D12*
X518154Y764964D02*
X512154Y761631D01*
X510154Y758298D01*
X510154Y751631D01*
G54D12*
X526154Y751631D02*
X526154Y778298D01*
X516154Y778298D01*
X512154Y776631D01*
X510154Y773298D01*
X510154Y769964D01*
X512154Y766631D01*
X516154Y764964D01*
X526154Y764964D01*
G54D12*
X490821Y753298D02*
X494021Y751631D01*
X498021Y751631D01*
X502021Y753298D01*
X502821Y756631D01*
X502821Y762298D01*
X500821Y765631D01*
X496821Y766631D01*
X492821Y765631D01*
X490821Y763298D01*
X490821Y759964D01*
X502821Y759964D01*
G54D12*
X483488Y751631D02*
X483488Y778298D01*
G54D12*
X464155Y755631D02*
X464155Y762298D01*
X466155Y765631D01*
X470155Y766631D01*
X474155Y765631D01*
X476155Y762298D01*
X476155Y755631D01*
X474155Y752298D01*
X470155Y751631D01*
X466155Y752298D01*
X464155Y755631D01*
G54D12*
X456822Y764964D02*
X452822Y766631D01*
X448022Y766631D01*
X444822Y763298D01*
X444822Y751631D01*
G54D12*
X444822Y756631D02*
X446822Y759964D01*
X450822Y760631D01*
X454822Y759964D01*
X456822Y756631D01*
X456022Y753298D01*
X452822Y751631D01*
X450822Y751631D01*
X450022Y751631D01*
X446822Y753298D01*
X444822Y756631D01*
G54D12*
X425489Y751631D02*
X425489Y778298D01*
G54D12*
X425489Y762298D02*
X427489Y765631D01*
X431489Y766631D01*
X435489Y765631D01*
X437489Y762298D01*
X437489Y755631D01*
X435489Y752298D01*
X431489Y751631D01*
X427489Y752298D01*
X425489Y755631D01*
G54D12*
X406156Y753298D02*
X409356Y751631D01*
X413356Y751631D01*
X417356Y753298D01*
X418156Y756631D01*
X418156Y762298D01*
X416156Y765631D01*
X412156Y766631D01*
X408156Y765631D01*
X406156Y763298D01*
X406156Y759964D01*
X418156Y759964D01*
G54D12*
X386823Y751631D02*
X386823Y778298D01*
G54D12*
X386823Y762298D02*
X388823Y765631D01*
X392823Y766631D01*
X396823Y765631D01*
X398823Y762298D01*
X398823Y755631D01*
X396823Y752298D01*
X392823Y751631D01*
X388823Y752298D01*
X386823Y755631D01*
G54D12*
X771462Y724533D02*
X765462Y721200D01*
X763462Y717867D01*
X763462Y711200D01*
G54D12*
X779462Y711200D02*
X779462Y737867D01*
X769462Y737867D01*
X765462Y736200D01*
X763462Y732867D01*
X763462Y729533D01*
X765462Y726200D01*
X769462Y724533D01*
X779462Y724533D01*
G54D12*
X756130Y711200D02*
X746130Y737867D01*
X736130Y711200D01*
G54D12*
X752130Y721200D02*
X740130Y721200D01*
G54D12*
X728796Y711200D02*
X728796Y737867D01*
X718796Y721200D01*
X708796Y737867D01*
X708796Y711200D01*
G54D12*
X679730Y711200D02*
X693730Y711200D01*
X693730Y737867D01*
X679730Y737867D01*
G54D12*
X693730Y724533D02*
X679730Y724533D01*
G54D12*
X672398Y726200D02*
X656398Y711200D01*
G54D12*
X672398Y711200D02*
X656398Y726200D01*
G54D12*
X649064Y726200D02*
X649064Y704533D01*
G54D12*
X649064Y716200D02*
X647064Y711867D01*
X643064Y711200D01*
X639064Y711867D01*
X637064Y715200D01*
X637064Y721867D01*
X639064Y725200D01*
X643064Y726200D01*
X647064Y725200D01*
X649064Y721200D01*
G54D12*
X629732Y724533D02*
X625732Y726200D01*
X620932Y726200D01*
X617732Y722867D01*
X617732Y711200D01*
G54D12*
X617732Y716200D02*
X619732Y719533D01*
X623732Y720200D01*
X627732Y719533D01*
X629732Y716200D01*
X628932Y712867D01*
X625732Y711200D01*
X623732Y711200D01*
X622932Y711200D01*
X619732Y712867D01*
X617732Y716200D01*
G54D12*
X610398Y711200D02*
X610398Y726200D01*
G54D12*
X610398Y722867D02*
X608398Y725200D01*
X604398Y726200D01*
X600398Y725200D01*
X598398Y722867D01*
X598398Y711200D01*
G54D12*
X591066Y712867D02*
X587066Y711200D01*
X583066Y711200D01*
X579066Y712867D01*
X579066Y716200D01*
X581066Y717867D01*
X589066Y719533D01*
X591066Y721200D01*
X591066Y724533D01*
X587066Y726200D01*
X583066Y726200D01*
X579066Y724533D01*
G54D12*
X571732Y711200D02*
X571732Y726200D01*
G54D12*
X571732Y731200D02*
X571732Y731200D01*
G54D12*
X552400Y715200D02*
X552400Y721867D01*
X554400Y725200D01*
X558400Y726200D01*
X562400Y725200D01*
X564400Y721867D01*
X564400Y715200D01*
X562400Y711867D01*
X558400Y711200D01*
X554400Y711867D01*
X552400Y715200D01*
G54D12*
X545066Y711200D02*
X545066Y726200D01*
G54D12*
X545066Y722867D02*
X543066Y725200D01*
X539066Y726200D01*
X535066Y725200D01*
X533066Y722867D01*
X533066Y711200D01*
G54D12*
X518000Y711200D02*
X518000Y737867D01*
X508000Y737867D01*
X504000Y736200D01*
X502000Y732867D01*
X502000Y729533D01*
X504000Y726200D01*
X508000Y724533D01*
X504000Y722867D01*
X502000Y719533D01*
X502000Y716200D01*
X504000Y712867D01*
X508000Y711200D01*
X518000Y711200D01*
G54D12*
X518000Y724533D02*
X508000Y724533D01*
G54D12*
X482668Y715200D02*
X482668Y721867D01*
X484668Y725200D01*
X488668Y726200D01*
X492668Y725200D01*
X494668Y721867D01*
X494668Y715200D01*
X492668Y711867D01*
X488668Y711200D01*
X484668Y711867D01*
X482668Y715200D01*
G54D12*
X475334Y724533D02*
X471334Y726200D01*
X466534Y726200D01*
X463334Y722867D01*
X463334Y711200D01*
G54D12*
X463334Y716200D02*
X465334Y719533D01*
X469334Y720200D01*
X473334Y719533D01*
X475334Y716200D01*
X474534Y712867D01*
X471334Y711200D01*
X469334Y711200D01*
X468534Y711200D01*
X465334Y712867D01*
X463334Y716200D01*
G54D12*
X456002Y711200D02*
X456002Y726200D01*
G54D12*
X456002Y722867D02*
X452002Y726200D01*
X448002Y726200D01*
G54D12*
X428668Y711200D02*
X428668Y737867D01*
G54D12*
X428668Y721867D02*
X430668Y725200D01*
X434668Y726200D01*
X438668Y725200D01*
X440668Y721867D01*
X440668Y715200D01*
X438668Y711867D01*
X434668Y711200D01*
X430668Y711867D01*
X428668Y715200D01*
G54D13*
X673100Y681831D02*
X673100Y695165D01*
X668100Y695165D01*
X666100Y694331D01*
X665100Y692665D01*
X665100Y690998D01*
X666100Y689331D01*
X668100Y688498D01*
X666100Y687665D01*
X665100Y685998D01*
X665100Y684331D01*
X666100Y682665D01*
X668100Y681831D01*
X673100Y681831D01*
G54D13*
X673100Y688498D02*
X668100Y688498D01*
G54D13*
X655433Y683831D02*
X655433Y687165D01*
X656433Y688831D01*
X658433Y689331D01*
X660433Y688831D01*
X661433Y687165D01*
X661433Y683831D01*
X660433Y682165D01*
X658433Y681831D01*
X656433Y682165D01*
X655433Y683831D01*
G54D13*
X651766Y688498D02*
X649766Y689331D01*
X647366Y689331D01*
X645766Y687665D01*
X645766Y681831D01*
G54D13*
X645766Y684331D02*
X646766Y685998D01*
X648766Y686331D01*
X650766Y685998D01*
X651766Y684331D01*
X651366Y682665D01*
X649766Y681831D01*
X648766Y681831D01*
X648366Y681831D01*
X646766Y682665D01*
X645766Y684331D01*
G54D13*
X642099Y681831D02*
X642099Y689331D01*
G54D13*
X642099Y687665D02*
X640099Y689331D01*
X638099Y689331D01*
G54D13*
X628432Y681831D02*
X628432Y695165D01*
G54D13*
X628432Y687165D02*
X629432Y688831D01*
X631432Y689331D01*
X633432Y688831D01*
X634432Y687165D01*
X634432Y683831D01*
X633432Y682165D01*
X631432Y681831D01*
X629432Y682165D01*
X628432Y683831D01*
G54D13*
X616898Y688498D02*
X613898Y686831D01*
X612898Y685165D01*
X612898Y681831D01*
G54D13*
X620898Y681831D02*
X620898Y695165D01*
X615898Y695165D01*
X613898Y694331D01*
X612898Y692665D01*
X612898Y690998D01*
X613898Y689331D01*
X615898Y688498D01*
X620898Y688498D01*
G54D13*
X603231Y682665D02*
X604831Y681831D01*
X606831Y681831D01*
X608831Y682665D01*
X609231Y684331D01*
X609231Y687165D01*
X608231Y688831D01*
X606231Y689331D01*
X604231Y688831D01*
X603231Y687665D01*
X603231Y685998D01*
X609231Y685998D01*
G54D13*
X599564Y689331D02*
X595564Y681831D01*
X591564Y689331D01*
G54D13*
X587897Y681831D02*
X587897Y689331D01*
G54D13*
X587897Y691831D02*
X587897Y691831D01*
G54D13*
X584230Y682665D02*
X582230Y681831D01*
X580230Y681831D01*
X578230Y682665D01*
X578230Y684331D01*
X579230Y685165D01*
X583230Y685998D01*
X584230Y686831D01*
X584230Y688498D01*
X582230Y689331D01*
X580230Y689331D01*
X578230Y688498D01*
G54D13*
X574563Y681831D02*
X574563Y689331D01*
G54D13*
X574563Y691831D02*
X574563Y691831D01*
G54D13*
X564896Y683831D02*
X564896Y687165D01*
X565896Y688831D01*
X567896Y689331D01*
X569896Y688831D01*
X570896Y687165D01*
X570896Y683831D01*
X569896Y682165D01*
X567896Y681831D01*
X565896Y682165D01*
X564896Y683831D01*
G54D13*
X561229Y681831D02*
X561229Y689331D01*
G54D13*
X561229Y687665D02*
X560229Y688831D01*
X558229Y689331D01*
X556229Y688831D01*
X555229Y687665D01*
X555229Y681831D01*
G54D13*
X547695Y689331D02*
X543695Y681831D01*
X539695Y689331D01*
G54D13*
X536028Y690165D02*
X531028Y695165D01*
X531028Y681831D01*
G54D13*
X527361Y681831D02*
X527361Y681831D01*
G54D13*
X515694Y692665D02*
X515694Y684331D01*
X516694Y682665D01*
X518694Y681831D01*
X520694Y681831D01*
X522694Y682665D01*
X523694Y684331D01*
X523694Y692665D01*
X522694Y694331D01*
X520694Y695165D01*
X518694Y695165D01*
X516694Y694331D01*
X515694Y692665D01*
M02*
