%FSLAX34Y34*%
%MOMM*%
%LNSMDMASK_TOP*%
G71*
G01*
%ADD10R,2.000X0.600*%
%ADD11R,1.600X1.600*%
%ADD12R,1.600X2.000*%
%ADD13R,1.980X3.020*%
%LPD*%
X250594Y221456D02*
G54D10*
D03*
X250594Y234156D02*
G54D10*
D03*
X250594Y246856D02*
G54D10*
D03*
X250594Y259556D02*
G54D10*
D03*
X250594Y272256D02*
G54D10*
D03*
X250594Y323056D02*
G54D10*
D03*
X250594Y335756D02*
G54D10*
D03*
X250594Y348456D02*
G54D10*
D03*
X250594Y361156D02*
G54D10*
D03*
X250594Y373856D02*
G54D10*
D03*
X178594Y373856D02*
G54D10*
D03*
X178594Y361156D02*
G54D10*
D03*
X178594Y348456D02*
G54D10*
D03*
X178594Y335756D02*
G54D10*
D03*
X178594Y323056D02*
G54D10*
D03*
X178594Y272256D02*
G54D10*
D03*
X178594Y259556D02*
G54D10*
D03*
X178594Y246856D02*
G54D10*
D03*
X178594Y234156D02*
G54D10*
D03*
X178594Y221456D02*
G54D10*
D03*
X364894Y221456D02*
G54D10*
D03*
X364894Y234156D02*
G54D10*
D03*
X364894Y246856D02*
G54D10*
D03*
X364894Y259556D02*
G54D10*
D03*
X364894Y272256D02*
G54D10*
D03*
X364894Y323056D02*
G54D10*
D03*
X364894Y335756D02*
G54D10*
D03*
X364894Y348456D02*
G54D10*
D03*
X364894Y361156D02*
G54D10*
D03*
X364894Y373856D02*
G54D10*
D03*
X292894Y373856D02*
G54D10*
D03*
X292894Y361156D02*
G54D10*
D03*
X292894Y348456D02*
G54D10*
D03*
X292894Y335756D02*
G54D10*
D03*
X292894Y323056D02*
G54D10*
D03*
X292894Y272256D02*
G54D10*
D03*
X292894Y259556D02*
G54D10*
D03*
X292894Y246856D02*
G54D10*
D03*
X292894Y234156D02*
G54D10*
D03*
X292894Y221456D02*
G54D10*
D03*
X479194Y221456D02*
G54D10*
D03*
X479194Y234156D02*
G54D10*
D03*
X479194Y246856D02*
G54D10*
D03*
X479194Y259556D02*
G54D10*
D03*
X479194Y272256D02*
G54D10*
D03*
X479194Y323056D02*
G54D10*
D03*
X479194Y335756D02*
G54D10*
D03*
X479194Y348456D02*
G54D10*
D03*
X479194Y361156D02*
G54D10*
D03*
X479194Y373856D02*
G54D10*
D03*
X407194Y373856D02*
G54D10*
D03*
X407194Y361156D02*
G54D10*
D03*
X407194Y348456D02*
G54D10*
D03*
X407194Y335756D02*
G54D10*
D03*
X407194Y323056D02*
G54D10*
D03*
X407194Y272256D02*
G54D10*
D03*
X407194Y259556D02*
G54D10*
D03*
X407194Y246856D02*
G54D10*
D03*
X407194Y234156D02*
G54D10*
D03*
X407194Y221456D02*
G54D10*
D03*
X593494Y221456D02*
G54D10*
D03*
X593494Y234156D02*
G54D10*
D03*
X593494Y246856D02*
G54D10*
D03*
X593494Y259556D02*
G54D10*
D03*
X593494Y272256D02*
G54D10*
D03*
X593494Y323056D02*
G54D10*
D03*
X593494Y335756D02*
G54D10*
D03*
X593494Y348456D02*
G54D10*
D03*
X593494Y361156D02*
G54D10*
D03*
X593494Y373856D02*
G54D10*
D03*
X521494Y373856D02*
G54D10*
D03*
X521494Y361156D02*
G54D10*
D03*
X521494Y348456D02*
G54D10*
D03*
X521494Y335756D02*
G54D10*
D03*
X521494Y323056D02*
G54D10*
D03*
X521494Y272256D02*
G54D10*
D03*
X521494Y259556D02*
G54D10*
D03*
X521494Y246856D02*
G54D10*
D03*
X521494Y234156D02*
G54D10*
D03*
X521494Y221456D02*
G54D10*
D03*
X707794Y221456D02*
G54D10*
D03*
X707794Y234156D02*
G54D10*
D03*
X707794Y246856D02*
G54D10*
D03*
X707794Y259556D02*
G54D10*
D03*
X707794Y272256D02*
G54D10*
D03*
X707794Y323056D02*
G54D10*
D03*
X707794Y335756D02*
G54D10*
D03*
X707794Y348456D02*
G54D10*
D03*
X707794Y361156D02*
G54D10*
D03*
X707794Y373856D02*
G54D10*
D03*
X635794Y373856D02*
G54D10*
D03*
X635794Y361156D02*
G54D10*
D03*
X635794Y348456D02*
G54D10*
D03*
X635794Y335756D02*
G54D10*
D03*
X635794Y323056D02*
G54D10*
D03*
X635794Y272256D02*
G54D10*
D03*
X635794Y259556D02*
G54D10*
D03*
X635794Y246856D02*
G54D10*
D03*
X635794Y234156D02*
G54D10*
D03*
X635794Y221456D02*
G54D10*
D03*
X822094Y221456D02*
G54D10*
D03*
X822094Y234156D02*
G54D10*
D03*
X822094Y246856D02*
G54D10*
D03*
X822094Y259556D02*
G54D10*
D03*
X822094Y272256D02*
G54D10*
D03*
X822094Y323056D02*
G54D10*
D03*
X822094Y335756D02*
G54D10*
D03*
X822094Y348456D02*
G54D10*
D03*
X822094Y361156D02*
G54D10*
D03*
X822094Y373856D02*
G54D10*
D03*
X750094Y373856D02*
G54D10*
D03*
X750094Y361156D02*
G54D10*
D03*
X750094Y348456D02*
G54D10*
D03*
X750094Y335756D02*
G54D10*
D03*
X750094Y323056D02*
G54D10*
D03*
X750094Y272256D02*
G54D10*
D03*
X750094Y259556D02*
G54D10*
D03*
X750094Y246856D02*
G54D10*
D03*
X750094Y234156D02*
G54D10*
D03*
X750094Y221456D02*
G54D10*
D03*
X936394Y221456D02*
G54D10*
D03*
X936394Y234156D02*
G54D10*
D03*
X936394Y246856D02*
G54D10*
D03*
X936394Y259556D02*
G54D10*
D03*
X936394Y272256D02*
G54D10*
D03*
X936394Y323056D02*
G54D10*
D03*
X936394Y335756D02*
G54D10*
D03*
X936394Y348456D02*
G54D10*
D03*
X936394Y361156D02*
G54D10*
D03*
X936394Y373856D02*
G54D10*
D03*
X864394Y373856D02*
G54D10*
D03*
X864394Y361156D02*
G54D10*
D03*
X864394Y348456D02*
G54D10*
D03*
X864394Y335756D02*
G54D10*
D03*
X864394Y323056D02*
G54D10*
D03*
X864394Y272256D02*
G54D10*
D03*
X864394Y259556D02*
G54D10*
D03*
X864394Y246856D02*
G54D10*
D03*
X864394Y234156D02*
G54D10*
D03*
X864394Y221456D02*
G54D10*
D03*
X1050694Y221456D02*
G54D10*
D03*
X1050694Y234156D02*
G54D10*
D03*
X1050694Y246856D02*
G54D10*
D03*
X1050694Y259556D02*
G54D10*
D03*
X1050694Y272256D02*
G54D10*
D03*
X1050694Y323056D02*
G54D10*
D03*
X1050694Y335756D02*
G54D10*
D03*
X1050694Y348456D02*
G54D10*
D03*
X1050694Y361156D02*
G54D10*
D03*
X1050694Y373856D02*
G54D10*
D03*
X978694Y373856D02*
G54D10*
D03*
X978694Y361156D02*
G54D10*
D03*
X978694Y348456D02*
G54D10*
D03*
X978694Y335756D02*
G54D10*
D03*
X978694Y323056D02*
G54D10*
D03*
X978694Y272256D02*
G54D10*
D03*
X978694Y259556D02*
G54D10*
D03*
X978694Y246856D02*
G54D10*
D03*
X978694Y234156D02*
G54D10*
D03*
X978694Y221456D02*
G54D10*
D03*
X276225Y717550D02*
G54D11*
D03*
X304225Y717550D02*
G54D11*
D03*
X492125Y716756D02*
G54D11*
D03*
X520125Y716756D02*
G54D11*
D03*
X568325Y716756D02*
G54D11*
D03*
X596325Y716756D02*
G54D11*
D03*
X644525Y716756D02*
G54D11*
D03*
X672525Y716756D02*
G54D11*
D03*
X736600Y704056D02*
G54D11*
D03*
X764600Y704056D02*
G54D11*
D03*
X815975Y704056D02*
G54D11*
D03*
X843975Y704056D02*
G54D11*
D03*
X898525Y704056D02*
G54D11*
D03*
X926525Y704056D02*
G54D11*
D03*
X213519Y410369D02*
G54D11*
D03*
X241519Y410369D02*
G54D11*
D03*
X302419Y410369D02*
G54D11*
D03*
X330419Y410369D02*
G54D11*
D03*
X391319Y410369D02*
G54D11*
D03*
X419319Y410369D02*
G54D11*
D03*
X567531Y410369D02*
G54D11*
D03*
X595531Y410369D02*
G54D11*
D03*
X656431Y410369D02*
G54D11*
D03*
X684431Y410369D02*
G54D11*
D03*
X745331Y410369D02*
G54D11*
D03*
X773331Y410369D02*
G54D11*
D03*
X834231Y410369D02*
G54D11*
D03*
X862231Y410369D02*
G54D11*
D03*
X923131Y410369D02*
G54D11*
D03*
X951131Y410369D02*
G54D11*
D03*
X1010444Y410369D02*
G54D11*
D03*
X1038444Y410369D02*
G54D11*
D03*
X478631Y410369D02*
G54D11*
D03*
X506631Y410369D02*
G54D11*
D03*
X180975Y182562D02*
G54D12*
D03*
X208975Y182562D02*
G54D12*
D03*
X295275Y182562D02*
G54D12*
D03*
X323275Y182562D02*
G54D12*
D03*
X409575Y182562D02*
G54D12*
D03*
X437575Y182562D02*
G54D12*
D03*
X523875Y182562D02*
G54D12*
D03*
X551875Y182562D02*
G54D12*
D03*
X638175Y182562D02*
G54D12*
D03*
X666175Y182562D02*
G54D12*
D03*
X752475Y182562D02*
G54D12*
D03*
X780475Y182562D02*
G54D12*
D03*
X866775Y182562D02*
G54D12*
D03*
X894775Y182562D02*
G54D12*
D03*
X981075Y182562D02*
G54D12*
D03*
X1009075Y182562D02*
G54D12*
D03*
X371475Y723900D02*
G54D13*
D03*
X441575Y723900D02*
G54D13*
D03*
M02*
