%FSLAX34Y34*%
%MOMM*%
%LNCOPPER_INNER1*%
G71*
G01*
%ADD10C,2.400*%
%ADD11C,1.600*%
%ADD12C,2.300*%
%ADD13C,0.533*%
%ADD14C,0.267*%
%ADD15C,0.500*%
%ADD16C,1.600*%
%ADD17C,0.800*%
%ADD18C,1.500*%
%LPD*%
G36*
X0Y800000D02*
X1220000Y800000D01*
X1220000Y100000D01*
X0Y100000D01*
X0Y800000D01*
G37*
%LPC*%
G36*
X1094488Y295369D02*
X1118488Y295369D01*
X1118488Y271369D01*
X1094488Y271369D01*
X1094488Y295369D01*
G37*
X1106488Y257969D02*
G54D10*
D03*
X1106488Y232569D02*
G54D10*
D03*
X366712Y696913D02*
G54D11*
D03*
X442912Y696913D02*
G54D11*
D03*
X546100Y722312D02*
G54D11*
D03*
X523875Y690562D02*
G54D11*
D03*
X600075Y696912D02*
G54D11*
D03*
X676275Y696912D02*
G54D11*
D03*
X620712Y715962D02*
G54D11*
D03*
X234950Y706438D02*
G54D11*
D03*
X331787Y685800D02*
G54D11*
D03*
X331788Y665956D02*
G54D11*
D03*
X417512Y676275D02*
G54D11*
D03*
X706438Y706438D02*
G54D11*
D03*
X762000Y681038D02*
G54D11*
D03*
X793750Y706438D02*
G54D11*
D03*
X849312Y681038D02*
G54D11*
D03*
X874712Y706438D02*
G54D11*
D03*
X930275Y681038D02*
G54D11*
D03*
X244475Y604838D02*
G54D11*
D03*
X315912Y588962D02*
G54D11*
D03*
X300831Y559594D02*
G54D11*
D03*
X300831Y533400D02*
G54D11*
D03*
X382588Y544512D02*
G54D11*
D03*
X382588Y523875D02*
G54D11*
D03*
X477838Y533400D02*
G54D11*
D03*
X558800Y538162D02*
G54D11*
D03*
X636588Y544512D02*
G54D11*
D03*
X974725Y411162D02*
G54D11*
D03*
X898525Y411162D02*
G54D11*
D03*
X812800Y411162D02*
G54D11*
D03*
X863600Y431800D02*
G54D11*
D03*
X954088Y390525D02*
G54D11*
D03*
X773112Y431800D02*
G54D11*
D03*
X741362Y431800D02*
G54D11*
D03*
X685800Y431800D02*
G54D11*
D03*
X655638Y431800D02*
G54D11*
D03*
X595312Y431800D02*
G54D11*
D03*
X569912Y431800D02*
G54D11*
D03*
X519112Y431800D02*
G54D11*
D03*
X477838Y431800D02*
G54D11*
D03*
X417512Y431800D02*
G54D11*
D03*
X387350Y431800D02*
G54D11*
D03*
X341312Y431800D02*
G54D11*
D03*
X300831Y431800D02*
G54D11*
D03*
X244475Y431800D02*
G54D11*
D03*
X188912Y411162D02*
G54D11*
D03*
X223838Y376237D02*
G54D11*
D03*
X341312Y376237D02*
G54D11*
D03*
X452438Y376237D02*
G54D11*
D03*
X544512Y379412D02*
G54D11*
D03*
X569912Y376237D02*
G54D11*
D03*
X681038Y376237D02*
G54D11*
D03*
X796925Y376237D02*
G54D11*
D03*
X909638Y376237D02*
G54D11*
D03*
X1046162Y390525D02*
G54D11*
D03*
X1000125Y279400D02*
G54D11*
D03*
X889000Y279400D02*
G54D11*
D03*
X909638Y268288D02*
G54D11*
D03*
X898525Y304800D02*
G54D11*
D03*
X974725Y203200D02*
G54D11*
D03*
X863600Y203200D02*
G54D11*
D03*
X792162Y295275D02*
G54D11*
D03*
X771525Y279400D02*
G54D11*
D03*
X792162Y238125D02*
G54D11*
D03*
X746125Y203200D02*
G54D11*
D03*
X801687Y182563D02*
G54D11*
D03*
X915987Y182563D02*
G54D11*
D03*
X687387Y182563D02*
G54D11*
D03*
X635000Y203200D02*
G54D11*
D03*
X1030287Y182563D02*
G54D11*
D03*
X681038Y207962D02*
G54D11*
D03*
X681038Y228600D02*
G54D11*
D03*
X685800Y309562D02*
G54D11*
D03*
X655638Y304800D02*
G54D11*
D03*
X720725Y290512D02*
G54D11*
D03*
X660400Y279400D02*
G54D11*
D03*
X660400Y228600D02*
G54D11*
D03*
X544512Y279400D02*
G54D11*
D03*
X549275Y244475D02*
G54D11*
D03*
X549275Y219075D02*
G54D11*
D03*
X565150Y300038D02*
G54D11*
D03*
X565150Y259556D02*
G54D11*
D03*
X565150Y234156D02*
G54D11*
D03*
X569912Y212725D02*
G54D11*
D03*
X574675Y182563D02*
G54D11*
D03*
X614362Y203200D02*
G54D11*
D03*
X792162Y263525D02*
G54D11*
D03*
X669925Y259556D02*
G54D11*
D03*
X447675Y258762D02*
G54D11*
D03*
X447675Y304800D02*
G54D11*
D03*
X460375Y182563D02*
G54D11*
D03*
X517525Y203200D02*
G54D11*
D03*
X431800Y279400D02*
G54D11*
D03*
X427038Y207962D02*
G54D11*
D03*
X406400Y203200D02*
G54D11*
D03*
X381000Y182562D02*
G54D11*
D03*
X346075Y182563D02*
G54D11*
D03*
X231775Y182563D02*
G54D11*
D03*
X290513Y203200D02*
G54D11*
D03*
X330200Y238125D02*
G54D11*
D03*
X330200Y265112D02*
G54D11*
D03*
X330200Y300038D02*
G54D11*
D03*
X315912Y279400D02*
G54D11*
D03*
X219075Y304800D02*
G54D11*
D03*
X219075Y263525D02*
G54D11*
D03*
X219075Y234156D02*
G54D11*
D03*
X203200Y212725D02*
G54D11*
D03*
X177800Y203200D02*
G54D11*
D03*
X203200Y279400D02*
G54D11*
D03*
X898525Y254000D02*
G54D11*
D03*
G36*
X278668Y504503D02*
X301668Y504503D01*
X301668Y481503D01*
X278668Y481503D01*
X278668Y504503D01*
G37*
X315568Y493003D02*
G54D12*
D03*
X340968Y493003D02*
G54D12*
D03*
X366368Y493003D02*
G54D12*
D03*
X391768Y493003D02*
G54D12*
D03*
X417168Y493003D02*
G54D12*
D03*
X442568Y493003D02*
G54D12*
D03*
X467968Y493003D02*
G54D12*
D03*
X493368Y493003D02*
G54D12*
D03*
X518768Y493003D02*
G54D12*
D03*
X544168Y493003D02*
G54D12*
D03*
X569568Y493003D02*
G54D12*
D03*
X594968Y493003D02*
G54D12*
D03*
X620368Y493003D02*
G54D12*
D03*
X645768Y493003D02*
G54D12*
D03*
X671168Y493003D02*
G54D12*
D03*
X696568Y493003D02*
G54D12*
D03*
X721968Y493003D02*
G54D12*
D03*
X747368Y493003D02*
G54D12*
D03*
X772768Y493003D02*
G54D12*
D03*
X798168Y493003D02*
G54D12*
D03*
X823568Y493003D02*
G54D12*
D03*
X848968Y493003D02*
G54D12*
D03*
X874368Y493003D02*
G54D12*
D03*
X899768Y493003D02*
G54D12*
D03*
X925168Y493003D02*
G54D12*
D03*
X950568Y493003D02*
G54D12*
D03*
X975968Y493003D02*
G54D12*
D03*
X1001368Y493003D02*
G54D12*
D03*
X1026767Y493003D02*
G54D12*
D03*
G36*
X278668Y631503D02*
X301668Y631503D01*
X301668Y608503D01*
X278668Y608503D01*
X278668Y631503D01*
G37*
X315568Y620003D02*
G54D12*
D03*
X340968Y620003D02*
G54D12*
D03*
X366368Y620003D02*
G54D12*
D03*
X391768Y620003D02*
G54D12*
D03*
X417168Y620003D02*
G54D12*
D03*
X442568Y620003D02*
G54D12*
D03*
X467968Y620003D02*
G54D12*
D03*
X493368Y620003D02*
G54D12*
D03*
X518768Y620003D02*
G54D12*
D03*
X544168Y620003D02*
G54D12*
D03*
X569568Y620003D02*
G54D12*
D03*
X594968Y620003D02*
G54D12*
D03*
X620368Y620003D02*
G54D12*
D03*
X645768Y620003D02*
G54D12*
D03*
X671168Y620003D02*
G54D12*
D03*
X696568Y620003D02*
G54D12*
D03*
X721968Y620003D02*
G54D12*
D03*
X747368Y620003D02*
G54D12*
D03*
X772768Y620003D02*
G54D12*
D03*
X798168Y620003D02*
G54D12*
D03*
X823567Y620003D02*
G54D12*
D03*
X848968Y620003D02*
G54D12*
D03*
X874368Y620003D02*
G54D12*
D03*
X899768Y620003D02*
G54D12*
D03*
X925168Y620003D02*
G54D12*
D03*
X950568Y620003D02*
G54D12*
D03*
X975968Y620003D02*
G54D12*
D03*
X1001368Y620003D02*
G54D12*
D03*
X1026767Y620003D02*
G54D12*
D03*
G36*
X116209Y728256D02*
X116209Y705256D01*
X93209Y705256D01*
X93209Y728256D01*
X116209Y728256D01*
G37*
X28510Y716756D02*
G54D12*
D03*
X104709Y691356D02*
G54D12*
D03*
X28510Y691356D02*
G54D12*
D03*
X104709Y665956D02*
G54D12*
D03*
X28509Y665956D02*
G54D12*
D03*
X104709Y640556D02*
G54D12*
D03*
X28509Y640556D02*
G54D12*
D03*
X104709Y615156D02*
G54D12*
D03*
X28509Y615156D02*
G54D12*
D03*
X104709Y589756D02*
G54D12*
D03*
X28509Y589756D02*
G54D12*
D03*
X104709Y564356D02*
G54D12*
D03*
X28509Y564356D02*
G54D12*
D03*
X104709Y538956D02*
G54D12*
D03*
X28509Y538956D02*
G54D12*
D03*
X104709Y513556D02*
G54D12*
D03*
X28509Y513556D02*
G54D12*
D03*
X104709Y488156D02*
G54D12*
D03*
X28509Y488156D02*
G54D12*
D03*
X104709Y462756D02*
G54D12*
D03*
X28509Y462756D02*
G54D12*
D03*
X104709Y437356D02*
G54D12*
D03*
X28509Y437356D02*
G54D12*
D03*
X104709Y411956D02*
G54D12*
D03*
X28509Y411956D02*
G54D12*
D03*
X104709Y386556D02*
G54D12*
D03*
X28509Y386556D02*
G54D12*
D03*
X104709Y361156D02*
G54D12*
D03*
X28509Y361156D02*
G54D12*
D03*
X104709Y335756D02*
G54D12*
D03*
X28509Y335756D02*
G54D12*
D03*
X104709Y310356D02*
G54D12*
D03*
X28509Y310356D02*
G54D12*
D03*
X104709Y284956D02*
G54D12*
D03*
X28509Y284956D02*
G54D12*
D03*
X104709Y259556D02*
G54D12*
D03*
X28509Y259556D02*
G54D12*
D03*
X104709Y234156D02*
G54D12*
D03*
X28509Y234156D02*
G54D12*
D03*
X104709Y208755D02*
G54D12*
D03*
X28510Y208755D02*
G54D12*
D03*
X104709Y183356D02*
G54D12*
D03*
X28510Y183356D02*
G54D12*
D03*
X788194Y655638D02*
G54D11*
D03*
X51594Y208756D02*
G54D11*
D03*
X51594Y183356D02*
G54D11*
D03*
X51594Y234156D02*
G54D11*
D03*
X51594Y259556D02*
G54D11*
D03*
X76994Y234156D02*
G54D11*
D03*
X57150Y295275D02*
G54D11*
D03*
X82550Y295275D02*
G54D11*
D03*
X53181Y716756D02*
G54D11*
D03*
X53181Y691356D02*
G54D11*
D03*
X53181Y589756D02*
G54D11*
D03*
%LPD*%
G54D13*
G36*
X1103821Y257969D02*
X1103821Y270469D01*
X1109155Y270469D01*
X1109155Y257969D01*
X1103821Y257969D01*
G37*
G36*
X1104602Y259855D02*
X1113441Y268693D01*
X1117212Y264922D01*
X1108374Y256083D01*
X1104602Y259855D01*
G37*
G36*
X1106488Y260636D02*
X1118988Y260636D01*
X1118988Y255302D01*
X1106488Y255302D01*
X1106488Y260636D01*
G37*
G36*
X1108374Y259855D02*
X1117212Y251016D01*
X1113441Y247245D01*
X1104602Y256083D01*
X1108374Y259855D01*
G37*
G36*
X1109155Y257969D02*
X1109155Y245469D01*
X1103821Y245469D01*
X1103821Y257969D01*
X1109155Y257969D01*
G37*
G36*
X1108374Y256083D02*
X1099535Y247245D01*
X1095764Y251016D01*
X1104602Y259855D01*
X1108374Y256083D01*
G37*
G36*
X1106488Y255302D02*
X1093988Y255302D01*
X1093988Y260636D01*
X1106488Y260636D01*
X1106488Y255302D01*
G37*
G36*
X1104602Y256083D02*
X1095764Y264922D01*
X1099535Y268693D01*
X1108374Y259855D01*
X1104602Y256083D01*
G37*
G54D14*
G54D14*
G36*
X441579Y696913D02*
X441579Y705413D01*
X444245Y705413D01*
X444245Y696913D01*
X441579Y696913D01*
G37*
G36*
X441969Y697856D02*
X447980Y703866D01*
X449865Y701981D01*
X443855Y695970D01*
X441969Y697856D01*
G37*
G36*
X442912Y698246D02*
X451412Y698246D01*
X451412Y695580D01*
X442912Y695580D01*
X442912Y698246D01*
G37*
G36*
X443855Y697856D02*
X449865Y691845D01*
X447980Y689960D01*
X441969Y695970D01*
X443855Y697856D01*
G37*
G36*
X444245Y696913D02*
X444245Y688413D01*
X441579Y688413D01*
X441579Y696913D01*
X444245Y696913D01*
G37*
G36*
X443855Y695970D02*
X437844Y689960D01*
X435959Y691845D01*
X441969Y697856D01*
X443855Y695970D01*
G37*
G36*
X442912Y695580D02*
X434412Y695580D01*
X434412Y698246D01*
X442912Y698246D01*
X442912Y695580D01*
G37*
G36*
X441969Y695970D02*
X435959Y701981D01*
X437844Y703866D01*
X443855Y697856D01*
X441969Y695970D01*
G37*
G54D14*
G54D14*
G54D14*
G54D14*
G54D14*
G54D14*
G54D14*
G54D14*
G54D14*
G36*
X973392Y203200D02*
X973392Y211700D01*
X976058Y211700D01*
X976058Y203200D01*
X973392Y203200D01*
G37*
G36*
X973782Y204143D02*
X979793Y210153D01*
X981678Y208268D01*
X975668Y202257D01*
X973782Y204143D01*
G37*
G36*
X974725Y204533D02*
X983225Y204533D01*
X983225Y201867D01*
X974725Y201867D01*
X974725Y204533D01*
G37*
G36*
X975668Y204143D02*
X981678Y198132D01*
X979793Y196247D01*
X973782Y202257D01*
X975668Y204143D01*
G37*
G36*
X976058Y203200D02*
X976058Y194700D01*
X973392Y194700D01*
X973392Y203200D01*
X976058Y203200D01*
G37*
G36*
X975668Y202257D02*
X969657Y196247D01*
X967772Y198132D01*
X973782Y204143D01*
X975668Y202257D01*
G37*
G36*
X974725Y201867D02*
X966225Y201867D01*
X966225Y204533D01*
X974725Y204533D01*
X974725Y201867D01*
G37*
G36*
X973782Y202257D02*
X967772Y208268D01*
X969657Y210153D01*
X975668Y204143D01*
X973782Y202257D01*
G37*
G54D14*
G36*
X862267Y203200D02*
X862267Y211700D01*
X864933Y211700D01*
X864933Y203200D01*
X862267Y203200D01*
G37*
G36*
X862657Y204143D02*
X868668Y210153D01*
X870553Y208268D01*
X864543Y202257D01*
X862657Y204143D01*
G37*
G36*
X863600Y204533D02*
X872100Y204533D01*
X872100Y201867D01*
X863600Y201867D01*
X863600Y204533D01*
G37*
G36*
X864543Y204143D02*
X870553Y198132D01*
X868668Y196247D01*
X862657Y202257D01*
X864543Y204143D01*
G37*
G36*
X864933Y203200D02*
X864933Y194700D01*
X862267Y194700D01*
X862267Y203200D01*
X864933Y203200D01*
G37*
G36*
X864543Y202257D02*
X858532Y196247D01*
X856647Y198132D01*
X862657Y204143D01*
X864543Y202257D01*
G37*
G36*
X863600Y201867D02*
X855100Y201867D01*
X855100Y204533D01*
X863600Y204533D01*
X863600Y201867D01*
G37*
G36*
X862657Y202257D02*
X856647Y208268D01*
X858532Y210153D01*
X864543Y204143D01*
X862657Y202257D01*
G37*
G54D14*
G36*
X744792Y203200D02*
X744792Y211700D01*
X747458Y211700D01*
X747458Y203200D01*
X744792Y203200D01*
G37*
G36*
X745182Y204143D02*
X751193Y210153D01*
X753078Y208268D01*
X747068Y202257D01*
X745182Y204143D01*
G37*
G36*
X746125Y204533D02*
X754625Y204533D01*
X754625Y201867D01*
X746125Y201867D01*
X746125Y204533D01*
G37*
G36*
X747068Y204143D02*
X753078Y198132D01*
X751193Y196247D01*
X745182Y202257D01*
X747068Y204143D01*
G37*
G36*
X747458Y203200D02*
X747458Y194700D01*
X744792Y194700D01*
X744792Y203200D01*
X747458Y203200D01*
G37*
G36*
X747068Y202257D02*
X741057Y196247D01*
X739172Y198132D01*
X745182Y204143D01*
X747068Y202257D01*
G37*
G36*
X746125Y201867D02*
X737625Y201867D01*
X737625Y204533D01*
X746125Y204533D01*
X746125Y201867D01*
G37*
G36*
X745182Y202257D02*
X739172Y208268D01*
X741057Y210153D01*
X747068Y204143D01*
X745182Y202257D01*
G37*
G54D14*
G54D14*
G54D14*
G54D14*
G36*
X633667Y203200D02*
X633667Y211700D01*
X636333Y211700D01*
X636333Y203200D01*
X633667Y203200D01*
G37*
G36*
X634057Y204143D02*
X640068Y210153D01*
X641953Y208268D01*
X635943Y202257D01*
X634057Y204143D01*
G37*
G36*
X635000Y204533D02*
X643500Y204533D01*
X643500Y201867D01*
X635000Y201867D01*
X635000Y204533D01*
G37*
G36*
X635943Y204143D02*
X641953Y198132D01*
X640068Y196247D01*
X634057Y202257D01*
X635943Y204143D01*
G37*
G36*
X636333Y203200D02*
X636333Y194700D01*
X633667Y194700D01*
X633667Y203200D01*
X636333Y203200D01*
G37*
G36*
X635943Y202257D02*
X629932Y196247D01*
X628047Y198132D01*
X634057Y204143D01*
X635943Y202257D01*
G37*
G36*
X635000Y201867D02*
X626500Y201867D01*
X626500Y204533D01*
X635000Y204533D01*
X635000Y201867D01*
G37*
G36*
X634057Y202257D02*
X628047Y208268D01*
X629932Y210153D01*
X635943Y204143D01*
X634057Y202257D01*
G37*
G54D14*
G54D14*
G54D14*
G54D14*
G36*
X516192Y203200D02*
X516192Y211700D01*
X518858Y211700D01*
X518858Y203200D01*
X516192Y203200D01*
G37*
G36*
X516582Y204143D02*
X522593Y210153D01*
X524478Y208268D01*
X518468Y202257D01*
X516582Y204143D01*
G37*
G36*
X517525Y204533D02*
X526025Y204533D01*
X526025Y201867D01*
X517525Y201867D01*
X517525Y204533D01*
G37*
G36*
X518468Y204143D02*
X524478Y198132D01*
X522593Y196247D01*
X516582Y202257D01*
X518468Y204143D01*
G37*
G36*
X518858Y203200D02*
X518858Y194700D01*
X516192Y194700D01*
X516192Y203200D01*
X518858Y203200D01*
G37*
G36*
X518468Y202257D02*
X512457Y196247D01*
X510572Y198132D01*
X516582Y204143D01*
X518468Y202257D01*
G37*
G36*
X517525Y201867D02*
X509025Y201867D01*
X509025Y204533D01*
X517525Y204533D01*
X517525Y201867D01*
G37*
G36*
X516582Y202257D02*
X510572Y208268D01*
X512457Y210153D01*
X518468Y204143D01*
X516582Y202257D01*
G37*
G54D14*
G36*
X405067Y203200D02*
X405067Y211700D01*
X407733Y211700D01*
X407733Y203200D01*
X405067Y203200D01*
G37*
G36*
X405457Y204143D02*
X411468Y210153D01*
X413353Y208268D01*
X407343Y202257D01*
X405457Y204143D01*
G37*
G36*
X406400Y204533D02*
X414900Y204533D01*
X414900Y201867D01*
X406400Y201867D01*
X406400Y204533D01*
G37*
G36*
X407343Y204143D02*
X413353Y198132D01*
X411468Y196247D01*
X405457Y202257D01*
X407343Y204143D01*
G37*
G36*
X407733Y203200D02*
X407733Y194700D01*
X405067Y194700D01*
X405067Y203200D01*
X407733Y203200D01*
G37*
G36*
X407343Y202257D02*
X401332Y196247D01*
X399447Y198132D01*
X405457Y204143D01*
X407343Y202257D01*
G37*
G36*
X406400Y201867D02*
X397900Y201867D01*
X397900Y204533D01*
X406400Y204533D01*
X406400Y201867D01*
G37*
G36*
X405457Y202257D02*
X399447Y208268D01*
X401332Y210153D01*
X407343Y204143D01*
X405457Y202257D01*
G37*
G54D14*
G54D14*
G54D14*
G36*
X289180Y203200D02*
X289180Y211700D01*
X291846Y211700D01*
X291846Y203200D01*
X289180Y203200D01*
G37*
G36*
X289570Y204143D02*
X295581Y210153D01*
X297466Y208268D01*
X291456Y202257D01*
X289570Y204143D01*
G37*
G36*
X290513Y204533D02*
X299013Y204533D01*
X299013Y201867D01*
X290513Y201867D01*
X290513Y204533D01*
G37*
G36*
X291456Y204143D02*
X297466Y198132D01*
X295581Y196247D01*
X289570Y202257D01*
X291456Y204143D01*
G37*
G36*
X291846Y203200D02*
X291846Y194700D01*
X289180Y194700D01*
X289180Y203200D01*
X291846Y203200D01*
G37*
G36*
X291456Y202257D02*
X285445Y196247D01*
X283560Y198132D01*
X289570Y204143D01*
X291456Y202257D01*
G37*
G36*
X290513Y201867D02*
X282013Y201867D01*
X282013Y204533D01*
X290513Y204533D01*
X290513Y201867D01*
G37*
G36*
X289570Y202257D02*
X283560Y208268D01*
X285445Y210153D01*
X291456Y204143D01*
X289570Y202257D01*
G37*
G54D14*
G36*
X176467Y203200D02*
X176467Y211700D01*
X179133Y211700D01*
X179133Y203200D01*
X176467Y203200D01*
G37*
G36*
X176857Y204143D02*
X182868Y210153D01*
X184753Y208268D01*
X178743Y202257D01*
X176857Y204143D01*
G37*
G36*
X177800Y204533D02*
X186300Y204533D01*
X186300Y201867D01*
X177800Y201867D01*
X177800Y204533D01*
G37*
G36*
X178743Y204143D02*
X184753Y198132D01*
X182868Y196247D01*
X176857Y202257D01*
X178743Y204143D01*
G37*
G36*
X179133Y203200D02*
X179133Y194700D01*
X176467Y194700D01*
X176467Y203200D01*
X179133Y203200D01*
G37*
G36*
X178743Y202257D02*
X172732Y196247D01*
X170847Y198132D01*
X176857Y204143D01*
X178743Y202257D01*
G37*
G36*
X177800Y201867D02*
X169300Y201867D01*
X169300Y204533D01*
X177800Y204533D01*
X177800Y201867D01*
G37*
G36*
X176857Y202257D02*
X170847Y208268D01*
X172732Y210153D01*
X178743Y204143D01*
X176857Y202257D01*
G37*
G54D15*
G54D15*
G36*
X490868Y493003D02*
X490868Y505003D01*
X495868Y505003D01*
X495868Y493003D01*
X490868Y493003D01*
G37*
G36*
X491600Y494771D02*
X500086Y503256D01*
X503621Y499720D01*
X495136Y491235D01*
X491600Y494771D01*
G37*
G36*
X493368Y495503D02*
X505368Y495503D01*
X505368Y490503D01*
X493368Y490503D01*
X493368Y495503D01*
G37*
G36*
X495136Y494771D02*
X503621Y486285D01*
X500086Y482750D01*
X491600Y491235D01*
X495136Y494771D01*
G37*
G36*
X495868Y493003D02*
X495868Y481003D01*
X490868Y481003D01*
X490868Y493003D01*
X495868Y493003D01*
G37*
G36*
X495136Y491235D02*
X486651Y482750D01*
X483115Y486285D01*
X491600Y494771D01*
X495136Y491235D01*
G37*
G36*
X493368Y490503D02*
X481368Y490503D01*
X481368Y495503D01*
X493368Y495503D01*
X493368Y490503D01*
G37*
G36*
X491600Y491235D02*
X483115Y499720D01*
X486651Y503256D01*
X495136Y494771D01*
X491600Y491235D01*
G37*
G54D15*
G36*
X821068Y493003D02*
X821068Y505003D01*
X826068Y505003D01*
X826068Y493003D01*
X821068Y493003D01*
G37*
G36*
X821800Y494771D02*
X830286Y503256D01*
X833821Y499721D01*
X825336Y491235D01*
X821800Y494771D01*
G37*
G36*
X823568Y495503D02*
X835568Y495503D01*
X835568Y490503D01*
X823568Y490503D01*
X823568Y495503D01*
G37*
G36*
X825336Y494771D02*
X833821Y486285D01*
X830286Y482750D01*
X821800Y491235D01*
X825336Y494771D01*
G37*
G36*
X826068Y493003D02*
X826068Y481003D01*
X821068Y481003D01*
X821068Y493003D01*
X826068Y493003D01*
G37*
G36*
X825336Y491235D02*
X816850Y482750D01*
X813315Y486285D01*
X821800Y494771D01*
X825336Y491235D01*
G37*
G36*
X823568Y490503D02*
X811568Y490503D01*
X811568Y495503D01*
X823568Y495503D01*
X823568Y490503D01*
G37*
G36*
X821800Y491235D02*
X813315Y499721D01*
X816850Y503256D01*
X825336Y494771D01*
X821800Y491235D01*
G37*
G54D15*
G54D15*
G54D15*
G36*
X490868Y620003D02*
X490868Y632003D01*
X495868Y632003D01*
X495868Y620003D01*
X490868Y620003D01*
G37*
G36*
X491600Y621771D02*
X500086Y630256D01*
X503621Y626720D01*
X495136Y618235D01*
X491600Y621771D01*
G37*
G36*
X493368Y622503D02*
X505368Y622503D01*
X505368Y617503D01*
X493368Y617503D01*
X493368Y622503D01*
G37*
G36*
X495136Y621771D02*
X503621Y613285D01*
X500086Y609750D01*
X491600Y618235D01*
X495136Y621771D01*
G37*
G36*
X495868Y620003D02*
X495868Y608003D01*
X490868Y608003D01*
X490868Y620003D01*
X495868Y620003D01*
G37*
G36*
X495136Y618235D02*
X486651Y609750D01*
X483115Y613285D01*
X491600Y621771D01*
X495136Y618235D01*
G37*
G36*
X493368Y617503D02*
X481368Y617503D01*
X481368Y622503D01*
X493368Y622503D01*
X493368Y617503D01*
G37*
G36*
X491600Y618235D02*
X483115Y626720D01*
X486651Y630256D01*
X495136Y621771D01*
X491600Y618235D01*
G37*
G54D15*
G36*
X821800Y621771D02*
X830285Y630256D01*
X833820Y626720D01*
X825335Y618235D01*
X821800Y621771D01*
G37*
G36*
X823567Y622503D02*
X835567Y622503D01*
X835567Y617503D01*
X823567Y617503D01*
X823567Y622503D01*
G37*
G36*
X825335Y621771D02*
X833820Y613285D01*
X830285Y609750D01*
X821800Y618235D01*
X825335Y621771D01*
G37*
G36*
X826067Y620003D02*
X826067Y608003D01*
X821067Y608003D01*
X821067Y620003D01*
X826067Y620003D01*
G37*
G36*
X825335Y618235D02*
X816850Y609750D01*
X813314Y613285D01*
X821800Y621771D01*
X825335Y618235D01*
G37*
G36*
X823567Y617503D02*
X811567Y617503D01*
X811567Y622503D01*
X823567Y622503D01*
X823567Y617503D01*
G37*
G36*
X821800Y618235D02*
X813314Y626720D01*
X816850Y630256D01*
X825335Y621771D01*
X821800Y618235D01*
G37*
G54D15*
G54D15*
G36*
X104709Y719256D02*
X116709Y719256D01*
X116709Y714256D01*
X104709Y714256D01*
X104709Y719256D01*
G37*
G36*
X106477Y718524D02*
X118330Y706670D01*
X114795Y703135D01*
X102941Y714988D01*
X106477Y718524D01*
G37*
G36*
X107209Y716756D02*
X107209Y704756D01*
X102209Y704756D01*
X102209Y716756D01*
X107209Y716756D01*
G37*
G36*
X106477Y714988D02*
X94623Y703135D01*
X91087Y706670D01*
X102941Y718524D01*
X106477Y714988D01*
G37*
G36*
X104709Y714256D02*
X92709Y714256D01*
X92709Y719256D01*
X104709Y719256D01*
X104709Y714256D01*
G37*
G36*
X102941Y714988D02*
X91087Y726842D01*
X94623Y730378D01*
X106477Y718524D01*
X102941Y714988D01*
G37*
G36*
X102209Y716756D02*
X102209Y728756D01*
X107209Y728756D01*
X107209Y716756D01*
X102209Y716756D01*
G37*
G36*
X102941Y718524D02*
X114795Y730378D01*
X118330Y726842D01*
X106477Y714988D01*
X102941Y718524D01*
G37*
G54D15*
G36*
X28510Y719256D02*
X40510Y719256D01*
X40510Y714256D01*
X28510Y714256D01*
X28510Y719256D01*
G37*
G36*
X30277Y718524D02*
X38763Y710039D01*
X35227Y706503D01*
X26742Y714988D01*
X30277Y718524D01*
G37*
G36*
X31010Y716756D02*
X31010Y704756D01*
X26010Y704756D01*
X26010Y716756D01*
X31010Y716756D01*
G37*
G36*
X30277Y714988D02*
X21792Y706503D01*
X18257Y710039D01*
X26742Y718524D01*
X30277Y714988D01*
G37*
G36*
X28510Y714256D02*
X16510Y714256D01*
X16510Y719256D01*
X28510Y719256D01*
X28510Y714256D01*
G37*
G36*
X26742Y714988D02*
X18257Y723474D01*
X21792Y727009D01*
X30277Y718524D01*
X26742Y714988D01*
G37*
G36*
X26010Y716756D02*
X26010Y728756D01*
X31010Y728756D01*
X31010Y716756D01*
X26010Y716756D01*
G37*
G36*
X26742Y718524D02*
X35227Y727009D01*
X38763Y723474D01*
X30277Y714988D01*
X26742Y718524D01*
G37*
G54D15*
G54D15*
G54D15*
G54D15*
G54D15*
G36*
X104709Y185856D02*
X116709Y185856D01*
X116709Y180856D01*
X104709Y180856D01*
X104709Y185856D01*
G37*
G36*
X106477Y185124D02*
X114962Y176639D01*
X111426Y173103D01*
X102941Y181588D01*
X106477Y185124D01*
G37*
G36*
X107209Y183356D02*
X107209Y171356D01*
X102209Y171356D01*
X102209Y183356D01*
X107209Y183356D01*
G37*
G36*
X106477Y181588D02*
X97991Y173103D01*
X94456Y176639D01*
X102941Y185124D01*
X106477Y181588D01*
G37*
G36*
X104709Y180856D02*
X92709Y180856D01*
X92709Y185856D01*
X104709Y185856D01*
X104709Y180856D01*
G37*
G36*
X102941Y181588D02*
X94456Y190074D01*
X97991Y193609D01*
X106477Y185124D01*
X102941Y181588D01*
G37*
G36*
X102209Y183356D02*
X102209Y195356D01*
X107209Y195356D01*
X107209Y183356D01*
X102209Y183356D01*
G37*
G36*
X102941Y185124D02*
X111426Y193609D01*
X114962Y190074D01*
X106477Y181588D01*
X102941Y185124D01*
G37*
G54D15*
G36*
X28510Y185856D02*
X40510Y185856D01*
X40510Y180856D01*
X28510Y180856D01*
X28510Y185856D01*
G37*
G36*
X30277Y185124D02*
X38763Y176639D01*
X35227Y173103D01*
X26742Y181588D01*
X30277Y185124D01*
G37*
G36*
X31010Y183356D02*
X31010Y171356D01*
X26010Y171356D01*
X26010Y183356D01*
X31010Y183356D01*
G37*
G36*
X30277Y181588D02*
X21792Y173103D01*
X18257Y176639D01*
X26742Y185124D01*
X30277Y181588D01*
G37*
G36*
X28510Y180856D02*
X16510Y180856D01*
X16510Y185856D01*
X28510Y185856D01*
X28510Y180856D01*
G37*
G36*
X26742Y181588D02*
X18257Y190074D01*
X21792Y193609D01*
X30277Y185124D01*
X26742Y181588D01*
G37*
G36*
X26010Y183356D02*
X26010Y195356D01*
X31010Y195356D01*
X31010Y183356D01*
X26010Y183356D01*
G37*
G36*
X26742Y185124D02*
X35227Y193609D01*
X38763Y190074D01*
X30277Y181588D01*
X26742Y185124D01*
G37*
G36*
X1098488Y291369D02*
X1114488Y291369D01*
X1114488Y275369D01*
X1098488Y275369D01*
X1098488Y291369D01*
G37*
X1106488Y257969D02*
G54D16*
D03*
X1106488Y232569D02*
G54D16*
D03*
X366712Y696913D02*
G54D17*
D03*
X442912Y696913D02*
G54D17*
D03*
X546100Y722312D02*
G54D17*
D03*
X523875Y690562D02*
G54D17*
D03*
X600075Y696912D02*
G54D17*
D03*
X676275Y696912D02*
G54D17*
D03*
X620712Y715962D02*
G54D17*
D03*
X234950Y706438D02*
G54D17*
D03*
X331787Y685800D02*
G54D17*
D03*
X331788Y665956D02*
G54D17*
D03*
X417512Y676275D02*
G54D17*
D03*
X706438Y706438D02*
G54D17*
D03*
X762000Y681038D02*
G54D17*
D03*
X793750Y706438D02*
G54D17*
D03*
X849312Y681038D02*
G54D17*
D03*
X874712Y706438D02*
G54D17*
D03*
X930275Y681038D02*
G54D17*
D03*
X244475Y604838D02*
G54D17*
D03*
X315912Y588962D02*
G54D17*
D03*
X300831Y559594D02*
G54D17*
D03*
X300831Y533400D02*
G54D17*
D03*
X382588Y544512D02*
G54D17*
D03*
X382588Y523875D02*
G54D17*
D03*
X477838Y533400D02*
G54D17*
D03*
X558800Y538162D02*
G54D17*
D03*
X636588Y544512D02*
G54D17*
D03*
X974725Y411162D02*
G54D17*
D03*
X898525Y411162D02*
G54D17*
D03*
X812800Y411162D02*
G54D17*
D03*
X863600Y431800D02*
G54D17*
D03*
X954088Y390525D02*
G54D17*
D03*
X773112Y431800D02*
G54D17*
D03*
X741362Y431800D02*
G54D17*
D03*
X685800Y431800D02*
G54D17*
D03*
X655638Y431800D02*
G54D17*
D03*
X595312Y431800D02*
G54D17*
D03*
X569912Y431800D02*
G54D17*
D03*
X519112Y431800D02*
G54D17*
D03*
X477838Y431800D02*
G54D17*
D03*
X417512Y431800D02*
G54D17*
D03*
X387350Y431800D02*
G54D17*
D03*
X341312Y431800D02*
G54D17*
D03*
X300831Y431800D02*
G54D17*
D03*
X244475Y431800D02*
G54D17*
D03*
X188912Y411162D02*
G54D17*
D03*
X223838Y376237D02*
G54D17*
D03*
X341312Y376237D02*
G54D17*
D03*
X452438Y376237D02*
G54D17*
D03*
X544512Y379412D02*
G54D17*
D03*
X569912Y376237D02*
G54D17*
D03*
X681038Y376237D02*
G54D17*
D03*
X796925Y376237D02*
G54D17*
D03*
X909638Y376237D02*
G54D17*
D03*
X1046162Y390525D02*
G54D17*
D03*
X1000125Y279400D02*
G54D17*
D03*
X889000Y279400D02*
G54D17*
D03*
X909638Y268288D02*
G54D17*
D03*
X898525Y304800D02*
G54D17*
D03*
X974725Y203200D02*
G54D17*
D03*
X863600Y203200D02*
G54D17*
D03*
X792162Y295275D02*
G54D17*
D03*
X771525Y279400D02*
G54D17*
D03*
X792162Y238125D02*
G54D17*
D03*
X746125Y203200D02*
G54D17*
D03*
X801687Y182563D02*
G54D17*
D03*
X915987Y182563D02*
G54D17*
D03*
X687387Y182563D02*
G54D17*
D03*
X635000Y203200D02*
G54D17*
D03*
X1030287Y182563D02*
G54D17*
D03*
X681038Y207962D02*
G54D17*
D03*
X681038Y228600D02*
G54D17*
D03*
X685800Y309562D02*
G54D17*
D03*
X655638Y304800D02*
G54D17*
D03*
X720725Y290512D02*
G54D17*
D03*
X660400Y279400D02*
G54D17*
D03*
X660400Y228600D02*
G54D17*
D03*
X544512Y279400D02*
G54D17*
D03*
X549275Y244475D02*
G54D17*
D03*
X549275Y219075D02*
G54D17*
D03*
X565150Y300038D02*
G54D17*
D03*
X565150Y259556D02*
G54D17*
D03*
X565150Y234156D02*
G54D17*
D03*
X569912Y212725D02*
G54D17*
D03*
X574675Y182563D02*
G54D17*
D03*
X614362Y203200D02*
G54D17*
D03*
X792162Y263525D02*
G54D17*
D03*
X669925Y259556D02*
G54D17*
D03*
X447675Y258762D02*
G54D17*
D03*
X447675Y304800D02*
G54D17*
D03*
X460375Y182563D02*
G54D17*
D03*
X517525Y203200D02*
G54D17*
D03*
X431800Y279400D02*
G54D17*
D03*
X427038Y207962D02*
G54D17*
D03*
X406400Y203200D02*
G54D17*
D03*
X381000Y182562D02*
G54D17*
D03*
X346075Y182563D02*
G54D17*
D03*
X231775Y182563D02*
G54D17*
D03*
X290513Y203200D02*
G54D17*
D03*
X330200Y238125D02*
G54D17*
D03*
X330200Y265112D02*
G54D17*
D03*
X330200Y300038D02*
G54D17*
D03*
X315912Y279400D02*
G54D17*
D03*
X219075Y304800D02*
G54D17*
D03*
X219075Y263525D02*
G54D17*
D03*
X219075Y234156D02*
G54D17*
D03*
X203200Y212725D02*
G54D17*
D03*
X177800Y203200D02*
G54D17*
D03*
X203200Y279400D02*
G54D17*
D03*
X898525Y254000D02*
G54D17*
D03*
G36*
X282668Y500503D02*
X297668Y500503D01*
X297668Y485503D01*
X282668Y485503D01*
X282668Y500503D01*
G37*
X315568Y493003D02*
G54D18*
D03*
X340968Y493003D02*
G54D18*
D03*
X366368Y493003D02*
G54D18*
D03*
X391768Y493003D02*
G54D18*
D03*
X417168Y493003D02*
G54D18*
D03*
X442568Y493003D02*
G54D18*
D03*
X467968Y493003D02*
G54D18*
D03*
X493368Y493003D02*
G54D18*
D03*
X518768Y493003D02*
G54D18*
D03*
X544168Y493003D02*
G54D18*
D03*
X569568Y493003D02*
G54D18*
D03*
X594968Y493003D02*
G54D18*
D03*
X620368Y493003D02*
G54D18*
D03*
X645768Y493003D02*
G54D18*
D03*
X671168Y493003D02*
G54D18*
D03*
X696568Y493003D02*
G54D18*
D03*
X721968Y493003D02*
G54D18*
D03*
X747368Y493003D02*
G54D18*
D03*
X772768Y493003D02*
G54D18*
D03*
X798168Y493003D02*
G54D18*
D03*
X823568Y493003D02*
G54D18*
D03*
X848968Y493003D02*
G54D18*
D03*
X874368Y493003D02*
G54D18*
D03*
X899768Y493003D02*
G54D18*
D03*
X925168Y493003D02*
G54D18*
D03*
X950568Y493003D02*
G54D18*
D03*
X975968Y493003D02*
G54D18*
D03*
X1001368Y493003D02*
G54D18*
D03*
X1026767Y493003D02*
G54D18*
D03*
G36*
X282668Y627503D02*
X297668Y627503D01*
X297668Y612503D01*
X282668Y612503D01*
X282668Y627503D01*
G37*
X315568Y620003D02*
G54D18*
D03*
X340968Y620003D02*
G54D18*
D03*
X366368Y620003D02*
G54D18*
D03*
X391768Y620003D02*
G54D18*
D03*
X417168Y620003D02*
G54D18*
D03*
X442568Y620003D02*
G54D18*
D03*
X467968Y620003D02*
G54D18*
D03*
X493368Y620003D02*
G54D18*
D03*
X518768Y620003D02*
G54D18*
D03*
X544168Y620003D02*
G54D18*
D03*
X569568Y620003D02*
G54D18*
D03*
X594968Y620003D02*
G54D18*
D03*
X620368Y620003D02*
G54D18*
D03*
X645768Y620003D02*
G54D18*
D03*
X671168Y620003D02*
G54D18*
D03*
X696568Y620003D02*
G54D18*
D03*
X721968Y620003D02*
G54D18*
D03*
X747368Y620003D02*
G54D18*
D03*
X772768Y620003D02*
G54D18*
D03*
X798168Y620003D02*
G54D18*
D03*
X823567Y620003D02*
G54D18*
D03*
X848968Y620003D02*
G54D18*
D03*
X874368Y620003D02*
G54D18*
D03*
X899768Y620003D02*
G54D18*
D03*
X925168Y620003D02*
G54D18*
D03*
X950568Y620003D02*
G54D18*
D03*
X975968Y620003D02*
G54D18*
D03*
X1001368Y620003D02*
G54D18*
D03*
X1026767Y620003D02*
G54D18*
D03*
G36*
X112209Y724256D02*
X112209Y709256D01*
X97209Y709256D01*
X97209Y724256D01*
X112209Y724256D01*
G37*
X28510Y716756D02*
G54D18*
D03*
X104709Y691356D02*
G54D18*
D03*
X28510Y691356D02*
G54D18*
D03*
X104709Y665956D02*
G54D18*
D03*
X28509Y665956D02*
G54D18*
D03*
X104709Y640556D02*
G54D18*
D03*
X28509Y640556D02*
G54D18*
D03*
X104709Y615156D02*
G54D18*
D03*
X28509Y615156D02*
G54D18*
D03*
X104709Y589756D02*
G54D18*
D03*
X28509Y589756D02*
G54D18*
D03*
X104709Y564356D02*
G54D18*
D03*
X28509Y564356D02*
G54D18*
D03*
X104709Y538956D02*
G54D18*
D03*
X28509Y538956D02*
G54D18*
D03*
X104709Y513556D02*
G54D18*
D03*
X28509Y513556D02*
G54D18*
D03*
X104709Y488156D02*
G54D18*
D03*
X28509Y488156D02*
G54D18*
D03*
X104709Y462756D02*
G54D18*
D03*
X28509Y462756D02*
G54D18*
D03*
X104709Y437356D02*
G54D18*
D03*
X28509Y437356D02*
G54D18*
D03*
X104709Y411956D02*
G54D18*
D03*
X28509Y411956D02*
G54D18*
D03*
X104709Y386556D02*
G54D18*
D03*
X28509Y386556D02*
G54D18*
D03*
X104709Y361156D02*
G54D18*
D03*
X28509Y361156D02*
G54D18*
D03*
X104709Y335756D02*
G54D18*
D03*
X28509Y335756D02*
G54D18*
D03*
X104709Y310356D02*
G54D18*
D03*
X28509Y310356D02*
G54D18*
D03*
X104709Y284956D02*
G54D18*
D03*
X28509Y284956D02*
G54D18*
D03*
X104709Y259556D02*
G54D18*
D03*
X28509Y259556D02*
G54D18*
D03*
X104709Y234156D02*
G54D18*
D03*
X28509Y234156D02*
G54D18*
D03*
X104709Y208755D02*
G54D18*
D03*
X28510Y208755D02*
G54D18*
D03*
X104709Y183356D02*
G54D18*
D03*
X28510Y183356D02*
G54D18*
D03*
X788194Y655638D02*
G54D17*
D03*
X51594Y208756D02*
G54D17*
D03*
X51594Y183356D02*
G54D17*
D03*
X51594Y234156D02*
G54D17*
D03*
X51594Y259556D02*
G54D17*
D03*
X76994Y234156D02*
G54D17*
D03*
X57150Y295275D02*
G54D17*
D03*
X82550Y295275D02*
G54D17*
D03*
X53181Y716756D02*
G54D17*
D03*
X53181Y691356D02*
G54D17*
D03*
X53181Y589756D02*
G54D17*
D03*
M02*
