%FSLAX34Y34*%
%MOMM*%
%LNCOPPER_INNER2*%
G71*
G01*
%ADD10C,2.400*%
%ADD11C,1.600*%
%ADD12C,2.300*%
%ADD13C,0.533*%
%ADD14C,0.267*%
%ADD15C,0.500*%
%ADD16C,1.600*%
%ADD17C,0.800*%
%ADD18C,1.500*%
%LPD*%
G36*
X0Y800000D02*
X1220000Y800000D01*
X1220000Y100000D01*
X0Y100000D01*
X0Y800000D01*
G37*
%LPC*%
G36*
X1094488Y295369D02*
X1118488Y295369D01*
X1118488Y271369D01*
X1094488Y271369D01*
X1094488Y295369D01*
G37*
X1106488Y257969D02*
G54D10*
D03*
X1106488Y232569D02*
G54D10*
D03*
X366712Y696913D02*
G54D11*
D03*
X442912Y696913D02*
G54D11*
D03*
X546100Y722312D02*
G54D11*
D03*
X523875Y690562D02*
G54D11*
D03*
X600075Y696912D02*
G54D11*
D03*
X676275Y696912D02*
G54D11*
D03*
X620712Y715962D02*
G54D11*
D03*
X234950Y706438D02*
G54D11*
D03*
X331787Y685800D02*
G54D11*
D03*
X331788Y665956D02*
G54D11*
D03*
X417512Y676275D02*
G54D11*
D03*
X706438Y706438D02*
G54D11*
D03*
X762000Y681038D02*
G54D11*
D03*
X793750Y706438D02*
G54D11*
D03*
X849312Y681038D02*
G54D11*
D03*
X874712Y706438D02*
G54D11*
D03*
X930275Y681038D02*
G54D11*
D03*
X244475Y604838D02*
G54D11*
D03*
X315912Y588962D02*
G54D11*
D03*
X300831Y559594D02*
G54D11*
D03*
X300831Y533400D02*
G54D11*
D03*
X382588Y544512D02*
G54D11*
D03*
X382588Y523875D02*
G54D11*
D03*
X477838Y533400D02*
G54D11*
D03*
X558800Y538162D02*
G54D11*
D03*
X636588Y544512D02*
G54D11*
D03*
X974725Y411162D02*
G54D11*
D03*
X898525Y411162D02*
G54D11*
D03*
X812800Y411162D02*
G54D11*
D03*
X863600Y431800D02*
G54D11*
D03*
X954088Y390525D02*
G54D11*
D03*
X773112Y431800D02*
G54D11*
D03*
X741362Y431800D02*
G54D11*
D03*
X685800Y431800D02*
G54D11*
D03*
X655638Y431800D02*
G54D11*
D03*
X595312Y431800D02*
G54D11*
D03*
X569912Y431800D02*
G54D11*
D03*
X519112Y431800D02*
G54D11*
D03*
X477838Y431800D02*
G54D11*
D03*
X417512Y431800D02*
G54D11*
D03*
X387350Y431800D02*
G54D11*
D03*
X341312Y431800D02*
G54D11*
D03*
X300831Y431800D02*
G54D11*
D03*
X244475Y431800D02*
G54D11*
D03*
X188912Y411162D02*
G54D11*
D03*
X223838Y376237D02*
G54D11*
D03*
X341312Y376237D02*
G54D11*
D03*
X452438Y376237D02*
G54D11*
D03*
X544512Y379412D02*
G54D11*
D03*
X569912Y376237D02*
G54D11*
D03*
X681038Y376237D02*
G54D11*
D03*
X796925Y376237D02*
G54D11*
D03*
X909638Y376237D02*
G54D11*
D03*
X1046162Y390525D02*
G54D11*
D03*
X1000125Y279400D02*
G54D11*
D03*
X889000Y279400D02*
G54D11*
D03*
X909638Y268288D02*
G54D11*
D03*
X898525Y304800D02*
G54D11*
D03*
X974725Y203200D02*
G54D11*
D03*
X863600Y203200D02*
G54D11*
D03*
X792162Y295275D02*
G54D11*
D03*
X771525Y279400D02*
G54D11*
D03*
X792162Y238125D02*
G54D11*
D03*
X746125Y203200D02*
G54D11*
D03*
X801687Y182563D02*
G54D11*
D03*
X915987Y182563D02*
G54D11*
D03*
X687387Y182563D02*
G54D11*
D03*
X635000Y203200D02*
G54D11*
D03*
X1030287Y182563D02*
G54D11*
D03*
X681038Y207962D02*
G54D11*
D03*
X681038Y228600D02*
G54D11*
D03*
X685800Y309562D02*
G54D11*
D03*
X655638Y304800D02*
G54D11*
D03*
X720725Y290512D02*
G54D11*
D03*
X660400Y279400D02*
G54D11*
D03*
X660400Y228600D02*
G54D11*
D03*
X544512Y279400D02*
G54D11*
D03*
X549275Y244475D02*
G54D11*
D03*
X549275Y219075D02*
G54D11*
D03*
X565150Y300038D02*
G54D11*
D03*
X565150Y259556D02*
G54D11*
D03*
X565150Y234156D02*
G54D11*
D03*
X569912Y212725D02*
G54D11*
D03*
X574675Y182563D02*
G54D11*
D03*
X614362Y203200D02*
G54D11*
D03*
X792162Y263525D02*
G54D11*
D03*
X669925Y259556D02*
G54D11*
D03*
X447675Y258762D02*
G54D11*
D03*
X447675Y304800D02*
G54D11*
D03*
X460375Y182563D02*
G54D11*
D03*
X517525Y203200D02*
G54D11*
D03*
X431800Y279400D02*
G54D11*
D03*
X427038Y207962D02*
G54D11*
D03*
X406400Y203200D02*
G54D11*
D03*
X381000Y182562D02*
G54D11*
D03*
X346075Y182563D02*
G54D11*
D03*
X231775Y182563D02*
G54D11*
D03*
X290513Y203200D02*
G54D11*
D03*
X330200Y238125D02*
G54D11*
D03*
X330200Y265112D02*
G54D11*
D03*
X330200Y300038D02*
G54D11*
D03*
X315912Y279400D02*
G54D11*
D03*
X219075Y304800D02*
G54D11*
D03*
X219075Y263525D02*
G54D11*
D03*
X219075Y234156D02*
G54D11*
D03*
X203200Y212725D02*
G54D11*
D03*
X177800Y203200D02*
G54D11*
D03*
X203200Y279400D02*
G54D11*
D03*
X898525Y254000D02*
G54D11*
D03*
G36*
X278668Y504503D02*
X301668Y504503D01*
X301668Y481503D01*
X278668Y481503D01*
X278668Y504503D01*
G37*
X315568Y493003D02*
G54D12*
D03*
X340968Y493003D02*
G54D12*
D03*
X366368Y493003D02*
G54D12*
D03*
X391768Y493003D02*
G54D12*
D03*
X417168Y493003D02*
G54D12*
D03*
X442568Y493003D02*
G54D12*
D03*
X467968Y493003D02*
G54D12*
D03*
X493368Y493003D02*
G54D12*
D03*
X518768Y493003D02*
G54D12*
D03*
X544168Y493003D02*
G54D12*
D03*
X569568Y493003D02*
G54D12*
D03*
X594968Y493003D02*
G54D12*
D03*
X620368Y493003D02*
G54D12*
D03*
X645768Y493003D02*
G54D12*
D03*
X671168Y493003D02*
G54D12*
D03*
X696568Y493003D02*
G54D12*
D03*
X721968Y493003D02*
G54D12*
D03*
X747368Y493003D02*
G54D12*
D03*
X772768Y493003D02*
G54D12*
D03*
X798168Y493003D02*
G54D12*
D03*
X823568Y493003D02*
G54D12*
D03*
X848968Y493003D02*
G54D12*
D03*
X874368Y493003D02*
G54D12*
D03*
X899768Y493003D02*
G54D12*
D03*
X925168Y493003D02*
G54D12*
D03*
X950568Y493003D02*
G54D12*
D03*
X975968Y493003D02*
G54D12*
D03*
X1001368Y493003D02*
G54D12*
D03*
X1026767Y493003D02*
G54D12*
D03*
G36*
X278668Y631503D02*
X301668Y631503D01*
X301668Y608503D01*
X278668Y608503D01*
X278668Y631503D01*
G37*
X315568Y620003D02*
G54D12*
D03*
X340968Y620003D02*
G54D12*
D03*
X366368Y620003D02*
G54D12*
D03*
X391768Y620003D02*
G54D12*
D03*
X417168Y620003D02*
G54D12*
D03*
X442568Y620003D02*
G54D12*
D03*
X467968Y620003D02*
G54D12*
D03*
X493368Y620003D02*
G54D12*
D03*
X518768Y620003D02*
G54D12*
D03*
X544168Y620003D02*
G54D12*
D03*
X569568Y620003D02*
G54D12*
D03*
X594968Y620003D02*
G54D12*
D03*
X620368Y620003D02*
G54D12*
D03*
X645768Y620003D02*
G54D12*
D03*
X671168Y620003D02*
G54D12*
D03*
X696568Y620003D02*
G54D12*
D03*
X721968Y620003D02*
G54D12*
D03*
X747368Y620003D02*
G54D12*
D03*
X772768Y620003D02*
G54D12*
D03*
X798168Y620003D02*
G54D12*
D03*
X823567Y620003D02*
G54D12*
D03*
X848968Y620003D02*
G54D12*
D03*
X874368Y620003D02*
G54D12*
D03*
X899768Y620003D02*
G54D12*
D03*
X925168Y620003D02*
G54D12*
D03*
X950568Y620003D02*
G54D12*
D03*
X975968Y620003D02*
G54D12*
D03*
X1001368Y620003D02*
G54D12*
D03*
X1026767Y620003D02*
G54D12*
D03*
G36*
X116209Y728256D02*
X116209Y705256D01*
X93209Y705256D01*
X93209Y728256D01*
X116209Y728256D01*
G37*
X28510Y716756D02*
G54D12*
D03*
X104709Y691356D02*
G54D12*
D03*
X28510Y691356D02*
G54D12*
D03*
X104709Y665956D02*
G54D12*
D03*
X28509Y665956D02*
G54D12*
D03*
X104709Y640556D02*
G54D12*
D03*
X28509Y640556D02*
G54D12*
D03*
X104709Y615156D02*
G54D12*
D03*
X28509Y615156D02*
G54D12*
D03*
X104709Y589756D02*
G54D12*
D03*
X28509Y589756D02*
G54D12*
D03*
X104709Y564356D02*
G54D12*
D03*
X28509Y564356D02*
G54D12*
D03*
X104709Y538956D02*
G54D12*
D03*
X28509Y538956D02*
G54D12*
D03*
X104709Y513556D02*
G54D12*
D03*
X28509Y513556D02*
G54D12*
D03*
X104709Y488156D02*
G54D12*
D03*
X28509Y488156D02*
G54D12*
D03*
X104709Y462756D02*
G54D12*
D03*
X28509Y462756D02*
G54D12*
D03*
X104709Y437356D02*
G54D12*
D03*
X28509Y437356D02*
G54D12*
D03*
X104709Y411956D02*
G54D12*
D03*
X28509Y411956D02*
G54D12*
D03*
X104709Y386556D02*
G54D12*
D03*
X28509Y386556D02*
G54D12*
D03*
X104709Y361156D02*
G54D12*
D03*
X28509Y361156D02*
G54D12*
D03*
X104709Y335756D02*
G54D12*
D03*
X28509Y335756D02*
G54D12*
D03*
X104709Y310356D02*
G54D12*
D03*
X28509Y310356D02*
G54D12*
D03*
X104709Y284956D02*
G54D12*
D03*
X28509Y284956D02*
G54D12*
D03*
X104709Y259556D02*
G54D12*
D03*
X28509Y259556D02*
G54D12*
D03*
X104709Y234156D02*
G54D12*
D03*
X28509Y234156D02*
G54D12*
D03*
X104709Y208755D02*
G54D12*
D03*
X28510Y208755D02*
G54D12*
D03*
X104709Y183356D02*
G54D12*
D03*
X28510Y183356D02*
G54D12*
D03*
X788194Y655638D02*
G54D11*
D03*
X51594Y208756D02*
G54D11*
D03*
X51594Y183356D02*
G54D11*
D03*
X51594Y234156D02*
G54D11*
D03*
X51594Y259556D02*
G54D11*
D03*
X76994Y234156D02*
G54D11*
D03*
X57150Y295275D02*
G54D11*
D03*
X82550Y295275D02*
G54D11*
D03*
X53181Y716756D02*
G54D11*
D03*
X53181Y691356D02*
G54D11*
D03*
X53181Y589756D02*
G54D11*
D03*
%LPD*%
G54D13*
G54D14*
G36*
X365379Y696913D02*
X365379Y705413D01*
X368045Y705413D01*
X368045Y696913D01*
X365379Y696913D01*
G37*
G36*
X365769Y697856D02*
X371780Y703866D01*
X373665Y701981D01*
X367655Y695970D01*
X365769Y697856D01*
G37*
G36*
X366712Y698246D02*
X375212Y698246D01*
X375212Y695580D01*
X366712Y695580D01*
X366712Y698246D01*
G37*
G36*
X367655Y697856D02*
X373665Y691845D01*
X371780Y689960D01*
X365769Y695970D01*
X367655Y697856D01*
G37*
G36*
X368045Y696913D02*
X368045Y688413D01*
X365379Y688413D01*
X365379Y696913D01*
X368045Y696913D01*
G37*
G36*
X367655Y695970D02*
X361644Y689960D01*
X359759Y691845D01*
X365769Y697856D01*
X367655Y695970D01*
G37*
G36*
X366712Y695580D02*
X358212Y695580D01*
X358212Y698246D01*
X366712Y698246D01*
X366712Y695580D01*
G37*
G36*
X365769Y695970D02*
X359759Y701981D01*
X361644Y703866D01*
X367655Y697856D01*
X365769Y695970D01*
G37*
G54D14*
G54D14*
G36*
X222505Y376237D02*
X222505Y384737D01*
X225171Y384737D01*
X225171Y376237D01*
X222505Y376237D01*
G37*
G36*
X222895Y377180D02*
X228906Y383190D01*
X230791Y381305D01*
X224781Y375294D01*
X222895Y377180D01*
G37*
G36*
X223838Y377570D02*
X232338Y377570D01*
X232338Y374904D01*
X223838Y374904D01*
X223838Y377570D01*
G37*
G36*
X224781Y377180D02*
X230791Y371169D01*
X228906Y369284D01*
X222895Y375294D01*
X224781Y377180D01*
G37*
G36*
X225171Y376237D02*
X225171Y367737D01*
X222505Y367737D01*
X222505Y376237D01*
X225171Y376237D01*
G37*
G36*
X224781Y375294D02*
X218770Y369284D01*
X216885Y371169D01*
X222895Y377180D01*
X224781Y375294D01*
G37*
G36*
X223838Y374904D02*
X215338Y374904D01*
X215338Y377570D01*
X223838Y377570D01*
X223838Y374904D01*
G37*
G36*
X222895Y375294D02*
X216885Y381305D01*
X218770Y383190D01*
X224781Y377180D01*
X222895Y375294D01*
G37*
G54D14*
G36*
X339979Y376237D02*
X339979Y384737D01*
X342645Y384737D01*
X342645Y376237D01*
X339979Y376237D01*
G37*
G36*
X340369Y377180D02*
X346380Y383190D01*
X348265Y381305D01*
X342255Y375294D01*
X340369Y377180D01*
G37*
G36*
X341312Y377570D02*
X349812Y377570D01*
X349812Y374904D01*
X341312Y374904D01*
X341312Y377570D01*
G37*
G36*
X342255Y377180D02*
X348265Y371169D01*
X346380Y369284D01*
X340369Y375294D01*
X342255Y377180D01*
G37*
G36*
X342645Y376237D02*
X342645Y367737D01*
X339979Y367737D01*
X339979Y376237D01*
X342645Y376237D01*
G37*
G36*
X342255Y375294D02*
X336244Y369284D01*
X334359Y371169D01*
X340369Y377180D01*
X342255Y375294D01*
G37*
G36*
X341312Y374904D02*
X332812Y374904D01*
X332812Y377570D01*
X341312Y377570D01*
X341312Y374904D01*
G37*
G36*
X340369Y375294D02*
X334359Y381305D01*
X336244Y383190D01*
X342255Y377180D01*
X340369Y375294D01*
G37*
G54D14*
G36*
X451105Y376237D02*
X451105Y384737D01*
X453771Y384737D01*
X453771Y376237D01*
X451105Y376237D01*
G37*
G36*
X451495Y377180D02*
X457506Y383190D01*
X459391Y381305D01*
X453381Y375294D01*
X451495Y377180D01*
G37*
G36*
X452438Y377570D02*
X460938Y377570D01*
X460938Y374904D01*
X452438Y374904D01*
X452438Y377570D01*
G37*
G36*
X453381Y377180D02*
X459391Y371169D01*
X457506Y369284D01*
X451495Y375294D01*
X453381Y377180D01*
G37*
G36*
X453771Y376237D02*
X453771Y367737D01*
X451105Y367737D01*
X451105Y376237D01*
X453771Y376237D01*
G37*
G36*
X453381Y375294D02*
X447370Y369284D01*
X445485Y371169D01*
X451495Y377180D01*
X453381Y375294D01*
G37*
G36*
X452438Y374904D02*
X443938Y374904D01*
X443938Y377570D01*
X452438Y377570D01*
X452438Y374904D01*
G37*
G36*
X451495Y375294D02*
X445485Y381305D01*
X447370Y383190D01*
X453381Y377180D01*
X451495Y375294D01*
G37*
G54D14*
G36*
X568579Y376237D02*
X568579Y384737D01*
X571245Y384737D01*
X571245Y376237D01*
X568579Y376237D01*
G37*
G36*
X568969Y377180D02*
X574980Y383190D01*
X576865Y381305D01*
X570855Y375294D01*
X568969Y377180D01*
G37*
G36*
X569912Y377570D02*
X578412Y377570D01*
X578412Y374904D01*
X569912Y374904D01*
X569912Y377570D01*
G37*
G36*
X570855Y377180D02*
X576865Y371169D01*
X574980Y369284D01*
X568969Y375294D01*
X570855Y377180D01*
G37*
G36*
X571245Y376237D02*
X571245Y367737D01*
X568579Y367737D01*
X568579Y376237D01*
X571245Y376237D01*
G37*
G36*
X570855Y375294D02*
X564844Y369284D01*
X562959Y371169D01*
X568969Y377180D01*
X570855Y375294D01*
G37*
G36*
X569912Y374904D02*
X561412Y374904D01*
X561412Y377570D01*
X569912Y377570D01*
X569912Y374904D01*
G37*
G36*
X568969Y375294D02*
X562959Y381305D01*
X564844Y383190D01*
X570855Y377180D01*
X568969Y375294D01*
G37*
G54D14*
G36*
X679705Y376237D02*
X679705Y384737D01*
X682371Y384737D01*
X682371Y376237D01*
X679705Y376237D01*
G37*
G36*
X680095Y377180D02*
X686106Y383190D01*
X687991Y381305D01*
X681981Y375294D01*
X680095Y377180D01*
G37*
G36*
X681038Y377570D02*
X689538Y377570D01*
X689538Y374904D01*
X681038Y374904D01*
X681038Y377570D01*
G37*
G36*
X681981Y377180D02*
X687991Y371169D01*
X686106Y369284D01*
X680095Y375294D01*
X681981Y377180D01*
G37*
G36*
X682371Y376237D02*
X682371Y367737D01*
X679705Y367737D01*
X679705Y376237D01*
X682371Y376237D01*
G37*
G36*
X681981Y375294D02*
X675970Y369284D01*
X674085Y371169D01*
X680095Y377180D01*
X681981Y375294D01*
G37*
G36*
X681038Y374904D02*
X672538Y374904D01*
X672538Y377570D01*
X681038Y377570D01*
X681038Y374904D01*
G37*
G36*
X680095Y375294D02*
X674085Y381305D01*
X675970Y383190D01*
X681981Y377180D01*
X680095Y375294D01*
G37*
G54D14*
G36*
X795592Y376237D02*
X795592Y384737D01*
X798258Y384737D01*
X798258Y376237D01*
X795592Y376237D01*
G37*
G36*
X795982Y377180D02*
X801993Y383190D01*
X803878Y381305D01*
X797868Y375294D01*
X795982Y377180D01*
G37*
G36*
X796925Y377570D02*
X805425Y377570D01*
X805425Y374904D01*
X796925Y374904D01*
X796925Y377570D01*
G37*
G36*
X797868Y377180D02*
X803878Y371169D01*
X801993Y369284D01*
X795982Y375294D01*
X797868Y377180D01*
G37*
G36*
X798258Y376237D02*
X798258Y367737D01*
X795592Y367737D01*
X795592Y376237D01*
X798258Y376237D01*
G37*
G36*
X797868Y375294D02*
X791857Y369284D01*
X789972Y371169D01*
X795982Y377180D01*
X797868Y375294D01*
G37*
G36*
X796925Y374904D02*
X788425Y374904D01*
X788425Y377570D01*
X796925Y377570D01*
X796925Y374904D01*
G37*
G36*
X795982Y375294D02*
X789972Y381305D01*
X791857Y383190D01*
X797868Y377180D01*
X795982Y375294D01*
G37*
G54D14*
G36*
X908305Y376237D02*
X908305Y384737D01*
X910971Y384737D01*
X910971Y376237D01*
X908305Y376237D01*
G37*
G36*
X908695Y377180D02*
X914706Y383190D01*
X916591Y381305D01*
X910581Y375294D01*
X908695Y377180D01*
G37*
G36*
X909638Y377570D02*
X918138Y377570D01*
X918138Y374904D01*
X909638Y374904D01*
X909638Y377570D01*
G37*
G36*
X910581Y377180D02*
X916591Y371169D01*
X914706Y369284D01*
X908695Y375294D01*
X910581Y377180D01*
G37*
G36*
X910971Y376237D02*
X910971Y367737D01*
X908305Y367737D01*
X908305Y376237D01*
X910971Y376237D01*
G37*
G36*
X910581Y375294D02*
X904570Y369284D01*
X902685Y371169D01*
X908695Y377180D01*
X910581Y375294D01*
G37*
G36*
X909638Y374904D02*
X901138Y374904D01*
X901138Y377570D01*
X909638Y377570D01*
X909638Y374904D01*
G37*
G36*
X908695Y375294D02*
X902685Y381305D01*
X904570Y383190D01*
X910581Y377180D01*
X908695Y375294D01*
G37*
G54D14*
G36*
X1044829Y390525D02*
X1044829Y399025D01*
X1047495Y399025D01*
X1047495Y390525D01*
X1044829Y390525D01*
G37*
G36*
X1045219Y391468D02*
X1051230Y397478D01*
X1053115Y395593D01*
X1047105Y389582D01*
X1045219Y391468D01*
G37*
G36*
X1046162Y391858D02*
X1054662Y391858D01*
X1054662Y389192D01*
X1046162Y389192D01*
X1046162Y391858D01*
G37*
G36*
X1047105Y391468D02*
X1053115Y385457D01*
X1051230Y383572D01*
X1045219Y389582D01*
X1047105Y391468D01*
G37*
G36*
X1047495Y390525D02*
X1047495Y382025D01*
X1044829Y382025D01*
X1044829Y390525D01*
X1047495Y390525D01*
G37*
G36*
X1047105Y389582D02*
X1041094Y383572D01*
X1039209Y385457D01*
X1045219Y391468D01*
X1047105Y389582D01*
G37*
G36*
X1046162Y389192D02*
X1037662Y389192D01*
X1037662Y391858D01*
X1046162Y391858D01*
X1046162Y389192D01*
G37*
G36*
X1045219Y389582D02*
X1039209Y395593D01*
X1041094Y397478D01*
X1047105Y391468D01*
X1045219Y389582D01*
G37*
G54D14*
G54D14*
G54D14*
G54D14*
G36*
X800354Y182563D02*
X800354Y191063D01*
X803020Y191063D01*
X803020Y182563D01*
X800354Y182563D01*
G37*
G36*
X800744Y183506D02*
X806755Y189516D01*
X808640Y187631D01*
X802630Y181620D01*
X800744Y183506D01*
G37*
G36*
X801687Y183896D02*
X810187Y183896D01*
X810187Y181230D01*
X801687Y181230D01*
X801687Y183896D01*
G37*
G36*
X802630Y183506D02*
X808640Y177495D01*
X806755Y175610D01*
X800744Y181620D01*
X802630Y183506D01*
G37*
G36*
X803020Y182563D02*
X803020Y174063D01*
X800354Y174063D01*
X800354Y182563D01*
X803020Y182563D01*
G37*
G36*
X802630Y181620D02*
X796619Y175610D01*
X794734Y177495D01*
X800744Y183506D01*
X802630Y181620D01*
G37*
G36*
X801687Y181230D02*
X793187Y181230D01*
X793187Y183896D01*
X801687Y183896D01*
X801687Y181230D01*
G37*
G36*
X800744Y181620D02*
X794734Y187631D01*
X796619Y189516D01*
X802630Y183506D01*
X800744Y181620D01*
G37*
G54D14*
G36*
X914654Y182563D02*
X914654Y191063D01*
X917320Y191063D01*
X917320Y182563D01*
X914654Y182563D01*
G37*
G36*
X915044Y183506D02*
X921055Y189516D01*
X922940Y187631D01*
X916930Y181620D01*
X915044Y183506D01*
G37*
G36*
X915987Y183896D02*
X924487Y183896D01*
X924487Y181230D01*
X915987Y181230D01*
X915987Y183896D01*
G37*
G36*
X916930Y183506D02*
X922940Y177495D01*
X921055Y175610D01*
X915044Y181620D01*
X916930Y183506D01*
G37*
G36*
X917320Y182563D02*
X917320Y174063D01*
X914654Y174063D01*
X914654Y182563D01*
X917320Y182563D01*
G37*
G36*
X916930Y181620D02*
X910919Y175610D01*
X909034Y177495D01*
X915044Y183506D01*
X916930Y181620D01*
G37*
G36*
X915987Y181230D02*
X907487Y181230D01*
X907487Y183896D01*
X915987Y183896D01*
X915987Y181230D01*
G37*
G36*
X915044Y181620D02*
X909034Y187631D01*
X910919Y189516D01*
X916930Y183506D01*
X915044Y181620D01*
G37*
G54D14*
G36*
X686054Y182563D02*
X686054Y191063D01*
X688720Y191063D01*
X688720Y182563D01*
X686054Y182563D01*
G37*
G36*
X686444Y183506D02*
X692455Y189516D01*
X694340Y187631D01*
X688330Y181620D01*
X686444Y183506D01*
G37*
G36*
X687387Y183896D02*
X695887Y183896D01*
X695887Y181230D01*
X687387Y181230D01*
X687387Y183896D01*
G37*
G36*
X688330Y183506D02*
X694340Y177495D01*
X692455Y175610D01*
X686444Y181620D01*
X688330Y183506D01*
G37*
G36*
X688720Y182563D02*
X688720Y174063D01*
X686054Y174063D01*
X686054Y182563D01*
X688720Y182563D01*
G37*
G36*
X688330Y181620D02*
X682319Y175610D01*
X680434Y177495D01*
X686444Y183506D01*
X688330Y181620D01*
G37*
G36*
X687387Y181230D02*
X678887Y181230D01*
X678887Y183896D01*
X687387Y183896D01*
X687387Y181230D01*
G37*
G36*
X686444Y181620D02*
X680434Y187631D01*
X682319Y189516D01*
X688330Y183506D01*
X686444Y181620D01*
G37*
G54D14*
G54D14*
G36*
X1028954Y182563D02*
X1028954Y191063D01*
X1031620Y191063D01*
X1031620Y182563D01*
X1028954Y182563D01*
G37*
G36*
X1029344Y183506D02*
X1035355Y189516D01*
X1037240Y187631D01*
X1031230Y181620D01*
X1029344Y183506D01*
G37*
G36*
X1030287Y183896D02*
X1038787Y183896D01*
X1038787Y181230D01*
X1030287Y181230D01*
X1030287Y183896D01*
G37*
G36*
X1031230Y183506D02*
X1037240Y177495D01*
X1035355Y175610D01*
X1029344Y181620D01*
X1031230Y183506D01*
G37*
G36*
X1031620Y182563D02*
X1031620Y174063D01*
X1028954Y174063D01*
X1028954Y182563D01*
X1031620Y182563D01*
G37*
G36*
X1031230Y181620D02*
X1025219Y175610D01*
X1023334Y177495D01*
X1029344Y183506D01*
X1031230Y181620D01*
G37*
G36*
X1030287Y181230D02*
X1021787Y181230D01*
X1021787Y183896D01*
X1030287Y183896D01*
X1030287Y181230D01*
G37*
G36*
X1029344Y181620D02*
X1023334Y187631D01*
X1025219Y189516D01*
X1031230Y183506D01*
X1029344Y181620D01*
G37*
G54D14*
G36*
X573342Y182563D02*
X573342Y191063D01*
X576008Y191063D01*
X576008Y182563D01*
X573342Y182563D01*
G37*
G36*
X573732Y183506D02*
X579743Y189516D01*
X581628Y187631D01*
X575618Y181620D01*
X573732Y183506D01*
G37*
G36*
X574675Y183896D02*
X583175Y183896D01*
X583175Y181230D01*
X574675Y181230D01*
X574675Y183896D01*
G37*
G36*
X575618Y183506D02*
X581628Y177495D01*
X579743Y175610D01*
X573732Y181620D01*
X575618Y183506D01*
G37*
G36*
X576008Y182563D02*
X576008Y174063D01*
X573342Y174063D01*
X573342Y182563D01*
X576008Y182563D01*
G37*
G36*
X575618Y181620D02*
X569607Y175610D01*
X567722Y177495D01*
X573732Y183506D01*
X575618Y181620D01*
G37*
G36*
X574675Y181230D02*
X566175Y181230D01*
X566175Y183896D01*
X574675Y183896D01*
X574675Y181230D01*
G37*
G36*
X573732Y181620D02*
X567722Y187631D01*
X569607Y189516D01*
X575618Y183506D01*
X573732Y181620D01*
G37*
G54D14*
G36*
X459042Y182563D02*
X459042Y191063D01*
X461708Y191063D01*
X461708Y182563D01*
X459042Y182563D01*
G37*
G36*
X459432Y183506D02*
X465443Y189516D01*
X467328Y187631D01*
X461318Y181620D01*
X459432Y183506D01*
G37*
G36*
X460375Y183896D02*
X468875Y183896D01*
X468875Y181230D01*
X460375Y181230D01*
X460375Y183896D01*
G37*
G36*
X461318Y183506D02*
X467328Y177495D01*
X465443Y175610D01*
X459432Y181620D01*
X461318Y183506D01*
G37*
G36*
X461708Y182563D02*
X461708Y174063D01*
X459042Y174063D01*
X459042Y182563D01*
X461708Y182563D01*
G37*
G36*
X461318Y181620D02*
X455307Y175610D01*
X453422Y177495D01*
X459432Y183506D01*
X461318Y181620D01*
G37*
G36*
X460375Y181230D02*
X451875Y181230D01*
X451875Y183896D01*
X460375Y183896D01*
X460375Y181230D01*
G37*
G36*
X459432Y181620D02*
X453422Y187631D01*
X455307Y189516D01*
X461318Y183506D01*
X459432Y181620D01*
G37*
G54D14*
G54D14*
G54D14*
G36*
X344742Y182563D02*
X344742Y191063D01*
X347408Y191063D01*
X347408Y182563D01*
X344742Y182563D01*
G37*
G36*
X345132Y183506D02*
X351143Y189516D01*
X353028Y187631D01*
X347018Y181620D01*
X345132Y183506D01*
G37*
G36*
X346075Y183896D02*
X354575Y183896D01*
X354575Y181230D01*
X346075Y181230D01*
X346075Y183896D01*
G37*
G36*
X347018Y183506D02*
X353028Y177495D01*
X351143Y175610D01*
X345132Y181620D01*
X347018Y183506D01*
G37*
G36*
X347408Y182563D02*
X347408Y174063D01*
X344742Y174063D01*
X344742Y182563D01*
X347408Y182563D01*
G37*
G36*
X347018Y181620D02*
X341007Y175610D01*
X339122Y177495D01*
X345132Y183506D01*
X347018Y181620D01*
G37*
G36*
X346075Y181230D02*
X337575Y181230D01*
X337575Y183896D01*
X346075Y183896D01*
X346075Y181230D01*
G37*
G36*
X345132Y181620D02*
X339122Y187631D01*
X341007Y189516D01*
X347018Y183506D01*
X345132Y181620D01*
G37*
G54D14*
G36*
X230442Y182563D02*
X230442Y191063D01*
X233108Y191063D01*
X233108Y182563D01*
X230442Y182563D01*
G37*
G36*
X230832Y183506D02*
X236843Y189516D01*
X238728Y187631D01*
X232718Y181620D01*
X230832Y183506D01*
G37*
G36*
X231775Y183896D02*
X240275Y183896D01*
X240275Y181230D01*
X231775Y181230D01*
X231775Y183896D01*
G37*
G36*
X232718Y183506D02*
X238728Y177495D01*
X236843Y175610D01*
X230832Y181620D01*
X232718Y183506D01*
G37*
G36*
X233108Y182563D02*
X233108Y174063D01*
X230442Y174063D01*
X230442Y182563D01*
X233108Y182563D01*
G37*
G36*
X232718Y181620D02*
X226707Y175610D01*
X224822Y177495D01*
X230832Y183506D01*
X232718Y181620D01*
G37*
G36*
X231775Y181230D02*
X223275Y181230D01*
X223275Y183896D01*
X231775Y183896D01*
X231775Y181230D01*
G37*
G36*
X230832Y181620D02*
X224822Y187631D01*
X226707Y189516D01*
X232718Y183506D01*
X230832Y181620D01*
G37*
G54D14*
G54D14*
G54D15*
G36*
X287668Y493003D02*
X287668Y505003D01*
X292668Y505003D01*
X292668Y493003D01*
X287668Y493003D01*
G37*
G36*
X288400Y494771D02*
X300254Y506624D01*
X303790Y503089D01*
X291936Y491235D01*
X288400Y494771D01*
G37*
G36*
X290168Y495503D02*
X302168Y495503D01*
X302168Y490503D01*
X290168Y490503D01*
X290168Y495503D01*
G37*
G36*
X291936Y494771D02*
X303790Y482917D01*
X300254Y479382D01*
X288400Y491235D01*
X291936Y494771D01*
G37*
G36*
X292668Y493003D02*
X292668Y481003D01*
X287668Y481003D01*
X287668Y493003D01*
X292668Y493003D01*
G37*
G36*
X291936Y491235D02*
X280082Y479382D01*
X276547Y482917D01*
X288400Y494771D01*
X291936Y491235D01*
G37*
G36*
X290168Y490503D02*
X278168Y490503D01*
X278168Y495503D01*
X290168Y495503D01*
X290168Y490503D01*
G37*
G36*
X288400Y491235D02*
X276547Y503089D01*
X280082Y506624D01*
X291936Y494771D01*
X288400Y491235D01*
G37*
G54D15*
G54D15*
G54D15*
G36*
X1024267Y493003D02*
X1024267Y505003D01*
X1029267Y505003D01*
X1029267Y493003D01*
X1024267Y493003D01*
G37*
G36*
X1025000Y494771D02*
X1033485Y503256D01*
X1037020Y499720D01*
X1028535Y491235D01*
X1025000Y494771D01*
G37*
G36*
X1026767Y495503D02*
X1038767Y495503D01*
X1038767Y490503D01*
X1026767Y490503D01*
X1026767Y495503D01*
G37*
G36*
X1028535Y494771D02*
X1037020Y486285D01*
X1033485Y482750D01*
X1025000Y491235D01*
X1028535Y494771D01*
G37*
G36*
X1029267Y493003D02*
X1029267Y481003D01*
X1024267Y481003D01*
X1024267Y493003D01*
X1029267Y493003D01*
G37*
G36*
X1028535Y491235D02*
X1020050Y482750D01*
X1016514Y486285D01*
X1025000Y494771D01*
X1028535Y491235D01*
G37*
G36*
X1026767Y490503D02*
X1014767Y490503D01*
X1014767Y495503D01*
X1026767Y495503D01*
X1026767Y490503D01*
G37*
G36*
X1025000Y491235D02*
X1016514Y499720D01*
X1020050Y503256D01*
X1028535Y494771D01*
X1025000Y491235D01*
G37*
G54D15*
G36*
X287668Y620003D02*
X287668Y632003D01*
X292668Y632003D01*
X292668Y620003D01*
X287668Y620003D01*
G37*
G36*
X288400Y621771D02*
X300254Y633624D01*
X303790Y630089D01*
X291936Y618235D01*
X288400Y621771D01*
G37*
G36*
X290168Y622503D02*
X302168Y622503D01*
X302168Y617503D01*
X290168Y617503D01*
X290168Y622503D01*
G37*
G36*
X291936Y621771D02*
X303790Y609917D01*
X300254Y606382D01*
X288400Y618235D01*
X291936Y621771D01*
G37*
G36*
X292668Y620003D02*
X292668Y608003D01*
X287668Y608003D01*
X287668Y620003D01*
X292668Y620003D01*
G37*
G36*
X291936Y618235D02*
X280082Y606382D01*
X276547Y609917D01*
X288400Y621771D01*
X291936Y618235D01*
G37*
G36*
X290168Y617503D02*
X278168Y617503D01*
X278168Y622503D01*
X290168Y622503D01*
X290168Y617503D01*
G37*
G36*
X288400Y618235D02*
X276547Y630089D01*
X280082Y633624D01*
X291936Y621771D01*
X288400Y618235D01*
G37*
G54D15*
G54D15*
G54D15*
G36*
X1024267Y620003D02*
X1024267Y632003D01*
X1029267Y632003D01*
X1029267Y620003D01*
X1024267Y620003D01*
G37*
G36*
X1025000Y621771D02*
X1033485Y630256D01*
X1037020Y626720D01*
X1028535Y618235D01*
X1025000Y621771D01*
G37*
G36*
X1026767Y622503D02*
X1038767Y622503D01*
X1038767Y617503D01*
X1026767Y617503D01*
X1026767Y622503D01*
G37*
G36*
X1028535Y621771D02*
X1037020Y613285D01*
X1033485Y609750D01*
X1025000Y618235D01*
X1028535Y621771D01*
G37*
G36*
X1029267Y620003D02*
X1029267Y608003D01*
X1024267Y608003D01*
X1024267Y620003D01*
X1029267Y620003D01*
G37*
G36*
X1028535Y618235D02*
X1020050Y609750D01*
X1016514Y613285D01*
X1025000Y621771D01*
X1028535Y618235D01*
G37*
G36*
X1026767Y617503D02*
X1014767Y617503D01*
X1014767Y622503D01*
X1026767Y622503D01*
X1026767Y617503D01*
G37*
G36*
X1025000Y618235D02*
X1016514Y626720D01*
X1020050Y630256D01*
X1028535Y621771D01*
X1025000Y618235D01*
G37*
G54D15*
G54D15*
G54D15*
G36*
X104709Y693856D02*
X116709Y693856D01*
X116709Y688856D01*
X104709Y688856D01*
X104709Y693856D01*
G37*
G36*
X106477Y693124D02*
X114962Y684639D01*
X111426Y681103D01*
X102941Y689588D01*
X106477Y693124D01*
G37*
G36*
X107209Y691356D02*
X107209Y679356D01*
X102209Y679356D01*
X102209Y691356D01*
X107209Y691356D01*
G37*
G36*
X106477Y689588D02*
X97991Y681103D01*
X94456Y684639D01*
X102941Y693124D01*
X106477Y689588D01*
G37*
G36*
X104709Y688856D02*
X92709Y688856D01*
X92709Y693856D01*
X104709Y693856D01*
X104709Y688856D01*
G37*
G36*
X102941Y689588D02*
X94456Y698074D01*
X97991Y701609D01*
X106477Y693124D01*
X102941Y689588D01*
G37*
G36*
X102209Y691356D02*
X102209Y703356D01*
X107209Y703356D01*
X107209Y691356D01*
X102209Y691356D01*
G37*
G36*
X102941Y693124D02*
X111426Y701609D01*
X114962Y698074D01*
X106477Y689588D01*
X102941Y693124D01*
G37*
G54D15*
G36*
X28510Y693856D02*
X40510Y693856D01*
X40510Y688856D01*
X28510Y688856D01*
X28510Y693856D01*
G37*
G36*
X30277Y693124D02*
X38763Y684639D01*
X35227Y681103D01*
X26742Y689588D01*
X30277Y693124D01*
G37*
G36*
X31010Y691356D02*
X31010Y679356D01*
X26010Y679356D01*
X26010Y691356D01*
X31010Y691356D01*
G37*
G36*
X30277Y689588D02*
X21792Y681103D01*
X18257Y684639D01*
X26742Y693124D01*
X30277Y689588D01*
G37*
G36*
X28510Y688856D02*
X16510Y688856D01*
X16510Y693856D01*
X28510Y693856D01*
X28510Y688856D01*
G37*
G36*
X26742Y689588D02*
X18257Y698074D01*
X21792Y701609D01*
X30277Y693124D01*
X26742Y689588D01*
G37*
G36*
X26010Y691356D02*
X26010Y703356D01*
X31010Y703356D01*
X31010Y691356D01*
X26010Y691356D01*
G37*
G36*
X26742Y693124D02*
X35227Y701609D01*
X38763Y698074D01*
X30277Y689588D01*
X26742Y693124D01*
G37*
G54D15*
G36*
X104709Y211255D02*
X116709Y211255D01*
X116709Y206255D01*
X104709Y206255D01*
X104709Y211255D01*
G37*
G36*
X106477Y210523D02*
X114962Y202038D01*
X111426Y198502D01*
X102941Y206987D01*
X106477Y210523D01*
G37*
G36*
X107209Y208755D02*
X107209Y196755D01*
X102209Y196755D01*
X102209Y208755D01*
X107209Y208755D01*
G37*
G36*
X106477Y206987D02*
X97991Y198502D01*
X94456Y202038D01*
X102941Y210523D01*
X106477Y206987D01*
G37*
G36*
X104709Y206255D02*
X92709Y206255D01*
X92709Y211255D01*
X104709Y211255D01*
X104709Y206255D01*
G37*
G36*
X102941Y206987D02*
X94456Y215473D01*
X97991Y219008D01*
X106477Y210523D01*
X102941Y206987D01*
G37*
G36*
X102209Y208755D02*
X102209Y220755D01*
X107209Y220755D01*
X107209Y208755D01*
X102209Y208755D01*
G37*
G36*
X102941Y210523D02*
X111426Y219008D01*
X114962Y215473D01*
X106477Y206987D01*
X102941Y210523D01*
G37*
G54D15*
G36*
X28510Y211255D02*
X40510Y211255D01*
X40510Y206255D01*
X28510Y206255D01*
X28510Y211255D01*
G37*
G36*
X30277Y210523D02*
X38763Y202038D01*
X35227Y198502D01*
X26742Y206987D01*
X30277Y210523D01*
G37*
G36*
X31010Y208755D02*
X31010Y196755D01*
X26010Y196755D01*
X26010Y208755D01*
X31010Y208755D01*
G37*
G36*
X30277Y206987D02*
X21792Y198502D01*
X18257Y202038D01*
X26742Y210523D01*
X30277Y206987D01*
G37*
G36*
X28510Y206255D02*
X16510Y206255D01*
X16510Y211255D01*
X28510Y211255D01*
X28510Y206255D01*
G37*
G36*
X26742Y206987D02*
X18257Y215473D01*
X21792Y219008D01*
X30277Y210523D01*
X26742Y206987D01*
G37*
G36*
X26010Y208755D02*
X26010Y220755D01*
X31010Y220755D01*
X31010Y208755D01*
X26010Y208755D01*
G37*
G36*
X26742Y210523D02*
X35227Y219008D01*
X38763Y215473D01*
X30277Y206987D01*
X26742Y210523D01*
G37*
G54D15*
G54D15*
G36*
X1098488Y291369D02*
X1114488Y291369D01*
X1114488Y275369D01*
X1098488Y275369D01*
X1098488Y291369D01*
G37*
X1106488Y257969D02*
G54D16*
D03*
X1106488Y232569D02*
G54D16*
D03*
X366712Y696913D02*
G54D17*
D03*
X442912Y696913D02*
G54D17*
D03*
X546100Y722312D02*
G54D17*
D03*
X523875Y690562D02*
G54D17*
D03*
X600075Y696912D02*
G54D17*
D03*
X676275Y696912D02*
G54D17*
D03*
X620712Y715962D02*
G54D17*
D03*
X234950Y706438D02*
G54D17*
D03*
X331787Y685800D02*
G54D17*
D03*
X331788Y665956D02*
G54D17*
D03*
X417512Y676275D02*
G54D17*
D03*
X706438Y706438D02*
G54D17*
D03*
X762000Y681038D02*
G54D17*
D03*
X793750Y706438D02*
G54D17*
D03*
X849312Y681038D02*
G54D17*
D03*
X874712Y706438D02*
G54D17*
D03*
X930275Y681038D02*
G54D17*
D03*
X244475Y604838D02*
G54D17*
D03*
X315912Y588962D02*
G54D17*
D03*
X300831Y559594D02*
G54D17*
D03*
X300831Y533400D02*
G54D17*
D03*
X382588Y544512D02*
G54D17*
D03*
X382588Y523875D02*
G54D17*
D03*
X477838Y533400D02*
G54D17*
D03*
X558800Y538162D02*
G54D17*
D03*
X636588Y544512D02*
G54D17*
D03*
X974725Y411162D02*
G54D17*
D03*
X898525Y411162D02*
G54D17*
D03*
X812800Y411162D02*
G54D17*
D03*
X863600Y431800D02*
G54D17*
D03*
X954088Y390525D02*
G54D17*
D03*
X773112Y431800D02*
G54D17*
D03*
X741362Y431800D02*
G54D17*
D03*
X685800Y431800D02*
G54D17*
D03*
X655638Y431800D02*
G54D17*
D03*
X595312Y431800D02*
G54D17*
D03*
X569912Y431800D02*
G54D17*
D03*
X519112Y431800D02*
G54D17*
D03*
X477838Y431800D02*
G54D17*
D03*
X417512Y431800D02*
G54D17*
D03*
X387350Y431800D02*
G54D17*
D03*
X341312Y431800D02*
G54D17*
D03*
X300831Y431800D02*
G54D17*
D03*
X244475Y431800D02*
G54D17*
D03*
X188912Y411162D02*
G54D17*
D03*
X223838Y376237D02*
G54D17*
D03*
X341312Y376237D02*
G54D17*
D03*
X452438Y376237D02*
G54D17*
D03*
X544512Y379412D02*
G54D17*
D03*
X569912Y376237D02*
G54D17*
D03*
X681038Y376237D02*
G54D17*
D03*
X796925Y376237D02*
G54D17*
D03*
X909638Y376237D02*
G54D17*
D03*
X1046162Y390525D02*
G54D17*
D03*
X1000125Y279400D02*
G54D17*
D03*
X889000Y279400D02*
G54D17*
D03*
X909638Y268288D02*
G54D17*
D03*
X898525Y304800D02*
G54D17*
D03*
X974725Y203200D02*
G54D17*
D03*
X863600Y203200D02*
G54D17*
D03*
X792162Y295275D02*
G54D17*
D03*
X771525Y279400D02*
G54D17*
D03*
X792162Y238125D02*
G54D17*
D03*
X746125Y203200D02*
G54D17*
D03*
X801687Y182563D02*
G54D17*
D03*
X915987Y182563D02*
G54D17*
D03*
X687387Y182563D02*
G54D17*
D03*
X635000Y203200D02*
G54D17*
D03*
X1030287Y182563D02*
G54D17*
D03*
X681038Y207962D02*
G54D17*
D03*
X681038Y228600D02*
G54D17*
D03*
X685800Y309562D02*
G54D17*
D03*
X655638Y304800D02*
G54D17*
D03*
X720725Y290512D02*
G54D17*
D03*
X660400Y279400D02*
G54D17*
D03*
X660400Y228600D02*
G54D17*
D03*
X544512Y279400D02*
G54D17*
D03*
X549275Y244475D02*
G54D17*
D03*
X549275Y219075D02*
G54D17*
D03*
X565150Y300038D02*
G54D17*
D03*
X565150Y259556D02*
G54D17*
D03*
X565150Y234156D02*
G54D17*
D03*
X569912Y212725D02*
G54D17*
D03*
X574675Y182563D02*
G54D17*
D03*
X614362Y203200D02*
G54D17*
D03*
X792162Y263525D02*
G54D17*
D03*
X669925Y259556D02*
G54D17*
D03*
X447675Y258762D02*
G54D17*
D03*
X447675Y304800D02*
G54D17*
D03*
X460375Y182563D02*
G54D17*
D03*
X517525Y203200D02*
G54D17*
D03*
X431800Y279400D02*
G54D17*
D03*
X427038Y207962D02*
G54D17*
D03*
X406400Y203200D02*
G54D17*
D03*
X381000Y182562D02*
G54D17*
D03*
X346075Y182563D02*
G54D17*
D03*
X231775Y182563D02*
G54D17*
D03*
X290513Y203200D02*
G54D17*
D03*
X330200Y238125D02*
G54D17*
D03*
X330200Y265112D02*
G54D17*
D03*
X330200Y300038D02*
G54D17*
D03*
X315912Y279400D02*
G54D17*
D03*
X219075Y304800D02*
G54D17*
D03*
X219075Y263525D02*
G54D17*
D03*
X219075Y234156D02*
G54D17*
D03*
X203200Y212725D02*
G54D17*
D03*
X177800Y203200D02*
G54D17*
D03*
X203200Y279400D02*
G54D17*
D03*
X898525Y254000D02*
G54D17*
D03*
G36*
X282668Y500503D02*
X297668Y500503D01*
X297668Y485503D01*
X282668Y485503D01*
X282668Y500503D01*
G37*
X315568Y493003D02*
G54D18*
D03*
X340968Y493003D02*
G54D18*
D03*
X366368Y493003D02*
G54D18*
D03*
X391768Y493003D02*
G54D18*
D03*
X417168Y493003D02*
G54D18*
D03*
X442568Y493003D02*
G54D18*
D03*
X467968Y493003D02*
G54D18*
D03*
X493368Y493003D02*
G54D18*
D03*
X518768Y493003D02*
G54D18*
D03*
X544168Y493003D02*
G54D18*
D03*
X569568Y493003D02*
G54D18*
D03*
X594968Y493003D02*
G54D18*
D03*
X620368Y493003D02*
G54D18*
D03*
X645768Y493003D02*
G54D18*
D03*
X671168Y493003D02*
G54D18*
D03*
X696568Y493003D02*
G54D18*
D03*
X721968Y493003D02*
G54D18*
D03*
X747368Y493003D02*
G54D18*
D03*
X772768Y493003D02*
G54D18*
D03*
X798168Y493003D02*
G54D18*
D03*
X823568Y493003D02*
G54D18*
D03*
X848968Y493003D02*
G54D18*
D03*
X874368Y493003D02*
G54D18*
D03*
X899768Y493003D02*
G54D18*
D03*
X925168Y493003D02*
G54D18*
D03*
X950568Y493003D02*
G54D18*
D03*
X975968Y493003D02*
G54D18*
D03*
X1001368Y493003D02*
G54D18*
D03*
X1026767Y493003D02*
G54D18*
D03*
G36*
X282668Y627503D02*
X297668Y627503D01*
X297668Y612503D01*
X282668Y612503D01*
X282668Y627503D01*
G37*
X315568Y620003D02*
G54D18*
D03*
X340968Y620003D02*
G54D18*
D03*
X366368Y620003D02*
G54D18*
D03*
X391768Y620003D02*
G54D18*
D03*
X417168Y620003D02*
G54D18*
D03*
X442568Y620003D02*
G54D18*
D03*
X467968Y620003D02*
G54D18*
D03*
X493368Y620003D02*
G54D18*
D03*
X518768Y620003D02*
G54D18*
D03*
X544168Y620003D02*
G54D18*
D03*
X569568Y620003D02*
G54D18*
D03*
X594968Y620003D02*
G54D18*
D03*
X620368Y620003D02*
G54D18*
D03*
X645768Y620003D02*
G54D18*
D03*
X671168Y620003D02*
G54D18*
D03*
X696568Y620003D02*
G54D18*
D03*
X721968Y620003D02*
G54D18*
D03*
X747368Y620003D02*
G54D18*
D03*
X772768Y620003D02*
G54D18*
D03*
X798168Y620003D02*
G54D18*
D03*
X823567Y620003D02*
G54D18*
D03*
X848968Y620003D02*
G54D18*
D03*
X874368Y620003D02*
G54D18*
D03*
X899768Y620003D02*
G54D18*
D03*
X925168Y620003D02*
G54D18*
D03*
X950568Y620003D02*
G54D18*
D03*
X975968Y620003D02*
G54D18*
D03*
X1001368Y620003D02*
G54D18*
D03*
X1026767Y620003D02*
G54D18*
D03*
G36*
X112209Y724256D02*
X112209Y709256D01*
X97209Y709256D01*
X97209Y724256D01*
X112209Y724256D01*
G37*
X28510Y716756D02*
G54D18*
D03*
X104709Y691356D02*
G54D18*
D03*
X28510Y691356D02*
G54D18*
D03*
X104709Y665956D02*
G54D18*
D03*
X28509Y665956D02*
G54D18*
D03*
X104709Y640556D02*
G54D18*
D03*
X28509Y640556D02*
G54D18*
D03*
X104709Y615156D02*
G54D18*
D03*
X28509Y615156D02*
G54D18*
D03*
X104709Y589756D02*
G54D18*
D03*
X28509Y589756D02*
G54D18*
D03*
X104709Y564356D02*
G54D18*
D03*
X28509Y564356D02*
G54D18*
D03*
X104709Y538956D02*
G54D18*
D03*
X28509Y538956D02*
G54D18*
D03*
X104709Y513556D02*
G54D18*
D03*
X28509Y513556D02*
G54D18*
D03*
X104709Y488156D02*
G54D18*
D03*
X28509Y488156D02*
G54D18*
D03*
X104709Y462756D02*
G54D18*
D03*
X28509Y462756D02*
G54D18*
D03*
X104709Y437356D02*
G54D18*
D03*
X28509Y437356D02*
G54D18*
D03*
X104709Y411956D02*
G54D18*
D03*
X28509Y411956D02*
G54D18*
D03*
X104709Y386556D02*
G54D18*
D03*
X28509Y386556D02*
G54D18*
D03*
X104709Y361156D02*
G54D18*
D03*
X28509Y361156D02*
G54D18*
D03*
X104709Y335756D02*
G54D18*
D03*
X28509Y335756D02*
G54D18*
D03*
X104709Y310356D02*
G54D18*
D03*
X28509Y310356D02*
G54D18*
D03*
X104709Y284956D02*
G54D18*
D03*
X28509Y284956D02*
G54D18*
D03*
X104709Y259556D02*
G54D18*
D03*
X28509Y259556D02*
G54D18*
D03*
X104709Y234156D02*
G54D18*
D03*
X28509Y234156D02*
G54D18*
D03*
X104709Y208755D02*
G54D18*
D03*
X28510Y208755D02*
G54D18*
D03*
X104709Y183356D02*
G54D18*
D03*
X28510Y183356D02*
G54D18*
D03*
X788194Y655638D02*
G54D17*
D03*
X51594Y208756D02*
G54D17*
D03*
X51594Y183356D02*
G54D17*
D03*
X51594Y234156D02*
G54D17*
D03*
X51594Y259556D02*
G54D17*
D03*
X76994Y234156D02*
G54D17*
D03*
X57150Y295275D02*
G54D17*
D03*
X82550Y295275D02*
G54D17*
D03*
X53181Y716756D02*
G54D17*
D03*
X53181Y691356D02*
G54D17*
D03*
X53181Y589756D02*
G54D17*
D03*
M02*
