%FSLAX34Y34*%
%MOMM*%
%LNSILK_TOP*%
G71*
G01*
%ADD10C,0.150*%
%ADD11C,0.206*%
%ADD12C,0.159*%
%ADD13C,0.200*%
%ADD14C,0.178*%
%ADD15C,0.222*%
%ADD16C,0.254*%
%ADD17C,0.133*%
%LPD*%
G54D10*
X165594Y216456D02*
X263594Y216456D01*
X263594Y378856D01*
X165594Y378856D01*
X165594Y216456D01*
G54D10*
X194594Y216456D02*
X234594Y216456D01*
X234594Y226456D01*
X194594Y226456D01*
X194594Y216456D01*
G54D11*
X258509Y189153D02*
X249120Y189153D01*
X247676Y188287D01*
X246953Y186553D01*
X246953Y184820D01*
X247676Y183087D01*
X249120Y182220D01*
X258509Y182220D01*
G54D11*
X246953Y178176D02*
X258509Y173843D01*
X246953Y169510D01*
G54D11*
X251287Y176443D02*
X251287Y171243D01*
G54D11*
X254176Y165465D02*
X258509Y161132D01*
X246953Y161132D01*
G54D11*
X220256Y242694D02*
X208700Y242694D01*
X215923Y247028D01*
X208700Y251361D01*
X220256Y251361D01*
G54D11*
X208700Y262339D02*
X208700Y255405D01*
X213756Y255405D01*
X213756Y256272D01*
X213034Y258005D01*
X213034Y259739D01*
X213756Y261472D01*
X215200Y262339D01*
X218089Y262339D01*
X219534Y261472D01*
X220256Y259739D01*
X220256Y258005D01*
X219534Y256272D01*
X218089Y255405D01*
G54D11*
X220256Y266382D02*
X208700Y266382D01*
X215923Y270716D01*
X208700Y275049D01*
X220256Y275049D01*
G54D11*
X220256Y284293D02*
X208700Y284293D01*
X215923Y279093D01*
X217367Y279093D01*
X217367Y286027D01*
G54D11*
X220256Y295270D02*
X208700Y295270D01*
X215923Y290070D01*
X217367Y290070D01*
X217367Y297004D01*
G54D11*
X220256Y307981D02*
X220256Y301047D01*
X219534Y301047D01*
X218089Y301914D01*
X213756Y307114D01*
X212312Y307981D01*
X210867Y307981D01*
X209423Y307114D01*
X208700Y305381D01*
X208700Y303647D01*
X209423Y301914D01*
X210867Y301047D01*
G54D11*
X208700Y318958D02*
X208700Y312024D01*
X213756Y312024D01*
X213756Y312891D01*
X213034Y314624D01*
X213034Y316358D01*
X213756Y318091D01*
X215200Y318958D01*
X218089Y318958D01*
X219534Y318091D01*
X220256Y316358D01*
X220256Y314624D01*
X219534Y312891D01*
X218089Y312024D01*
G54D11*
X210867Y329935D02*
X209423Y329068D01*
X208700Y327335D01*
X208700Y325601D01*
X209423Y323868D01*
X210867Y323001D01*
X214478Y323001D01*
X215200Y323001D01*
X213756Y325601D01*
X213756Y327335D01*
X214478Y329068D01*
X215923Y329935D01*
X218089Y329935D01*
X219534Y329068D01*
X220256Y327335D01*
X220256Y325601D01*
X219534Y323868D01*
X218089Y323001D01*
X214478Y323001D01*
G54D11*
X220256Y333978D02*
X208700Y333978D01*
X208700Y338312D01*
X209423Y340045D01*
X210867Y340912D01*
X212312Y340912D01*
X213756Y340045D01*
X214478Y338312D01*
X215200Y340045D01*
X216645Y340912D01*
X218089Y340912D01*
X219534Y340045D01*
X220256Y338312D01*
X220256Y333978D01*
G54D11*
X214478Y333978D02*
X214478Y338312D01*
G54D11*
X208700Y351889D02*
X218089Y351889D01*
X219534Y351022D01*
X220256Y349289D01*
X220256Y347555D01*
X219534Y345822D01*
X218089Y344955D01*
G54D10*
X279894Y216456D02*
X377894Y216456D01*
X377894Y378856D01*
X279894Y378856D01*
X279894Y216456D01*
G54D10*
X308894Y216456D02*
X348894Y216456D01*
X348894Y226456D01*
X308894Y226456D01*
X308894Y216456D01*
G54D11*
X374101Y190461D02*
X364713Y190461D01*
X363268Y189594D01*
X362546Y187861D01*
X362546Y186127D01*
X363268Y184394D01*
X364713Y183527D01*
X374101Y183527D01*
G54D11*
X362546Y179484D02*
X374101Y175150D01*
X362546Y170817D01*
G54D11*
X366879Y177750D02*
X366879Y172550D01*
G54D11*
X362546Y159839D02*
X362546Y166773D01*
X363268Y166773D01*
X364713Y165906D01*
X369046Y160706D01*
X370490Y159839D01*
X371935Y159839D01*
X373379Y160706D01*
X374101Y162439D01*
X374101Y164173D01*
X373379Y165906D01*
X371935Y166773D01*
G54D11*
X334556Y242694D02*
X323000Y242694D01*
X330223Y247028D01*
X323000Y251361D01*
X334556Y251361D01*
G54D11*
X323000Y262339D02*
X323000Y255405D01*
X328056Y255405D01*
X328056Y256272D01*
X327334Y258005D01*
X327334Y259739D01*
X328056Y261472D01*
X329500Y262339D01*
X332389Y262339D01*
X333834Y261472D01*
X334556Y259739D01*
X334556Y258005D01*
X333834Y256272D01*
X332389Y255405D01*
G54D11*
X334556Y266382D02*
X323000Y266382D01*
X330223Y270716D01*
X323000Y275049D01*
X334556Y275049D01*
G54D11*
X334556Y284293D02*
X323000Y284293D01*
X330223Y279093D01*
X331667Y279093D01*
X331667Y286027D01*
G54D11*
X334556Y295270D02*
X323000Y295270D01*
X330223Y290070D01*
X331667Y290070D01*
X331667Y297004D01*
G54D11*
X334556Y307981D02*
X334556Y301047D01*
X333834Y301047D01*
X332389Y301914D01*
X328056Y307114D01*
X326612Y307981D01*
X325167Y307981D01*
X323723Y307114D01*
X323000Y305381D01*
X323000Y303647D01*
X323723Y301914D01*
X325167Y301047D01*
G54D11*
X323000Y318958D02*
X323000Y312024D01*
X328056Y312024D01*
X328056Y312891D01*
X327334Y314624D01*
X327334Y316358D01*
X328056Y318091D01*
X329500Y318958D01*
X332389Y318958D01*
X333834Y318091D01*
X334556Y316358D01*
X334556Y314624D01*
X333834Y312891D01*
X332389Y312024D01*
G54D11*
X325167Y329935D02*
X323723Y329068D01*
X323000Y327335D01*
X323000Y325601D01*
X323723Y323868D01*
X325167Y323001D01*
X328778Y323001D01*
X329500Y323001D01*
X328056Y325601D01*
X328056Y327335D01*
X328778Y329068D01*
X330223Y329935D01*
X332389Y329935D01*
X333834Y329068D01*
X334556Y327335D01*
X334556Y325601D01*
X333834Y323868D01*
X332389Y323001D01*
X328778Y323001D01*
G54D11*
X334556Y333978D02*
X323000Y333978D01*
X323000Y338312D01*
X323723Y340045D01*
X325167Y340912D01*
X326612Y340912D01*
X328056Y340045D01*
X328778Y338312D01*
X329500Y340045D01*
X330945Y340912D01*
X332389Y340912D01*
X333834Y340045D01*
X334556Y338312D01*
X334556Y333978D01*
G54D11*
X328778Y333978D02*
X328778Y338312D01*
G54D11*
X323000Y351889D02*
X332389Y351889D01*
X333834Y351022D01*
X334556Y349289D01*
X334556Y347555D01*
X333834Y345822D01*
X332389Y344955D01*
G54D10*
X394194Y216456D02*
X492194Y216456D01*
X492194Y378856D01*
X394194Y378856D01*
X394194Y216456D01*
G54D10*
X423194Y216456D02*
X463194Y216456D01*
X463194Y226456D01*
X423194Y226456D01*
X423194Y216456D01*
G54D11*
X488401Y190461D02*
X479013Y190461D01*
X477568Y189594D01*
X476846Y187861D01*
X476846Y186127D01*
X477568Y184394D01*
X479013Y183527D01*
X488401Y183527D01*
G54D11*
X476846Y179484D02*
X488401Y175150D01*
X476846Y170817D01*
G54D11*
X481179Y177750D02*
X481179Y172550D01*
G54D11*
X486235Y166773D02*
X487679Y165906D01*
X488401Y164173D01*
X488401Y162439D01*
X487679Y160706D01*
X486235Y159839D01*
X484790Y159839D01*
X483346Y160706D01*
X482624Y162439D01*
X481901Y160706D01*
X480457Y159839D01*
X479013Y159839D01*
X477568Y160706D01*
X476846Y162439D01*
X476846Y164173D01*
X477568Y165906D01*
X479013Y166773D01*
G54D11*
X448856Y242694D02*
X437300Y242694D01*
X444523Y247028D01*
X437300Y251361D01*
X448856Y251361D01*
G54D11*
X437300Y262339D02*
X437300Y255405D01*
X442356Y255405D01*
X442356Y256272D01*
X441634Y258005D01*
X441634Y259739D01*
X442356Y261472D01*
X443800Y262339D01*
X446689Y262339D01*
X448134Y261472D01*
X448856Y259739D01*
X448856Y258005D01*
X448134Y256272D01*
X446689Y255405D01*
G54D11*
X448856Y266382D02*
X437300Y266382D01*
X444523Y270716D01*
X437300Y275049D01*
X448856Y275049D01*
G54D11*
X448856Y284293D02*
X437300Y284293D01*
X444523Y279093D01*
X445967Y279093D01*
X445967Y286027D01*
G54D11*
X448856Y295270D02*
X437300Y295270D01*
X444523Y290070D01*
X445967Y290070D01*
X445967Y297004D01*
G54D11*
X448856Y307981D02*
X448856Y301047D01*
X448134Y301047D01*
X446689Y301914D01*
X442356Y307114D01*
X440912Y307981D01*
X439467Y307981D01*
X438023Y307114D01*
X437300Y305381D01*
X437300Y303647D01*
X438023Y301914D01*
X439467Y301047D01*
G54D11*
X437300Y318958D02*
X437300Y312024D01*
X442356Y312024D01*
X442356Y312891D01*
X441634Y314624D01*
X441634Y316358D01*
X442356Y318091D01*
X443800Y318958D01*
X446689Y318958D01*
X448134Y318091D01*
X448856Y316358D01*
X448856Y314624D01*
X448134Y312891D01*
X446689Y312024D01*
G54D11*
X439467Y329935D02*
X438023Y329068D01*
X437300Y327335D01*
X437300Y325601D01*
X438023Y323868D01*
X439467Y323001D01*
X443078Y323001D01*
X443800Y323001D01*
X442356Y325601D01*
X442356Y327335D01*
X443078Y329068D01*
X444523Y329935D01*
X446689Y329935D01*
X448134Y329068D01*
X448856Y327335D01*
X448856Y325601D01*
X448134Y323868D01*
X446689Y323001D01*
X443078Y323001D01*
G54D11*
X448856Y333978D02*
X437300Y333978D01*
X437300Y338312D01*
X438023Y340045D01*
X439467Y340912D01*
X440912Y340912D01*
X442356Y340045D01*
X443078Y338312D01*
X443800Y340045D01*
X445245Y340912D01*
X446689Y340912D01*
X448134Y340045D01*
X448856Y338312D01*
X448856Y333978D01*
G54D11*
X443078Y333978D02*
X443078Y338312D01*
G54D11*
X437300Y351889D02*
X446689Y351889D01*
X448134Y351022D01*
X448856Y349289D01*
X448856Y347555D01*
X448134Y345822D01*
X446689Y344955D01*
G54D10*
X508494Y216456D02*
X606494Y216456D01*
X606494Y378856D01*
X508494Y378856D01*
X508494Y216456D01*
G54D10*
X537494Y216456D02*
X577494Y216456D01*
X577494Y226456D01*
X537494Y226456D01*
X537494Y216456D01*
G54D11*
X602635Y190388D02*
X593246Y190388D01*
X591802Y189522D01*
X591079Y187788D01*
X591079Y186055D01*
X591802Y184322D01*
X593246Y183455D01*
X602635Y183455D01*
G54D11*
X591079Y179411D02*
X602635Y175078D01*
X591079Y170745D01*
G54D11*
X595413Y177678D02*
X595413Y172478D01*
G54D11*
X591079Y161500D02*
X602635Y161500D01*
X595413Y166700D01*
X593968Y166700D01*
X593968Y159767D01*
G54D11*
X563156Y242694D02*
X551600Y242694D01*
X558823Y247028D01*
X551600Y251361D01*
X563156Y251361D01*
G54D11*
X551600Y262339D02*
X551600Y255405D01*
X556656Y255405D01*
X556656Y256272D01*
X555934Y258005D01*
X555934Y259739D01*
X556656Y261472D01*
X558100Y262339D01*
X560989Y262339D01*
X562434Y261472D01*
X563156Y259739D01*
X563156Y258005D01*
X562434Y256272D01*
X560989Y255405D01*
G54D11*
X563156Y266382D02*
X551600Y266382D01*
X558823Y270716D01*
X551600Y275049D01*
X563156Y275049D01*
G54D11*
X563156Y284293D02*
X551600Y284293D01*
X558823Y279093D01*
X560267Y279093D01*
X560267Y286027D01*
G54D11*
X563156Y295270D02*
X551600Y295270D01*
X558823Y290070D01*
X560267Y290070D01*
X560267Y297004D01*
G54D11*
X563156Y307981D02*
X563156Y301047D01*
X562434Y301047D01*
X560989Y301914D01*
X556656Y307114D01*
X555212Y307981D01*
X553767Y307981D01*
X552323Y307114D01*
X551600Y305381D01*
X551600Y303647D01*
X552323Y301914D01*
X553767Y301047D01*
G54D11*
X551600Y318958D02*
X551600Y312024D01*
X556656Y312024D01*
X556656Y312891D01*
X555934Y314624D01*
X555934Y316358D01*
X556656Y318091D01*
X558100Y318958D01*
X560989Y318958D01*
X562434Y318091D01*
X563156Y316358D01*
X563156Y314624D01*
X562434Y312891D01*
X560989Y312024D01*
G54D11*
X553767Y329935D02*
X552323Y329068D01*
X551600Y327335D01*
X551600Y325601D01*
X552323Y323868D01*
X553767Y323001D01*
X557378Y323001D01*
X558100Y323001D01*
X556656Y325601D01*
X556656Y327335D01*
X557378Y329068D01*
X558823Y329935D01*
X560989Y329935D01*
X562434Y329068D01*
X563156Y327335D01*
X563156Y325601D01*
X562434Y323868D01*
X560989Y323001D01*
X557378Y323001D01*
G54D11*
X563156Y333978D02*
X551600Y333978D01*
X551600Y338312D01*
X552323Y340045D01*
X553767Y340912D01*
X555212Y340912D01*
X556656Y340045D01*
X557378Y338312D01*
X558100Y340045D01*
X559545Y340912D01*
X560989Y340912D01*
X562434Y340045D01*
X563156Y338312D01*
X563156Y333978D01*
G54D11*
X557378Y333978D02*
X557378Y338312D01*
G54D11*
X551600Y351889D02*
X560989Y351889D01*
X562434Y351022D01*
X563156Y349289D01*
X563156Y347555D01*
X562434Y345822D01*
X560989Y344955D01*
G54D10*
X622794Y216456D02*
X720794Y216456D01*
X720794Y378856D01*
X622794Y378856D01*
X622794Y216456D01*
G54D10*
X651794Y216456D02*
X691794Y216456D01*
X691794Y226456D01*
X651794Y226456D01*
X651794Y216456D01*
G54D11*
X717001Y190461D02*
X707613Y190461D01*
X706168Y189594D01*
X705446Y187861D01*
X705446Y186127D01*
X706168Y184394D01*
X707613Y183527D01*
X717001Y183527D01*
G54D11*
X705446Y179484D02*
X717001Y175150D01*
X705446Y170817D01*
G54D11*
X709779Y177750D02*
X709779Y172550D01*
G54D11*
X717001Y159839D02*
X717001Y166773D01*
X711946Y166773D01*
X711946Y165906D01*
X712668Y164173D01*
X712668Y162439D01*
X711946Y160706D01*
X710501Y159839D01*
X707613Y159839D01*
X706168Y160706D01*
X705446Y162439D01*
X705446Y164173D01*
X706168Y165906D01*
X707613Y166773D01*
G54D11*
X677456Y242694D02*
X665900Y242694D01*
X673123Y247028D01*
X665900Y251361D01*
X677456Y251361D01*
G54D11*
X665900Y262339D02*
X665900Y255405D01*
X670956Y255405D01*
X670956Y256272D01*
X670234Y258005D01*
X670234Y259739D01*
X670956Y261472D01*
X672400Y262339D01*
X675289Y262339D01*
X676734Y261472D01*
X677456Y259739D01*
X677456Y258005D01*
X676734Y256272D01*
X675289Y255405D01*
G54D11*
X677456Y266382D02*
X665900Y266382D01*
X673123Y270716D01*
X665900Y275049D01*
X677456Y275049D01*
G54D11*
X677456Y284293D02*
X665900Y284293D01*
X673123Y279093D01*
X674567Y279093D01*
X674567Y286027D01*
G54D11*
X677456Y295270D02*
X665900Y295270D01*
X673123Y290070D01*
X674567Y290070D01*
X674567Y297004D01*
G54D11*
X677456Y307981D02*
X677456Y301047D01*
X676734Y301047D01*
X675289Y301914D01*
X670956Y307114D01*
X669512Y307981D01*
X668067Y307981D01*
X666623Y307114D01*
X665900Y305381D01*
X665900Y303647D01*
X666623Y301914D01*
X668067Y301047D01*
G54D11*
X665900Y318958D02*
X665900Y312024D01*
X670956Y312024D01*
X670956Y312891D01*
X670234Y314624D01*
X670234Y316358D01*
X670956Y318091D01*
X672400Y318958D01*
X675289Y318958D01*
X676734Y318091D01*
X677456Y316358D01*
X677456Y314624D01*
X676734Y312891D01*
X675289Y312024D01*
G54D11*
X668067Y329935D02*
X666623Y329068D01*
X665900Y327335D01*
X665900Y325601D01*
X666623Y323868D01*
X668067Y323001D01*
X671678Y323001D01*
X672400Y323001D01*
X670956Y325601D01*
X670956Y327335D01*
X671678Y329068D01*
X673123Y329935D01*
X675289Y329935D01*
X676734Y329068D01*
X677456Y327335D01*
X677456Y325601D01*
X676734Y323868D01*
X675289Y323001D01*
X671678Y323001D01*
G54D11*
X677456Y333978D02*
X665900Y333978D01*
X665900Y338312D01*
X666623Y340045D01*
X668067Y340912D01*
X669512Y340912D01*
X670956Y340045D01*
X671678Y338312D01*
X672400Y340045D01*
X673845Y340912D01*
X675289Y340912D01*
X676734Y340045D01*
X677456Y338312D01*
X677456Y333978D01*
G54D11*
X671678Y333978D02*
X671678Y338312D01*
G54D11*
X665900Y351889D02*
X675289Y351889D01*
X676734Y351022D01*
X677456Y349289D01*
X677456Y347555D01*
X676734Y345822D01*
X675289Y344955D01*
G54D10*
X737094Y216456D02*
X835094Y216456D01*
X835094Y378856D01*
X737094Y378856D01*
X737094Y216456D01*
G54D10*
X766094Y216456D02*
X806094Y216456D01*
X806094Y226456D01*
X766094Y226456D01*
X766094Y216456D01*
G54D11*
X831301Y190461D02*
X821913Y190461D01*
X820468Y189594D01*
X819746Y187861D01*
X819746Y186127D01*
X820468Y184394D01*
X821913Y183527D01*
X831301Y183527D01*
G54D11*
X819746Y179484D02*
X831301Y175150D01*
X819746Y170817D01*
G54D11*
X824079Y177750D02*
X824079Y172550D01*
G54D11*
X829135Y159839D02*
X830579Y160706D01*
X831301Y162439D01*
X831301Y164173D01*
X830579Y165906D01*
X829135Y166773D01*
X825524Y166773D01*
X824801Y166773D01*
X826246Y164173D01*
X826246Y162439D01*
X825524Y160706D01*
X824079Y159839D01*
X821913Y159839D01*
X820468Y160706D01*
X819746Y162439D01*
X819746Y164173D01*
X820468Y165906D01*
X821913Y166773D01*
X825524Y166773D01*
G54D11*
X791756Y242694D02*
X780200Y242694D01*
X787423Y247028D01*
X780200Y251361D01*
X791756Y251361D01*
G54D11*
X780200Y262339D02*
X780200Y255405D01*
X785256Y255405D01*
X785256Y256272D01*
X784534Y258005D01*
X784534Y259739D01*
X785256Y261472D01*
X786700Y262339D01*
X789589Y262339D01*
X791034Y261472D01*
X791756Y259739D01*
X791756Y258005D01*
X791034Y256272D01*
X789589Y255405D01*
G54D11*
X791756Y266382D02*
X780200Y266382D01*
X787423Y270716D01*
X780200Y275049D01*
X791756Y275049D01*
G54D11*
X791756Y284293D02*
X780200Y284293D01*
X787423Y279093D01*
X788867Y279093D01*
X788867Y286027D01*
G54D11*
X791756Y295270D02*
X780200Y295270D01*
X787423Y290070D01*
X788867Y290070D01*
X788867Y297004D01*
G54D11*
X791756Y307981D02*
X791756Y301047D01*
X791034Y301047D01*
X789589Y301914D01*
X785256Y307114D01*
X783812Y307981D01*
X782367Y307981D01*
X780923Y307114D01*
X780200Y305381D01*
X780200Y303647D01*
X780923Y301914D01*
X782367Y301047D01*
G54D11*
X780200Y318958D02*
X780200Y312024D01*
X785256Y312024D01*
X785256Y312891D01*
X784534Y314624D01*
X784534Y316358D01*
X785256Y318091D01*
X786700Y318958D01*
X789589Y318958D01*
X791034Y318091D01*
X791756Y316358D01*
X791756Y314624D01*
X791034Y312891D01*
X789589Y312024D01*
G54D11*
X782367Y329935D02*
X780923Y329068D01*
X780200Y327335D01*
X780200Y325601D01*
X780923Y323868D01*
X782367Y323001D01*
X785978Y323001D01*
X786700Y323001D01*
X785256Y325601D01*
X785256Y327335D01*
X785978Y329068D01*
X787423Y329935D01*
X789589Y329935D01*
X791034Y329068D01*
X791756Y327335D01*
X791756Y325601D01*
X791034Y323868D01*
X789589Y323001D01*
X785978Y323001D01*
G54D11*
X791756Y333978D02*
X780200Y333978D01*
X780200Y338312D01*
X780923Y340045D01*
X782367Y340912D01*
X783812Y340912D01*
X785256Y340045D01*
X785978Y338312D01*
X786700Y340045D01*
X788145Y340912D01*
X789589Y340912D01*
X791034Y340045D01*
X791756Y338312D01*
X791756Y333978D01*
G54D11*
X785978Y333978D02*
X785978Y338312D01*
G54D11*
X780200Y351889D02*
X789589Y351889D01*
X791034Y351022D01*
X791756Y349289D01*
X791756Y347555D01*
X791034Y345822D01*
X789589Y344955D01*
G54D10*
X851394Y216456D02*
X949394Y216456D01*
X949394Y378856D01*
X851394Y378856D01*
X851394Y216456D01*
G54D10*
X880394Y216456D02*
X920394Y216456D01*
X920394Y226456D01*
X880394Y226456D01*
X880394Y216456D01*
G54D11*
X945536Y190396D02*
X936148Y190396D01*
X934703Y189529D01*
X933981Y187796D01*
X933981Y186062D01*
X934703Y184329D01*
X936148Y183462D01*
X945536Y183462D01*
G54D11*
X933981Y179419D02*
X945536Y175085D01*
X933981Y170752D01*
G54D11*
X938314Y177685D02*
X938314Y172485D01*
G54D11*
X945536Y166708D02*
X945536Y159774D01*
X944092Y160641D01*
X941925Y162374D01*
X939036Y164108D01*
X936870Y164974D01*
X933981Y164974D01*
G54D11*
X906056Y242694D02*
X894500Y242694D01*
X901723Y247028D01*
X894500Y251361D01*
X906056Y251361D01*
G54D11*
X894500Y262339D02*
X894500Y255405D01*
X899556Y255405D01*
X899556Y256272D01*
X898834Y258005D01*
X898834Y259739D01*
X899556Y261472D01*
X901000Y262339D01*
X903889Y262339D01*
X905334Y261472D01*
X906056Y259739D01*
X906056Y258005D01*
X905334Y256272D01*
X903889Y255405D01*
G54D11*
X906056Y266382D02*
X894500Y266382D01*
X901723Y270716D01*
X894500Y275049D01*
X906056Y275049D01*
G54D11*
X906056Y284293D02*
X894500Y284293D01*
X901723Y279093D01*
X903167Y279093D01*
X903167Y286027D01*
G54D11*
X906056Y295270D02*
X894500Y295270D01*
X901723Y290070D01*
X903167Y290070D01*
X903167Y297004D01*
G54D11*
X906056Y307981D02*
X906056Y301047D01*
X905334Y301047D01*
X903889Y301914D01*
X899556Y307114D01*
X898112Y307981D01*
X896667Y307981D01*
X895223Y307114D01*
X894500Y305381D01*
X894500Y303647D01*
X895223Y301914D01*
X896667Y301047D01*
G54D11*
X894500Y318958D02*
X894500Y312024D01*
X899556Y312024D01*
X899556Y312891D01*
X898834Y314624D01*
X898834Y316358D01*
X899556Y318091D01*
X901000Y318958D01*
X903889Y318958D01*
X905334Y318091D01*
X906056Y316358D01*
X906056Y314624D01*
X905334Y312891D01*
X903889Y312024D01*
G54D11*
X896667Y329935D02*
X895223Y329068D01*
X894500Y327335D01*
X894500Y325601D01*
X895223Y323868D01*
X896667Y323001D01*
X900278Y323001D01*
X901000Y323001D01*
X899556Y325601D01*
X899556Y327335D01*
X900278Y329068D01*
X901723Y329935D01*
X903889Y329935D01*
X905334Y329068D01*
X906056Y327335D01*
X906056Y325601D01*
X905334Y323868D01*
X903889Y323001D01*
X900278Y323001D01*
G54D11*
X906056Y333978D02*
X894500Y333978D01*
X894500Y338312D01*
X895223Y340045D01*
X896667Y340912D01*
X898112Y340912D01*
X899556Y340045D01*
X900278Y338312D01*
X901000Y340045D01*
X902445Y340912D01*
X903889Y340912D01*
X905334Y340045D01*
X906056Y338312D01*
X906056Y333978D01*
G54D11*
X900278Y333978D02*
X900278Y338312D01*
G54D11*
X894500Y351889D02*
X903889Y351889D01*
X905334Y351022D01*
X906056Y349289D01*
X906056Y347555D01*
X905334Y345822D01*
X903889Y344955D01*
G54D10*
X965694Y216456D02*
X1063694Y216456D01*
X1063694Y378856D01*
X965694Y378856D01*
X965694Y216456D01*
G54D10*
X994694Y216456D02*
X1034694Y216456D01*
X1034694Y226456D01*
X994694Y226456D01*
X994694Y216456D01*
G54D11*
X1059902Y190461D02*
X1050512Y190461D01*
X1049068Y189594D01*
X1048346Y187861D01*
X1048346Y186127D01*
X1049068Y184394D01*
X1050512Y183527D01*
X1059902Y183527D01*
G54D11*
X1048346Y179484D02*
X1059902Y175150D01*
X1048346Y170817D01*
G54D11*
X1052679Y177750D02*
X1052679Y172550D01*
G54D11*
X1054124Y162439D02*
X1054124Y164173D01*
X1054846Y165906D01*
X1056290Y166773D01*
X1057735Y166773D01*
X1059179Y165906D01*
X1059902Y164173D01*
X1059902Y162439D01*
X1059179Y160706D01*
X1057735Y159839D01*
X1056290Y159839D01*
X1054846Y160706D01*
X1054124Y162439D01*
X1053402Y160706D01*
X1051957Y159839D01*
X1050512Y159839D01*
X1049068Y160706D01*
X1048346Y162439D01*
X1048346Y164173D01*
X1049068Y165906D01*
X1050512Y166773D01*
X1051957Y166773D01*
X1053402Y165906D01*
X1054124Y164173D01*
G54D11*
X1020356Y242694D02*
X1008800Y242694D01*
X1016023Y247028D01*
X1008800Y251361D01*
X1020356Y251361D01*
G54D11*
X1008800Y262339D02*
X1008800Y255405D01*
X1013856Y255405D01*
X1013856Y256272D01*
X1013134Y258005D01*
X1013134Y259739D01*
X1013856Y261472D01*
X1015300Y262339D01*
X1018189Y262339D01*
X1019634Y261472D01*
X1020356Y259739D01*
X1020356Y258005D01*
X1019634Y256272D01*
X1018189Y255405D01*
G54D11*
X1020356Y266382D02*
X1008800Y266382D01*
X1016023Y270716D01*
X1008800Y275049D01*
X1020356Y275049D01*
G54D11*
X1020356Y284293D02*
X1008800Y284293D01*
X1016023Y279093D01*
X1017467Y279093D01*
X1017467Y286027D01*
G54D11*
X1020356Y295270D02*
X1008800Y295270D01*
X1016023Y290070D01*
X1017467Y290070D01*
X1017467Y297004D01*
G54D11*
X1020356Y307981D02*
X1020356Y301047D01*
X1019634Y301047D01*
X1018189Y301914D01*
X1013856Y307114D01*
X1012412Y307981D01*
X1010967Y307981D01*
X1009523Y307114D01*
X1008800Y305381D01*
X1008800Y303647D01*
X1009523Y301914D01*
X1010967Y301047D01*
G54D11*
X1008800Y318958D02*
X1008800Y312024D01*
X1013856Y312024D01*
X1013856Y312891D01*
X1013134Y314624D01*
X1013134Y316358D01*
X1013856Y318091D01*
X1015300Y318958D01*
X1018189Y318958D01*
X1019634Y318091D01*
X1020356Y316358D01*
X1020356Y314624D01*
X1019634Y312891D01*
X1018189Y312024D01*
G54D11*
X1010967Y329935D02*
X1009523Y329068D01*
X1008800Y327335D01*
X1008800Y325601D01*
X1009523Y323868D01*
X1010967Y323001D01*
X1014578Y323001D01*
X1015300Y323001D01*
X1013856Y325601D01*
X1013856Y327335D01*
X1014578Y329068D01*
X1016023Y329935D01*
X1018189Y329935D01*
X1019634Y329068D01*
X1020356Y327335D01*
X1020356Y325601D01*
X1019634Y323868D01*
X1018189Y323001D01*
X1014578Y323001D01*
G54D11*
X1020356Y333978D02*
X1008800Y333978D01*
X1008800Y338312D01*
X1009523Y340045D01*
X1010967Y340912D01*
X1012412Y340912D01*
X1013856Y340045D01*
X1014578Y338312D01*
X1015300Y340045D01*
X1016745Y340912D01*
X1018189Y340912D01*
X1019634Y340045D01*
X1020356Y338312D01*
X1020356Y333978D01*
G54D11*
X1014578Y333978D02*
X1014578Y338312D01*
G54D11*
X1008800Y351889D02*
X1018189Y351889D01*
X1019634Y351022D01*
X1020356Y349289D01*
X1020356Y347555D01*
X1019634Y345822D01*
X1018189Y344955D01*
G54D10*
X265225Y706550D02*
X265225Y728550D01*
X315225Y728550D01*
X315225Y706550D01*
X265225Y706550D01*
G54D11*
X283817Y688053D02*
X286417Y686608D01*
X287283Y685164D01*
X287283Y682275D01*
G54D11*
X280350Y682275D02*
X280350Y693831D01*
X284683Y693831D01*
X286417Y693108D01*
X287283Y691664D01*
X287283Y690219D01*
X286417Y688775D01*
X284683Y688053D01*
X280350Y688053D01*
G54D11*
X291327Y689497D02*
X295660Y693831D01*
X295660Y682275D01*
G54D12*
X288544Y733958D02*
X283210Y733958D01*
X283210Y734514D01*
X283877Y735625D01*
X287877Y738958D01*
X288544Y740070D01*
X288544Y741181D01*
X287877Y742292D01*
X286544Y742847D01*
X285210Y742847D01*
X283877Y742292D01*
X283210Y741181D01*
G54D12*
X296988Y733958D02*
X291654Y733958D01*
X291654Y734514D01*
X292321Y735625D01*
X296321Y738958D01*
X296988Y740070D01*
X296988Y741181D01*
X296321Y742292D01*
X294988Y742847D01*
X293654Y742847D01*
X292321Y742292D01*
X291654Y741181D01*
G54D10*
X481125Y705756D02*
X481125Y727756D01*
X531125Y727756D01*
X531125Y705756D01*
X481125Y705756D01*
G54D11*
X491779Y688053D02*
X494379Y686608D01*
X495246Y685164D01*
X495246Y682275D01*
G54D11*
X488312Y682275D02*
X488312Y693830D01*
X492646Y693830D01*
X494379Y693108D01*
X495246Y691664D01*
X495246Y690219D01*
X494379Y688775D01*
X492646Y688053D01*
X488312Y688053D01*
G54D11*
X506223Y682275D02*
X499290Y682275D01*
X499290Y682997D01*
X500156Y684441D01*
X505356Y688775D01*
X506223Y690219D01*
X506223Y691664D01*
X505356Y693108D01*
X503623Y693830D01*
X501890Y693830D01*
X500156Y693108D01*
X499290Y691664D01*
G54D12*
X504444Y733164D02*
X499110Y733164D01*
X499110Y733720D01*
X499777Y734831D01*
X503777Y738164D01*
X504444Y739276D01*
X504444Y740387D01*
X503777Y741498D01*
X502444Y742053D01*
X501110Y742053D01*
X499777Y741498D01*
X499110Y740387D01*
G54D12*
X512888Y733164D02*
X507554Y733164D01*
X507554Y733720D01*
X508221Y734831D01*
X512221Y738164D01*
X512888Y739276D01*
X512888Y740387D01*
X512221Y741498D01*
X510888Y742053D01*
X509554Y742053D01*
X508221Y741498D01*
X507554Y740387D01*
G54D10*
X557325Y705756D02*
X557325Y727756D01*
X607325Y727756D01*
X607325Y705756D01*
X557325Y705756D01*
G54D11*
X567979Y688053D02*
X570579Y686608D01*
X571446Y685164D01*
X571446Y682275D01*
G54D11*
X564512Y682275D02*
X564512Y693830D01*
X568846Y693830D01*
X570579Y693108D01*
X571446Y691664D01*
X571446Y690219D01*
X570579Y688775D01*
X568846Y688053D01*
X564512Y688053D01*
G54D11*
X575490Y691664D02*
X576356Y693108D01*
X578090Y693830D01*
X579823Y693830D01*
X581556Y693108D01*
X582423Y691664D01*
X582423Y690219D01*
X581556Y688775D01*
X579823Y688053D01*
X581556Y687330D01*
X582423Y685886D01*
X582423Y684441D01*
X581556Y682997D01*
X579823Y682275D01*
X578090Y682275D01*
X576356Y682997D01*
X575490Y684441D01*
G54D12*
X580644Y733164D02*
X575310Y733164D01*
X575310Y733720D01*
X575977Y734831D01*
X579977Y738164D01*
X580644Y739276D01*
X580644Y740387D01*
X579977Y741498D01*
X578644Y742053D01*
X577310Y742053D01*
X575977Y741498D01*
X575310Y740387D01*
G54D12*
X589088Y733164D02*
X583754Y733164D01*
X583754Y733720D01*
X584421Y734831D01*
X588421Y738164D01*
X589088Y739276D01*
X589088Y740387D01*
X588421Y741498D01*
X587088Y742053D01*
X585754Y742053D01*
X584421Y741498D01*
X583754Y740387D01*
G54D10*
X633525Y705756D02*
X633525Y727756D01*
X683525Y727756D01*
X683525Y705756D01*
X633525Y705756D01*
G54D11*
X644179Y688053D02*
X646779Y686608D01*
X647646Y685164D01*
X647646Y682275D01*
G54D11*
X640712Y682275D02*
X640712Y693830D01*
X645046Y693830D01*
X646779Y693108D01*
X647646Y691664D01*
X647646Y690219D01*
X646779Y688775D01*
X645046Y688053D01*
X640712Y688053D01*
G54D11*
X656890Y682275D02*
X656890Y693830D01*
X651690Y686608D01*
X651690Y685164D01*
X658623Y685164D01*
G54D12*
X656844Y733164D02*
X651510Y733164D01*
X651510Y733720D01*
X652177Y734831D01*
X656177Y738164D01*
X656844Y739276D01*
X656844Y740387D01*
X656177Y741498D01*
X654844Y742053D01*
X653510Y742053D01*
X652177Y741498D01*
X651510Y740387D01*
G54D12*
X665288Y733164D02*
X659954Y733164D01*
X659954Y733720D01*
X660621Y734831D01*
X664621Y738164D01*
X665288Y739276D01*
X665288Y740387D01*
X664621Y741498D01*
X663288Y742053D01*
X661954Y742053D01*
X660621Y741498D01*
X659954Y740387D01*
G54D10*
X725600Y693056D02*
X725600Y715056D01*
X775600Y715056D01*
X775600Y693056D01*
X725600Y693056D01*
G54D11*
X729904Y677734D02*
X732504Y676289D01*
X733371Y674845D01*
X733371Y671956D01*
G54D11*
X726438Y671956D02*
X726438Y683512D01*
X730771Y683512D01*
X732504Y682789D01*
X733371Y681345D01*
X733371Y679900D01*
X732504Y678456D01*
X730771Y677734D01*
X726438Y677734D01*
G54D11*
X744348Y683512D02*
X737414Y683512D01*
X737414Y678456D01*
X738281Y678456D01*
X740014Y679178D01*
X741748Y679178D01*
X743481Y678456D01*
X744348Y677012D01*
X744348Y674123D01*
X743481Y672678D01*
X741748Y671956D01*
X740014Y671956D01*
X738281Y672678D01*
X737414Y674123D01*
G54D12*
X748919Y720464D02*
X743585Y720464D01*
X743585Y721020D01*
X744252Y722131D01*
X748252Y725464D01*
X748919Y726576D01*
X748919Y727687D01*
X748252Y728798D01*
X746919Y729353D01*
X745585Y729353D01*
X744252Y728798D01*
X743585Y727687D01*
G54D12*
X757363Y720464D02*
X752029Y720464D01*
X752029Y721020D01*
X752696Y722131D01*
X756696Y725464D01*
X757363Y726576D01*
X757363Y727687D01*
X756696Y728798D01*
X755363Y729353D01*
X754029Y729353D01*
X752696Y728798D01*
X752029Y727687D01*
G54D10*
X804975Y693056D02*
X804975Y715056D01*
X854975Y715056D01*
X854975Y693056D01*
X804975Y693056D01*
G54D11*
X816423Y677734D02*
X819023Y676289D01*
X819890Y674845D01*
X819890Y671956D01*
G54D11*
X812956Y671956D02*
X812956Y683512D01*
X817290Y683512D01*
X819023Y682789D01*
X819890Y681345D01*
X819890Y679900D01*
X819023Y678456D01*
X817290Y677734D01*
X812956Y677734D01*
G54D11*
X830867Y681345D02*
X830000Y682789D01*
X828267Y683512D01*
X826533Y683512D01*
X824800Y682789D01*
X823933Y681345D01*
X823933Y677734D01*
X823933Y677012D01*
X826533Y678456D01*
X828267Y678456D01*
X830000Y677734D01*
X830867Y676289D01*
X830867Y674123D01*
X830000Y672678D01*
X828267Y671956D01*
X826533Y671956D01*
X824800Y672678D01*
X823933Y674123D01*
X823933Y677734D01*
G54D12*
X828294Y720464D02*
X822960Y720464D01*
X822960Y721020D01*
X823627Y722131D01*
X827627Y725464D01*
X828294Y726576D01*
X828294Y727687D01*
X827627Y728798D01*
X826294Y729353D01*
X824960Y729353D01*
X823627Y728798D01*
X822960Y727687D01*
G54D12*
X836738Y720464D02*
X831404Y720464D01*
X831404Y721020D01*
X832071Y722131D01*
X836071Y725464D01*
X836738Y726576D01*
X836738Y727687D01*
X836071Y728798D01*
X834738Y729353D01*
X833404Y729353D01*
X832071Y728798D01*
X831404Y727687D01*
G54D10*
X887525Y693056D02*
X887525Y715056D01*
X937525Y715056D01*
X937525Y693056D01*
X887525Y693056D01*
G54D11*
X953742Y702340D02*
X956342Y700896D01*
X957208Y699451D01*
X957208Y696562D01*
G54D11*
X950275Y696562D02*
X950275Y708118D01*
X954608Y708118D01*
X956342Y707396D01*
X957208Y705951D01*
X957208Y704507D01*
X956342Y703062D01*
X954608Y702340D01*
X950275Y702340D01*
G54D11*
X961252Y708118D02*
X968185Y708118D01*
X967319Y706673D01*
X965585Y704507D01*
X963852Y701618D01*
X962985Y699451D01*
X962985Y696562D01*
G54D12*
X910844Y720464D02*
X905510Y720464D01*
X905510Y721020D01*
X906177Y722131D01*
X910177Y725464D01*
X910844Y726576D01*
X910844Y727687D01*
X910177Y728798D01*
X908844Y729353D01*
X907510Y729353D01*
X906177Y728798D01*
X905510Y727687D01*
G54D12*
X919288Y720464D02*
X913954Y720464D01*
X913954Y721020D01*
X914621Y722131D01*
X918621Y725464D01*
X919288Y726576D01*
X919288Y727687D01*
X918621Y728798D01*
X917288Y729353D01*
X915954Y729353D01*
X914621Y728798D01*
X913954Y727687D01*
G54D10*
X202519Y399369D02*
X202519Y421369D01*
X252519Y421369D01*
X252519Y399369D01*
X202519Y399369D01*
G54D11*
X171104Y428497D02*
X173704Y427052D01*
X174571Y425608D01*
X174571Y422719D01*
G54D11*
X167638Y422719D02*
X167638Y434275D01*
X171971Y434275D01*
X173704Y433552D01*
X174571Y432108D01*
X174571Y430663D01*
X173704Y429219D01*
X171971Y428497D01*
X167638Y428497D01*
G54D11*
X182948Y428497D02*
X181215Y428497D01*
X179481Y429219D01*
X178615Y430663D01*
X178615Y432108D01*
X179481Y433552D01*
X181215Y434275D01*
X182948Y434275D01*
X184681Y433552D01*
X185548Y432108D01*
X185548Y430663D01*
X184681Y429219D01*
X182948Y428497D01*
X184681Y427775D01*
X185548Y426330D01*
X185548Y424886D01*
X184681Y423441D01*
X182948Y422719D01*
X181215Y422719D01*
X179481Y423441D01*
X178615Y424886D01*
X178615Y426330D01*
X179481Y427775D01*
X181215Y428497D01*
G54D12*
X225838Y427571D02*
X220504Y427571D01*
X220504Y428127D01*
X221171Y429238D01*
X225171Y432571D01*
X225838Y433682D01*
X225838Y434793D01*
X225171Y435905D01*
X223838Y436460D01*
X222504Y436460D01*
X221171Y435905D01*
X220504Y434793D01*
G54D12*
X234282Y427571D02*
X228948Y427571D01*
X228948Y428127D01*
X229615Y429238D01*
X233615Y432571D01*
X234282Y433682D01*
X234282Y434793D01*
X233615Y435905D01*
X232282Y436460D01*
X230948Y436460D01*
X229615Y435905D01*
X228948Y434793D01*
G54D10*
X291419Y399369D02*
X291419Y421369D01*
X341419Y421369D01*
X341419Y399369D01*
X291419Y399369D01*
G54D11*
X272636Y427289D02*
X271192Y424689D01*
X269747Y423822D01*
X266858Y423822D01*
G54D11*
X266858Y430756D02*
X278414Y430756D01*
X278414Y426422D01*
X277692Y424689D01*
X276247Y423822D01*
X274803Y423822D01*
X273358Y424689D01*
X272636Y426422D01*
X272636Y430756D01*
G54D11*
X269025Y419779D02*
X267581Y418912D01*
X266858Y417179D01*
X266858Y415445D01*
X267581Y413712D01*
X269025Y412845D01*
X272636Y412845D01*
X273358Y412845D01*
X271914Y415445D01*
X271914Y417179D01*
X272636Y418912D01*
X274081Y419779D01*
X276247Y419779D01*
X277692Y418912D01*
X278414Y417179D01*
X278414Y415445D01*
X277692Y413712D01*
X276247Y412845D01*
X272636Y412845D01*
G54D12*
X314738Y427571D02*
X309404Y427571D01*
X309404Y428127D01*
X310071Y429238D01*
X314071Y432571D01*
X314738Y433682D01*
X314738Y434793D01*
X314071Y435905D01*
X312738Y436460D01*
X311404Y436460D01*
X310071Y435905D01*
X309404Y434793D01*
G54D12*
X323182Y427571D02*
X317848Y427571D01*
X317848Y428127D01*
X318515Y429238D01*
X322515Y432571D01*
X323182Y433682D01*
X323182Y434793D01*
X322515Y435905D01*
X321182Y436460D01*
X319848Y436460D01*
X318515Y435905D01*
X317848Y434793D01*
G54D10*
X380319Y399369D02*
X380319Y421369D01*
X430319Y421369D01*
X430319Y399369D01*
X380319Y399369D01*
G54D11*
X364137Y431084D02*
X362692Y428484D01*
X361248Y427618D01*
X358359Y427618D01*
G54D11*
X358359Y434551D02*
X369915Y434551D01*
X369915Y430218D01*
X369192Y428484D01*
X367748Y427618D01*
X366303Y427618D01*
X364859Y428484D01*
X364137Y430218D01*
X364137Y434551D01*
G54D11*
X365581Y423574D02*
X369915Y419241D01*
X358359Y419241D01*
G54D11*
X367748Y408264D02*
X360526Y408264D01*
X359081Y409130D01*
X358359Y410864D01*
X358359Y412597D01*
X359081Y414330D01*
X360526Y415197D01*
X367748Y415197D01*
X369192Y414330D01*
X369915Y412597D01*
X369915Y410864D01*
X369192Y409130D01*
X367748Y408264D01*
G54D12*
X403638Y427571D02*
X398304Y427571D01*
X398304Y428127D01*
X398971Y429238D01*
X402971Y432571D01*
X403638Y433682D01*
X403638Y434793D01*
X402971Y435905D01*
X401638Y436460D01*
X400304Y436460D01*
X398971Y435905D01*
X398304Y434793D01*
G54D12*
X412082Y427571D02*
X406748Y427571D01*
X406748Y428127D01*
X407415Y429238D01*
X411415Y432571D01*
X412082Y433682D01*
X412082Y434793D01*
X411415Y435905D01*
X410082Y436460D01*
X408748Y436460D01*
X407415Y435905D01*
X406748Y434793D01*
G54D10*
X556531Y399369D02*
X556531Y421369D01*
X606531Y421369D01*
X606531Y399369D01*
X556531Y399369D01*
G54D11*
X541142Y431123D02*
X539698Y428523D01*
X538254Y427657D01*
X535365Y427657D01*
G54D11*
X535365Y434590D02*
X546920Y434590D01*
X546920Y430257D01*
X546198Y428523D01*
X544754Y427657D01*
X543309Y427657D01*
X541865Y428523D01*
X541142Y430257D01*
X541142Y434590D01*
G54D11*
X542587Y423613D02*
X546920Y419280D01*
X535365Y419280D01*
G54D11*
X535365Y408303D02*
X535365Y415236D01*
X536087Y415236D01*
X537531Y414369D01*
X541865Y409169D01*
X543309Y408303D01*
X544754Y408303D01*
X546198Y409169D01*
X546920Y410903D01*
X546920Y412636D01*
X546198Y414369D01*
X544754Y415236D01*
G54D12*
X579850Y427571D02*
X574516Y427571D01*
X574516Y428127D01*
X575183Y429238D01*
X579183Y432571D01*
X579850Y433682D01*
X579850Y434793D01*
X579183Y435905D01*
X577850Y436460D01*
X576516Y436460D01*
X575183Y435905D01*
X574516Y434793D01*
G54D12*
X588294Y427571D02*
X582960Y427571D01*
X582960Y428127D01*
X583627Y429238D01*
X587627Y432571D01*
X588294Y433682D01*
X588294Y434793D01*
X587627Y435905D01*
X586294Y436460D01*
X584960Y436460D01*
X583627Y435905D01*
X582960Y434793D01*
G54D10*
X645431Y399369D02*
X645431Y421369D01*
X695431Y421369D01*
X695431Y399369D01*
X645431Y399369D01*
G54D11*
X627661Y431030D02*
X626217Y428430D01*
X624772Y427563D01*
X621884Y427563D01*
G54D11*
X621884Y434496D02*
X633439Y434496D01*
X633439Y430163D01*
X632717Y428430D01*
X631272Y427563D01*
X629828Y427563D01*
X628384Y428430D01*
X627661Y430163D01*
X627661Y434496D01*
G54D11*
X629106Y423519D02*
X633439Y419186D01*
X621884Y419186D01*
G54D11*
X631272Y415142D02*
X632717Y414276D01*
X633439Y412542D01*
X633439Y410809D01*
X632717Y409076D01*
X631272Y408209D01*
X629828Y408209D01*
X628384Y409076D01*
X627661Y410809D01*
X626939Y409076D01*
X625495Y408209D01*
X624050Y408209D01*
X622606Y409076D01*
X621884Y410809D01*
X621884Y412542D01*
X622606Y414276D01*
X624050Y415142D01*
G54D12*
X668750Y427571D02*
X663416Y427571D01*
X663416Y428127D01*
X664083Y429238D01*
X668083Y432571D01*
X668750Y433682D01*
X668750Y434793D01*
X668083Y435905D01*
X666750Y436460D01*
X665416Y436460D01*
X664083Y435905D01*
X663416Y434793D01*
G54D12*
X677194Y427571D02*
X671860Y427571D01*
X671860Y428127D01*
X672527Y429238D01*
X676527Y432571D01*
X677194Y433682D01*
X677194Y434793D01*
X676527Y435905D01*
X675194Y436460D01*
X673860Y436460D01*
X672527Y435905D01*
X671860Y434793D01*
G54D10*
X734331Y399369D02*
X734331Y421369D01*
X784331Y421369D01*
X784331Y399369D01*
X734331Y399369D01*
G54D11*
X718804Y431030D02*
X717359Y428430D01*
X715915Y427563D01*
X713026Y427563D01*
G54D11*
X713026Y434496D02*
X724581Y434496D01*
X724581Y430163D01*
X723859Y428430D01*
X722415Y427563D01*
X720970Y427563D01*
X719526Y428430D01*
X718804Y430163D01*
X718804Y434496D01*
G54D11*
X720248Y423519D02*
X724581Y419186D01*
X713026Y419186D01*
G54D11*
X713026Y409942D02*
X724581Y409942D01*
X717359Y415142D01*
X715915Y415142D01*
X715915Y408209D01*
G54D12*
X757650Y427571D02*
X752316Y427571D01*
X752316Y428127D01*
X752983Y429238D01*
X756983Y432571D01*
X757650Y433682D01*
X757650Y434793D01*
X756983Y435905D01*
X755650Y436460D01*
X754316Y436460D01*
X752983Y435905D01*
X752316Y434793D01*
G54D12*
X766094Y427571D02*
X760760Y427571D01*
X760760Y428127D01*
X761427Y429238D01*
X765427Y432571D01*
X766094Y433682D01*
X766094Y434793D01*
X765427Y435905D01*
X764094Y436460D01*
X762760Y436460D01*
X761427Y435905D01*
X760760Y434793D01*
G54D10*
X823231Y399369D02*
X823231Y421369D01*
X873231Y421369D01*
X873231Y399369D01*
X823231Y399369D01*
G54D11*
X804667Y431029D02*
X803222Y428429D01*
X801778Y427562D01*
X798889Y427562D01*
G54D11*
X798889Y434496D02*
X810445Y434496D01*
X810445Y430162D01*
X809722Y428429D01*
X808278Y427562D01*
X806833Y427562D01*
X805389Y428429D01*
X804667Y430162D01*
X804667Y434496D01*
G54D11*
X806111Y423518D02*
X810445Y419185D01*
X798889Y419185D01*
G54D11*
X810445Y408208D02*
X810445Y415142D01*
X805389Y415142D01*
X805389Y414275D01*
X806111Y412542D01*
X806111Y410808D01*
X805389Y409075D01*
X803945Y408208D01*
X801056Y408208D01*
X799611Y409075D01*
X798889Y410808D01*
X798889Y412542D01*
X799611Y414275D01*
X801056Y415142D01*
G54D12*
X846550Y427571D02*
X841216Y427571D01*
X841216Y428127D01*
X841883Y429238D01*
X845883Y432571D01*
X846550Y433682D01*
X846550Y434793D01*
X845883Y435905D01*
X844550Y436460D01*
X843216Y436460D01*
X841883Y435905D01*
X841216Y434793D01*
G54D12*
X854994Y427571D02*
X849660Y427571D01*
X849660Y428127D01*
X850327Y429238D01*
X854327Y432571D01*
X854994Y433682D01*
X854994Y434793D01*
X854327Y435905D01*
X852994Y436460D01*
X851660Y436460D01*
X850327Y435905D01*
X849660Y434793D01*
G54D10*
X912131Y399369D02*
X912131Y421369D01*
X962131Y421369D01*
X962131Y399369D01*
X912131Y399369D01*
G54D11*
X899919Y431030D02*
X898474Y428430D01*
X897030Y427563D01*
X894141Y427563D01*
G54D11*
X894141Y434496D02*
X905697Y434496D01*
X905697Y430163D01*
X904974Y428430D01*
X903530Y427563D01*
X902085Y427563D01*
X900641Y428430D01*
X899919Y430163D01*
X899919Y434496D01*
G54D11*
X901363Y423520D02*
X905697Y419186D01*
X894141Y419186D01*
G54D11*
X903530Y408209D02*
X904974Y409076D01*
X905697Y410809D01*
X905697Y412542D01*
X904974Y414276D01*
X903530Y415142D01*
X899919Y415142D01*
X899197Y415142D01*
X900641Y412542D01*
X900641Y410809D01*
X899919Y409076D01*
X898474Y408209D01*
X896308Y408209D01*
X894863Y409076D01*
X894141Y410809D01*
X894141Y412542D01*
X894863Y414276D01*
X896308Y415142D01*
X899919Y415142D01*
G54D12*
X935450Y427571D02*
X930116Y427571D01*
X930116Y428127D01*
X930783Y429238D01*
X934783Y432571D01*
X935450Y433682D01*
X935450Y434793D01*
X934783Y435905D01*
X933450Y436460D01*
X932116Y436460D01*
X930783Y435905D01*
X930116Y434793D01*
G54D12*
X943894Y427571D02*
X938560Y427571D01*
X938560Y428127D01*
X939227Y429238D01*
X943227Y432571D01*
X943894Y433682D01*
X943894Y434793D01*
X943227Y435905D01*
X941894Y436460D01*
X940560Y436460D01*
X939227Y435905D01*
X938560Y434793D01*
G54D10*
X999444Y399369D02*
X999444Y421369D01*
X1049444Y421369D01*
X1049444Y399369D01*
X999444Y399369D01*
G54D11*
X1070423Y412622D02*
X1073023Y411177D01*
X1073890Y409733D01*
X1073890Y406844D01*
G54D11*
X1066956Y406844D02*
X1066956Y418400D01*
X1071290Y418400D01*
X1073023Y417677D01*
X1073890Y416233D01*
X1073890Y414788D01*
X1073023Y413344D01*
X1071290Y412622D01*
X1066956Y412622D01*
G54D11*
X1077934Y414066D02*
X1082267Y418400D01*
X1082267Y406844D01*
G54D11*
X1086310Y418400D02*
X1093244Y418400D01*
X1092377Y416955D01*
X1090644Y414788D01*
X1088910Y411900D01*
X1088044Y409733D01*
X1088044Y406844D01*
G54D12*
X1015818Y427571D02*
X1015818Y436460D01*
X1011818Y430905D01*
X1011818Y429793D01*
X1017151Y429793D01*
G54D12*
X1020262Y427571D02*
X1020262Y427571D01*
G54D12*
X1023373Y436460D02*
X1028706Y436460D01*
X1028040Y435349D01*
X1026706Y433682D01*
X1025373Y431460D01*
X1024706Y429793D01*
X1024706Y427571D01*
G54D12*
X1031817Y427571D02*
X1031817Y436460D01*
G54D12*
X1033817Y430905D02*
X1035817Y427571D01*
G54D12*
X1031817Y429793D02*
X1035817Y432571D01*
G54D10*
X467631Y399369D02*
X467631Y421369D01*
X517631Y421369D01*
X517631Y399369D01*
X467631Y399369D01*
G54D11*
X450080Y431124D02*
X448635Y428524D01*
X447191Y427657D01*
X444302Y427657D01*
G54D11*
X444302Y434590D02*
X455858Y434590D01*
X455858Y430257D01*
X455135Y428524D01*
X453691Y427657D01*
X452246Y427657D01*
X450802Y428524D01*
X450080Y430257D01*
X450080Y434590D01*
G54D11*
X451524Y423613D02*
X455858Y419280D01*
X444302Y419280D01*
G54D11*
X451524Y415236D02*
X455858Y410903D01*
X444302Y410903D01*
G54D12*
X490950Y427571D02*
X485616Y427571D01*
X485616Y428127D01*
X486283Y429238D01*
X490283Y432571D01*
X490950Y433682D01*
X490950Y434793D01*
X490283Y435905D01*
X488950Y436460D01*
X487616Y436460D01*
X486283Y435905D01*
X485616Y434793D01*
G54D12*
X499394Y427571D02*
X494060Y427571D01*
X494060Y428127D01*
X494727Y429238D01*
X498727Y432571D01*
X499394Y433682D01*
X499394Y434793D01*
X498727Y435905D01*
X497394Y436460D01*
X496060Y436460D01*
X494727Y435905D01*
X494060Y434793D01*
G54D10*
X169975Y169562D02*
X169975Y195562D01*
X219975Y195562D01*
X219975Y169562D01*
X169975Y169562D01*
G54D11*
X189652Y150660D02*
X188785Y149216D01*
X187052Y148493D01*
X185319Y148493D01*
X183585Y149216D01*
X182719Y150660D01*
X182719Y157882D01*
X183585Y159327D01*
X185319Y160049D01*
X187052Y160049D01*
X188785Y159327D01*
X189652Y157882D01*
G54D11*
X200629Y148493D02*
X193696Y148493D01*
X193696Y149216D01*
X194562Y150660D01*
X199762Y154993D01*
X200629Y156438D01*
X200629Y157882D01*
X199762Y159327D01*
X198029Y160049D01*
X196296Y160049D01*
X194562Y159327D01*
X193696Y157882D01*
G54D10*
X284275Y169562D02*
X284275Y195562D01*
X334275Y195562D01*
X334275Y169562D01*
X284275Y169562D01*
G54D11*
X296015Y150660D02*
X295148Y149216D01*
X293415Y148493D01*
X291681Y148493D01*
X289948Y149216D01*
X289081Y150660D01*
X289081Y157882D01*
X289948Y159327D01*
X291681Y160049D01*
X293415Y160049D01*
X295148Y159327D01*
X296015Y157882D01*
G54D11*
X300058Y157882D02*
X300925Y159327D01*
X302658Y160049D01*
X304392Y160049D01*
X306125Y159327D01*
X306992Y157882D01*
X306992Y156438D01*
X306125Y154993D01*
X304392Y154271D01*
X306125Y153549D01*
X306992Y152104D01*
X306992Y150660D01*
X306125Y149216D01*
X304392Y148493D01*
X302658Y148493D01*
X300925Y149216D01*
X300058Y150660D01*
G54D10*
X398575Y169562D02*
X398575Y195562D01*
X448575Y195562D01*
X448575Y169562D01*
X398575Y169562D01*
G54D11*
X411902Y150660D02*
X411035Y149216D01*
X409302Y148493D01*
X407569Y148493D01*
X405835Y149216D01*
X404969Y150660D01*
X404969Y157882D01*
X405835Y159327D01*
X407569Y160049D01*
X409302Y160049D01*
X411035Y159327D01*
X411902Y157882D01*
G54D11*
X421146Y148493D02*
X421146Y160049D01*
X415946Y152827D01*
X415946Y151382D01*
X422879Y151382D01*
G54D10*
X512875Y169562D02*
X512875Y195562D01*
X562875Y195562D01*
X562875Y169562D01*
X512875Y169562D01*
G54D11*
X529377Y150660D02*
X528510Y149216D01*
X526777Y148493D01*
X525044Y148493D01*
X523310Y149216D01*
X522444Y150660D01*
X522444Y157882D01*
X523310Y159327D01*
X525044Y160049D01*
X526777Y160049D01*
X528510Y159327D01*
X529377Y157882D01*
G54D11*
X540354Y160049D02*
X533421Y160049D01*
X533421Y154993D01*
X534287Y154993D01*
X536021Y155716D01*
X537754Y155716D01*
X539487Y154993D01*
X540354Y153549D01*
X540354Y150660D01*
X539487Y149216D01*
X537754Y148493D01*
X536021Y148493D01*
X534287Y149216D01*
X533421Y150660D01*
G54D10*
X627175Y169562D02*
X627175Y195562D01*
X677175Y195562D01*
X677175Y169562D01*
X627175Y169562D01*
G54D11*
X640502Y150660D02*
X639635Y149216D01*
X637902Y148493D01*
X636169Y148493D01*
X634435Y149216D01*
X633569Y150660D01*
X633569Y157882D01*
X634435Y159327D01*
X636169Y160049D01*
X637902Y160049D01*
X639635Y159327D01*
X640502Y157882D01*
G54D11*
X651479Y157882D02*
X650612Y159327D01*
X648879Y160049D01*
X647146Y160049D01*
X645412Y159327D01*
X644546Y157882D01*
X644546Y154271D01*
X644546Y153549D01*
X647146Y154993D01*
X648879Y154993D01*
X650612Y154271D01*
X651479Y152827D01*
X651479Y150660D01*
X650612Y149216D01*
X648879Y148493D01*
X647146Y148493D01*
X645412Y149216D01*
X644546Y150660D01*
X644546Y154271D01*
G54D10*
X741475Y169562D02*
X741475Y195562D01*
X791475Y195562D01*
X791475Y169562D01*
X741475Y169562D01*
G54D11*
X756390Y150660D02*
X755523Y149216D01*
X753790Y148493D01*
X752056Y148493D01*
X750323Y149216D01*
X749456Y150660D01*
X749456Y157882D01*
X750323Y159327D01*
X752056Y160049D01*
X753790Y160049D01*
X755523Y159327D01*
X756390Y157882D01*
G54D11*
X760433Y160049D02*
X767367Y160049D01*
X766500Y158604D01*
X764767Y156438D01*
X763033Y153549D01*
X762167Y151382D01*
X762167Y148493D01*
G54D10*
X855775Y169562D02*
X855775Y195562D01*
X905775Y195562D01*
X905775Y169562D01*
X855775Y169562D01*
G54D11*
X869102Y150660D02*
X868235Y149216D01*
X866502Y148493D01*
X864769Y148493D01*
X863035Y149216D01*
X862169Y150660D01*
X862169Y157882D01*
X863035Y159327D01*
X864769Y160049D01*
X866502Y160049D01*
X868235Y159327D01*
X869102Y157882D01*
G54D11*
X877479Y154271D02*
X875746Y154271D01*
X874012Y154993D01*
X873146Y156438D01*
X873146Y157882D01*
X874012Y159327D01*
X875746Y160049D01*
X877479Y160049D01*
X879212Y159327D01*
X880079Y157882D01*
X880079Y156438D01*
X879212Y154993D01*
X877479Y154271D01*
X879212Y153549D01*
X880079Y152104D01*
X880079Y150660D01*
X879212Y149216D01*
X877479Y148493D01*
X875746Y148493D01*
X874012Y149216D01*
X873146Y150660D01*
X873146Y152104D01*
X874012Y153549D01*
X875746Y154271D01*
G54D10*
X970075Y169562D02*
X970075Y195562D01*
X1020075Y195562D01*
X1020075Y169562D01*
X970075Y169562D01*
G54D11*
X980227Y150660D02*
X979360Y149216D01*
X977627Y148493D01*
X975894Y148493D01*
X974160Y149216D01*
X973294Y150660D01*
X973294Y157882D01*
X974160Y159327D01*
X975894Y160049D01*
X977627Y160049D01*
X979360Y159327D01*
X980227Y157882D01*
G54D11*
X984271Y150660D02*
X985137Y149216D01*
X986871Y148493D01*
X988604Y148493D01*
X990337Y149216D01*
X991204Y150660D01*
X991204Y154271D01*
X991204Y154993D01*
X988604Y153549D01*
X986871Y153549D01*
X985137Y154271D01*
X984271Y155716D01*
X984271Y157882D01*
X985137Y159327D01*
X986871Y160049D01*
X988604Y160049D01*
X990337Y159327D01*
X991204Y157882D01*
X991204Y154271D01*
G54D10*
X356975Y707600D02*
X356975Y740200D01*
X456075Y740200D01*
X456075Y707600D01*
X356975Y707600D01*
G54D11*
X388558Y679423D02*
X387692Y677978D01*
X385958Y677256D01*
X384225Y677256D01*
X382492Y677978D01*
X381625Y679423D01*
X381625Y686645D01*
X382492Y688090D01*
X384225Y688812D01*
X385958Y688812D01*
X387692Y688090D01*
X388558Y686645D01*
G54D11*
X392602Y684478D02*
X396935Y688812D01*
X396935Y677256D01*
G54D11*
X393175Y718081D02*
X393175Y729637D01*
X387975Y722415D01*
X387975Y720970D01*
X394908Y720970D01*
G54D11*
X398952Y729637D02*
X405885Y729637D01*
X405019Y728192D01*
X403285Y726026D01*
X401552Y723137D01*
X400685Y720970D01*
X400685Y718081D01*
G54D11*
X415129Y724581D02*
X415129Y718081D01*
G54D11*
X415129Y719526D02*
X414262Y718370D01*
X412529Y718081D01*
X410796Y718370D01*
X409929Y719526D01*
X409929Y724581D01*
G54D11*
X419173Y718081D02*
X419173Y729637D01*
X425240Y729637D01*
G54D11*
X419173Y723859D02*
X425240Y723859D01*
G54D10*
X368300Y701675D02*
X374650Y701675D01*
G54D10*
X371475Y698500D02*
X371475Y704850D01*
G54D13*
X1108075Y294481D02*
X1093788Y294481D01*
X1093788Y280194D01*
G54D13*
X1128712Y288925D02*
X1144588Y288925D01*
X1144588Y263525D01*
X1128712Y263525D01*
G54D13*
X1108075Y220003D02*
X1093788Y220003D01*
X1093788Y234291D01*
G54D13*
X1128712Y253206D02*
X1144588Y253206D01*
X1144588Y227806D01*
X1128712Y227806D01*
G54D13*
X1167473Y294481D02*
X1181760Y294481D01*
X1181760Y280194D01*
G54D13*
X1167473Y220003D02*
X1181760Y220003D01*
X1181760Y234291D01*
G54D14*
X1077119Y324929D02*
X1078185Y323151D01*
X1080319Y322262D01*
X1082452Y322262D01*
X1084585Y323151D01*
X1085652Y324929D01*
X1085652Y326707D01*
X1084585Y328485D01*
X1082452Y329374D01*
X1080319Y329374D01*
X1078185Y330262D01*
X1077119Y332040D01*
X1077119Y333818D01*
X1078185Y335596D01*
X1080319Y336485D01*
X1082452Y336485D01*
X1084585Y335596D01*
X1085652Y333818D01*
G54D14*
X1089563Y322262D02*
X1089563Y336485D01*
G54D14*
X1093474Y322262D02*
X1093474Y336485D01*
X1098807Y327596D01*
X1104140Y336485D01*
X1104140Y322262D01*
G54D14*
X1108052Y322262D02*
X1108052Y336485D01*
X1113385Y327596D01*
X1118718Y336485D01*
X1118718Y322262D01*
G54D14*
X1139126Y322262D02*
X1139126Y336485D01*
X1147659Y322262D01*
X1147659Y336485D01*
G54D14*
X1160103Y333818D02*
X1160103Y324929D01*
X1159036Y323151D01*
X1156903Y322262D01*
X1154770Y322262D01*
X1152636Y323151D01*
X1151570Y324929D01*
X1151570Y333818D01*
X1152636Y335596D01*
X1154770Y336485D01*
X1156903Y336485D01*
X1159036Y335596D01*
X1160103Y333818D01*
G54D14*
X1168280Y322262D02*
X1168280Y336485D01*
G54D14*
X1164014Y336485D02*
X1172547Y336485D01*
G54D14*
X1077119Y300038D02*
X1077119Y314260D01*
G54D14*
X1081030Y300038D02*
X1081030Y314260D01*
X1089563Y300038D01*
X1089563Y314260D01*
G54D14*
X1093474Y302704D02*
X1094540Y300926D01*
X1096674Y300038D01*
X1098807Y300038D01*
X1100940Y300926D01*
X1102007Y302704D01*
X1102007Y304482D01*
X1100940Y306260D01*
X1098807Y307149D01*
X1096674Y307149D01*
X1094540Y308038D01*
X1093474Y309815D01*
X1093474Y311593D01*
X1094540Y313371D01*
X1096674Y314260D01*
X1098807Y314260D01*
X1100940Y313371D01*
X1102007Y311593D01*
G54D14*
X1110184Y300038D02*
X1110184Y314260D01*
G54D14*
X1105918Y314260D02*
X1114451Y314260D01*
G54D14*
X1118362Y300038D02*
X1123695Y314260D01*
X1129028Y300038D01*
G54D14*
X1120495Y305371D02*
X1126895Y305371D01*
G54D14*
X1132940Y314260D02*
X1132940Y300038D01*
X1140406Y300038D01*
G54D14*
X1144318Y314260D02*
X1144318Y300038D01*
X1151784Y300038D01*
G54D14*
X1163162Y300038D02*
X1155696Y300038D01*
X1155696Y314260D01*
X1163162Y314260D01*
G54D14*
X1155696Y307149D02*
X1163162Y307149D01*
G54D14*
X1167074Y300038D02*
X1167074Y314260D01*
X1172407Y314260D01*
X1174540Y313371D01*
X1175607Y311593D01*
X1175607Y302704D01*
X1174540Y300926D01*
X1172407Y300038D01*
X1167074Y300038D01*
G54D10*
X277468Y480303D02*
X277468Y505703D01*
X1039468Y505703D01*
X1039468Y480303D01*
X277468Y480303D01*
G54D10*
X277468Y607303D02*
X277468Y632703D01*
X1039468Y632703D01*
X1039468Y607303D01*
X277468Y607303D01*
G54D11*
X77620Y782740D02*
X77620Y773351D01*
X76754Y771906D01*
X75020Y771184D01*
X73287Y771184D01*
X71554Y771906D01*
X70687Y773351D01*
G54D11*
X81664Y778406D02*
X85998Y782740D01*
X85998Y771184D01*
G54D10*
X93662Y761603D02*
X121047Y761603D01*
X121047Y728266D01*
G54D10*
X42168Y761603D02*
X14784Y761603D01*
X14784Y728266D01*
G54D15*
X33685Y766762D02*
X23019Y766762D01*
X23019Y767874D01*
X24352Y770096D01*
X32352Y776762D01*
X33685Y778985D01*
X33685Y781207D01*
X32352Y783429D01*
X29685Y784540D01*
X27019Y784540D01*
X24352Y783429D01*
X23019Y781207D01*
G54D15*
X127794Y721517D02*
X134460Y728184D01*
X134460Y710406D01*
G54D10*
X93662Y135334D02*
X121047Y135334D01*
X121047Y168672D01*
G54D10*
X42168Y135334D02*
X14784Y135334D01*
X14784Y168672D01*
G54D15*
X30225Y113506D02*
X30225Y131284D01*
X22225Y120173D01*
X22225Y117951D01*
X32892Y117951D01*
G54D15*
X45781Y113506D02*
X45781Y131284D01*
X37781Y120173D01*
X37781Y117951D01*
X48448Y117951D01*
G54D15*
X99281Y113506D02*
X99281Y131284D01*
X91281Y120173D01*
X91281Y117951D01*
X101948Y117951D01*
G54D15*
X106837Y127951D02*
X108171Y130173D01*
X110837Y131284D01*
X113504Y131284D01*
X116171Y130173D01*
X117504Y127951D01*
X117504Y125728D01*
X116171Y123506D01*
X113504Y122395D01*
X116171Y121284D01*
X117504Y119062D01*
X117504Y116840D01*
X116171Y114617D01*
X113504Y113506D01*
X110837Y113506D01*
X108171Y114617D01*
X106837Y116840D01*
G54D15*
X137134Y383165D02*
X137134Y393832D01*
X138245Y393832D01*
X140468Y392498D01*
X147134Y384498D01*
X149356Y383165D01*
X151579Y383165D01*
X153801Y384498D01*
X154912Y387165D01*
X154912Y389832D01*
X153801Y392498D01*
X151579Y393832D01*
G54D15*
X154912Y367609D02*
X154912Y378276D01*
X147134Y378276D01*
X147134Y376942D01*
X148245Y374276D01*
X148245Y371609D01*
X147134Y368942D01*
X144912Y367609D01*
X140468Y367609D01*
X138245Y368942D01*
X137134Y371609D01*
X137134Y374276D01*
X138245Y376942D01*
X140468Y378276D01*
G54D15*
X151579Y352053D02*
X153801Y353386D01*
X154912Y356053D01*
X154912Y358720D01*
X153801Y361386D01*
X151579Y362720D01*
X146023Y362720D01*
X144912Y362720D01*
X147134Y358720D01*
X147134Y356053D01*
X146023Y353386D01*
X143801Y352053D01*
X140468Y352053D01*
X138245Y353386D01*
X137134Y356053D01*
X137134Y358720D01*
X138245Y361386D01*
X140468Y362720D01*
X146023Y362720D01*
G54D15*
X137134Y347164D02*
X154912Y347164D01*
G54D15*
X142690Y347164D02*
X154912Y336497D01*
G54D15*
X146023Y343164D02*
X137134Y336497D01*
G54D15*
X147134Y331608D02*
X137134Y320941D01*
G54D15*
X137134Y331608D02*
X147134Y320941D01*
G54D15*
X137134Y308052D02*
X154912Y308052D01*
X143801Y316052D01*
X141579Y316052D01*
X141579Y305385D01*
G54D15*
X146023Y284850D02*
X143801Y280850D01*
X141579Y279517D01*
X137134Y279517D01*
G54D15*
X137134Y290184D02*
X154912Y290184D01*
X154912Y283517D01*
X153801Y280850D01*
X151579Y279517D01*
X149356Y279517D01*
X147134Y280850D01*
X146023Y283517D01*
X146023Y290184D01*
G54D15*
X137134Y274628D02*
X154912Y267961D01*
X137134Y261294D01*
G54D15*
X143801Y271961D02*
X143801Y263961D01*
G54D15*
X137134Y256406D02*
X154912Y256406D01*
X143801Y249739D01*
X154912Y243072D01*
X137134Y243072D01*
G54D10*
X189706Y660400D02*
X176212Y660400D01*
X176212Y648494D01*
G54D10*
X189706Y450950D02*
X176212Y450950D01*
X176212Y462856D01*
G54D10*
X1127024Y660400D02*
X1140518Y660400D01*
X1140518Y648494D01*
G54D10*
X1127024Y450950D02*
X1140518Y450950D01*
X1140518Y462856D01*
G54D15*
X148272Y632224D02*
X166050Y625557D01*
X148272Y618890D01*
G54D15*
X154939Y629557D02*
X154939Y621557D01*
G54D15*
X151605Y614002D02*
X149383Y612668D01*
X148272Y610002D01*
X148272Y607335D01*
X149383Y604668D01*
X151605Y603335D01*
X153828Y603335D01*
X156050Y604668D01*
X157161Y607335D01*
X157161Y610002D01*
X158272Y612668D01*
X160494Y614002D01*
X162716Y614002D01*
X164939Y612668D01*
X166050Y610002D01*
X166050Y607335D01*
X164939Y604668D01*
X162716Y603335D01*
G54D15*
X151605Y598446D02*
X149383Y597112D01*
X148272Y594446D01*
X148272Y591779D01*
X149383Y589112D01*
X151605Y587779D01*
X153828Y587779D01*
X156050Y589112D01*
X157161Y591779D01*
X157161Y594446D01*
X158272Y597112D01*
X160494Y598446D01*
X162716Y598446D01*
X164939Y597112D01*
X166050Y594446D01*
X166050Y591779D01*
X164939Y589112D01*
X162716Y587779D01*
G54D15*
X148272Y573556D02*
X148272Y582890D01*
X166050Y582890D01*
X166050Y573556D01*
G54D15*
X157161Y582890D02*
X157161Y573556D01*
G54D15*
X148272Y568668D02*
X166050Y568668D01*
X154939Y562001D01*
X166050Y555334D01*
X148272Y555334D01*
G54D15*
X148272Y550446D02*
X166050Y550446D01*
X166050Y543779D01*
X164939Y541112D01*
X162716Y539779D01*
X160494Y539779D01*
X158272Y541112D01*
X157161Y543779D01*
X156050Y541112D01*
X153828Y539779D01*
X151605Y539779D01*
X149383Y541112D01*
X148272Y543779D01*
X148272Y550446D01*
G54D15*
X157161Y550446D02*
X157161Y543779D01*
G54D15*
X166050Y534890D02*
X148272Y534890D01*
X148272Y525556D01*
G54D15*
X148272Y511334D02*
X148272Y520668D01*
X166050Y520668D01*
X166050Y511334D01*
G54D15*
X157161Y520668D02*
X157161Y511334D01*
G54D15*
X148272Y506446D02*
X166050Y506446D01*
X166050Y499779D01*
X164939Y497112D01*
X162716Y495779D01*
X151605Y495779D01*
X149383Y497112D01*
X148272Y499779D01*
X148272Y506446D01*
G54D15*
X119697Y628921D02*
X137475Y628921D01*
X137475Y622255D01*
X136364Y619588D01*
X134142Y618255D01*
X131919Y618255D01*
X129697Y619588D01*
X128586Y622255D01*
X127475Y619588D01*
X125252Y618255D01*
X123030Y618255D01*
X120808Y619588D01*
X119697Y622255D01*
X119697Y628921D01*
G54D15*
X128586Y628921D02*
X128586Y622255D01*
G54D15*
X137475Y613365D02*
X128586Y606699D01*
X119697Y606699D01*
G54D15*
X128586Y606699D02*
X137475Y600032D01*
G54D15*
X137475Y574165D02*
X123030Y574165D01*
X120808Y575498D01*
X119697Y578165D01*
X119697Y580831D01*
X120808Y583498D01*
X123030Y584831D01*
G54D15*
X137475Y569275D02*
X119697Y569275D01*
X119697Y559942D01*
G54D15*
X123030Y544387D02*
X120808Y545720D01*
X119697Y548387D01*
X119697Y551053D01*
X120808Y553720D01*
X123030Y555053D01*
X134142Y555053D01*
X136364Y553720D01*
X137475Y551053D01*
X137475Y548387D01*
X136364Y545720D01*
X134142Y544387D01*
G54D15*
X119697Y539497D02*
X137475Y539497D01*
X137475Y532831D01*
X136364Y530164D01*
X134142Y528831D01*
X131919Y528831D01*
X129697Y530164D01*
X128586Y532831D01*
X128586Y539497D01*
G54D15*
X123030Y513275D02*
X120808Y514608D01*
X119697Y517275D01*
X119697Y519941D01*
X120808Y522608D01*
X123030Y523941D01*
X134142Y523941D01*
X136364Y522608D01*
X137475Y519941D01*
X137475Y517275D01*
X136364Y514608D01*
X134142Y513275D01*
G54D15*
X119697Y508385D02*
X137475Y508385D01*
X137475Y501719D01*
X136364Y499052D01*
X134142Y497719D01*
X131919Y497719D01*
X129697Y499052D01*
X128586Y501719D01*
X127475Y499052D01*
X125252Y497719D01*
X123030Y497719D01*
X120808Y499052D01*
X119697Y501719D01*
X119697Y508385D01*
G54D15*
X128586Y508385D02*
X128586Y501719D01*
G54D16*
X176370Y759779D02*
X181704Y774001D01*
X187037Y759779D01*
G54D16*
X178504Y765112D02*
X184904Y765112D01*
G54D16*
X192015Y759779D02*
X192015Y774001D01*
X197349Y774001D01*
X199482Y773112D01*
X200549Y771335D01*
X200549Y769557D01*
X199482Y767779D01*
X197349Y766890D01*
X192015Y766890D01*
G54D16*
X205526Y759779D02*
X205526Y774001D01*
X210860Y774001D01*
X212993Y773112D01*
X214060Y771335D01*
X214060Y769557D01*
X212993Y767779D01*
X210860Y766890D01*
X205526Y766890D01*
G54D16*
X219037Y774001D02*
X219037Y759779D01*
X226504Y759779D01*
G54D16*
X238949Y759779D02*
X231482Y759779D01*
X231482Y774001D01*
X238949Y774001D01*
G54D16*
X231482Y766890D02*
X238949Y766890D01*
G54D16*
X268034Y762446D02*
X266967Y760668D01*
X264834Y759779D01*
X262700Y759779D01*
X260567Y760668D01*
X259500Y762446D01*
X259500Y771335D01*
X260567Y773112D01*
X262700Y774001D01*
X264834Y774001D01*
X266967Y773112D01*
X268034Y771335D01*
G54D16*
X281545Y771335D02*
X281545Y762446D01*
X280478Y760668D01*
X278345Y759779D01*
X276211Y759779D01*
X274078Y760668D01*
X273011Y762446D01*
X273011Y771335D01*
X274078Y773112D01*
X276211Y774001D01*
X278345Y774001D01*
X280478Y773112D01*
X281545Y771335D01*
G54D16*
X286522Y759779D02*
X286522Y774001D01*
X291856Y765112D01*
X297189Y774001D01*
X297189Y759779D01*
G54D16*
X302167Y759779D02*
X302167Y774001D01*
X307501Y774001D01*
X309634Y773112D01*
X310701Y771335D01*
X310701Y769557D01*
X309634Y767779D01*
X307501Y766890D01*
X302167Y766890D01*
G54D16*
X315678Y774001D02*
X315678Y762446D01*
X316745Y760668D01*
X318878Y759779D01*
X321012Y759779D01*
X323145Y760668D01*
X324212Y762446D01*
X324212Y774001D01*
G54D16*
X333456Y759779D02*
X333456Y774001D01*
G54D16*
X329189Y774001D02*
X337723Y774001D01*
G54D16*
X350167Y759779D02*
X342700Y759779D01*
X342700Y774001D01*
X350167Y774001D01*
G54D16*
X342700Y766890D02*
X350167Y766890D01*
G54D16*
X359412Y766890D02*
X362612Y765112D01*
X363679Y763335D01*
X363679Y759779D01*
G54D16*
X355145Y759779D02*
X355145Y774001D01*
X360479Y774001D01*
X362612Y773112D01*
X363679Y771335D01*
X363679Y769557D01*
X362612Y767779D01*
X360479Y766890D01*
X355145Y766890D01*
G54D16*
X384229Y759779D02*
X384229Y774001D01*
G54D16*
X389207Y759779D02*
X389207Y774001D01*
X397741Y759779D01*
X397741Y774001D01*
G54D16*
X411252Y762446D02*
X410185Y760668D01*
X408052Y759779D01*
X405918Y759779D01*
X403785Y760668D01*
X402718Y762446D01*
X402718Y771335D01*
X403785Y773112D01*
X405918Y774001D01*
X408052Y774001D01*
X410185Y773112D01*
X411252Y771335D01*
G54D16*
X416229Y759779D02*
X416229Y759779D01*
G54D16*
X455390Y766730D02*
X453256Y766730D01*
X451123Y767619D01*
X450056Y769397D01*
X450056Y771174D01*
X451123Y772952D01*
X453256Y773841D01*
X455390Y773841D01*
X457523Y772952D01*
X458590Y771174D01*
X458590Y769397D01*
X457523Y767619D01*
X455390Y766730D01*
X457523Y765841D01*
X458590Y764063D01*
X458590Y762285D01*
X457523Y760508D01*
X455390Y759619D01*
X453256Y759619D01*
X451123Y760508D01*
X450056Y762285D01*
X450056Y764063D01*
X451123Y765841D01*
X453256Y766730D01*
G54D16*
X472101Y759619D02*
X463567Y759619D01*
X463567Y760508D01*
X464634Y762285D01*
X471034Y767619D01*
X472101Y769397D01*
X472101Y771174D01*
X471034Y772952D01*
X468901Y773841D01*
X466767Y773841D01*
X464634Y772952D01*
X463567Y771174D01*
G54D16*
X485612Y771174D02*
X485612Y762285D01*
X484545Y760508D01*
X482412Y759619D01*
X480278Y759619D01*
X478145Y760508D01*
X477078Y762285D01*
X477078Y771174D01*
X478145Y772952D01*
X480278Y773841D01*
X482412Y773841D01*
X484545Y772952D01*
X485612Y771174D01*
G54D16*
X490589Y765841D02*
X499123Y765841D01*
G54D16*
X512634Y771174D02*
X512634Y762285D01*
X511567Y760508D01*
X509434Y759619D01*
X507300Y759619D01*
X505167Y760508D01*
X504100Y762285D01*
X504100Y771174D01*
X505167Y772952D01*
X507300Y773841D01*
X509434Y773841D01*
X511567Y772952D01*
X512634Y771174D01*
G54D16*
X524011Y759619D02*
X524011Y773841D01*
X517611Y764952D01*
X517611Y763174D01*
X526145Y763174D01*
G54D16*
X539656Y771174D02*
X539656Y762285D01*
X538589Y760508D01*
X536456Y759619D01*
X534322Y759619D01*
X532189Y760508D01*
X531122Y762285D01*
X531122Y771174D01*
X532189Y772952D01*
X534322Y773841D01*
X536456Y773841D01*
X538589Y772952D01*
X539656Y771174D01*
G54D16*
X553167Y773841D02*
X544633Y773841D01*
X544633Y767619D01*
X545700Y767619D01*
X547833Y768508D01*
X549967Y768508D01*
X552100Y767619D01*
X553167Y765841D01*
X553167Y762285D01*
X552100Y760508D01*
X549967Y759619D01*
X547833Y759619D01*
X545700Y760508D01*
X544633Y762285D01*
G54D16*
X558144Y765841D02*
X566678Y765841D01*
G54D16*
X580189Y771174D02*
X580189Y762285D01*
X579122Y760508D01*
X576989Y759619D01*
X574855Y759619D01*
X572722Y760508D01*
X571655Y762285D01*
X571655Y771174D01*
X572722Y772952D01*
X574855Y773841D01*
X576989Y773841D01*
X579122Y772952D01*
X580189Y771174D01*
G54D16*
X585166Y768508D02*
X590500Y773841D01*
X590500Y759619D01*
G54D16*
X636390Y762285D02*
X635323Y760508D01*
X633190Y759619D01*
X631056Y759619D01*
X628923Y760508D01*
X627856Y762285D01*
X627856Y771174D01*
X628923Y772952D01*
X631056Y773841D01*
X633190Y773841D01*
X635323Y772952D01*
X636390Y771174D01*
G54D10*
G75*
G01X646906Y766762D02*
G03X646906Y766762I-15081J0D01*
G01*
G54D16*
X658812Y768508D02*
X664146Y773841D01*
X664146Y759619D01*
G54D16*
X669124Y762285D02*
X670190Y760508D01*
X672324Y759619D01*
X674457Y759619D01*
X676590Y760508D01*
X677657Y762285D01*
X677657Y766730D01*
X677657Y767619D01*
X674457Y765841D01*
X672324Y765841D01*
X670190Y766730D01*
X669124Y768508D01*
X669124Y771174D01*
X670190Y772952D01*
X672324Y773841D01*
X674457Y773841D01*
X676590Y772952D01*
X677657Y771174D01*
X677657Y766730D01*
G54D16*
X682634Y762285D02*
X683701Y760508D01*
X685834Y759619D01*
X687968Y759619D01*
X690101Y760508D01*
X691168Y762285D01*
X691168Y766730D01*
X691168Y767619D01*
X687968Y765841D01*
X685834Y765841D01*
X683701Y766730D01*
X682634Y768508D01*
X682634Y771174D01*
X683701Y772952D01*
X685834Y773841D01*
X687968Y773841D01*
X690101Y772952D01*
X691168Y771174D01*
X691168Y766730D01*
G54D16*
X704679Y771174D02*
X704679Y762285D01*
X703612Y760508D01*
X701479Y759619D01*
X699346Y759619D01*
X697212Y760508D01*
X696146Y762285D01*
X696146Y771174D01*
X697212Y772952D01*
X699346Y773841D01*
X701479Y773841D01*
X703612Y772952D01*
X704679Y771174D01*
G54D11*
X1128545Y433593D02*
X1128545Y424204D01*
X1127679Y422760D01*
X1125945Y422038D01*
X1124212Y422038D01*
X1122479Y422760D01*
X1121612Y424204D01*
G54D11*
X1139522Y422038D02*
X1132589Y422038D01*
X1132589Y422760D01*
X1133456Y424204D01*
X1138656Y428538D01*
X1139522Y429982D01*
X1139522Y431426D01*
X1138656Y432871D01*
X1136922Y433593D01*
X1135189Y433593D01*
X1133456Y432871D01*
X1132589Y431426D01*
G54D11*
X1084567Y265051D02*
X1075178Y265051D01*
X1073734Y265918D01*
X1073011Y267651D01*
X1073011Y269384D01*
X1073734Y271118D01*
X1075178Y271984D01*
G54D11*
X1082400Y261007D02*
X1083845Y260141D01*
X1084567Y258407D01*
X1084567Y256674D01*
X1083845Y254941D01*
X1082400Y254074D01*
X1080956Y254074D01*
X1079511Y254941D01*
X1078789Y256674D01*
X1078067Y254941D01*
X1076622Y254074D01*
X1075178Y254074D01*
X1073734Y254941D01*
X1073011Y256674D01*
X1073011Y258407D01*
X1073734Y260141D01*
X1075178Y261007D01*
G54D17*
X169623Y113506D02*
X169623Y124173D01*
G54D17*
X176023Y113506D02*
X176023Y124173D01*
G54D17*
X169623Y118840D02*
X176023Y118840D01*
G54D17*
X183756Y114173D02*
X182476Y113506D01*
X180876Y113506D01*
X179276Y114173D01*
X178956Y115506D01*
X178956Y117773D01*
X179756Y119106D01*
X181356Y119506D01*
X182956Y119106D01*
X183756Y118173D01*
X183756Y116840D01*
X178956Y116840D01*
G54D17*
X186689Y113506D02*
X186689Y124173D01*
G54D17*
X189622Y113506D02*
X189622Y124173D01*
G54D17*
X197355Y115106D02*
X197355Y117773D01*
X196555Y119106D01*
X194955Y119506D01*
X193355Y119106D01*
X192555Y117773D01*
X192555Y115106D01*
X193355Y113773D01*
X194955Y113506D01*
X196555Y113773D01*
X197355Y115106D01*
G54D17*
X201888Y113506D02*
X201888Y112173D01*
X201088Y110840D01*
X200288Y110840D01*
G54D17*
X214314Y115506D02*
X213514Y114173D01*
X211914Y113506D01*
X210314Y113506D01*
X208714Y114173D01*
X207914Y115506D01*
X207914Y122173D01*
X208714Y123506D01*
X210314Y124173D01*
X211914Y124173D01*
X213514Y123506D01*
X214314Y122173D01*
G54D17*
X217247Y118840D02*
X218847Y119506D01*
X220767Y119506D01*
X222047Y118173D01*
X222047Y113506D01*
G54D17*
X222047Y115506D02*
X221247Y116840D01*
X219647Y117106D01*
X218047Y116840D01*
X217247Y115506D01*
X217567Y114173D01*
X218847Y113506D01*
X219647Y113506D01*
X219967Y113506D01*
X221247Y114173D01*
X222047Y115506D01*
G54D17*
X224980Y119506D02*
X228180Y113506D01*
X231380Y119506D01*
G54D17*
X239113Y114173D02*
X237833Y113506D01*
X236233Y113506D01*
X234633Y114173D01*
X234313Y115506D01*
X234313Y117773D01*
X235113Y119106D01*
X236713Y119506D01*
X238313Y119106D01*
X239113Y118173D01*
X239113Y116840D01*
X234313Y116840D01*
G54D17*
X245139Y113506D02*
X245139Y124173D01*
X249139Y124173D01*
X250739Y123506D01*
X251539Y122173D01*
X251539Y115506D01*
X250739Y114173D01*
X249139Y113506D01*
X245139Y113506D01*
G54D17*
X254472Y119506D02*
X256872Y113506D01*
X259272Y119506D01*
X261672Y113506D01*
X263272Y119506D01*
G54D17*
X271005Y114173D02*
X269725Y113506D01*
X268125Y113506D01*
X266525Y114173D01*
X266205Y115506D01*
X266205Y117773D01*
X267005Y119106D01*
X268605Y119506D01*
X270205Y119106D01*
X271005Y118173D01*
X271005Y116840D01*
X266205Y116840D01*
G54D17*
X273938Y113506D02*
X273938Y124173D01*
G54D17*
X276871Y113506D02*
X276871Y124173D01*
G54D17*
X284604Y114173D02*
X283324Y113506D01*
X281724Y113506D01*
X280124Y114173D01*
X279804Y115506D01*
X279804Y117773D01*
X280604Y119106D01*
X282204Y119506D01*
X283804Y119106D01*
X284604Y118173D01*
X284604Y116840D01*
X279804Y116840D01*
G54D17*
X287537Y113506D02*
X287537Y119506D01*
G54D17*
X287537Y118173D02*
X289137Y119506D01*
X290737Y119506D01*
G54D17*
X293670Y114173D02*
X295270Y113506D01*
X296870Y113506D01*
X298470Y114173D01*
X298470Y115506D01*
X297670Y116173D01*
X294470Y116840D01*
X293670Y117506D01*
X293670Y118840D01*
X295270Y119506D01*
X296870Y119506D01*
X298470Y118840D01*
G54D17*
X301403Y113506D02*
X301403Y113506D01*
G54D17*
X304336Y113506D02*
X304336Y113506D01*
G54D17*
X307269Y113506D02*
X307269Y113506D01*
M02*
