; Drill file
; Format: 3.3 (000.000)
M48
METRIC
T01C0.4
T02C0.8
T03C0.9
%
G05
G90
T01
X5160Y18340
X5160Y20880
X5160Y23420
X5160Y25960
X7700Y23420
X8260Y29530
X5720Y29530
X20320Y27940
X21910Y26350
X21910Y23420
X20320Y21270
X17780Y20320
X23180Y18260
X29050Y20320
X33020Y23810
X33020Y26510
X31590Y27940
X33020Y30000
X34130Y37620
X34130Y43180
X30080Y43180
X24450Y43180
X18890Y41120
X22380Y37620
X21910Y30480
X34610Y18260
X38100Y18260
X40640Y20320
X42700Y20800
X46040Y18260
X51750Y20320
X54930Y21910
X56990Y21270
X56520Y23420
X54930Y24450
X56520Y25960
X54450Y27940
X56520Y30000
X56990Y37620
X54450Y37940
X56990Y43180
X59530Y43180
X65560Y43180
X68580Y43180
X74140Y43180
X77310Y43180
X81280Y41120
X79690Y37620
X79220Y29530
X77150Y27940
X79220Y26350
X79220Y23810
X80170Y18260
X74610Y20320
X68740Y18260
X68100Y20800
X68100Y22860
X66040Y22860
X66990Y25960
X66040Y27940
X65560Y30480
X68580Y30960
X72070Y29050
X68100Y37620
X51910Y43180
X47780Y43180
X41750Y43180
X38740Y43180
X45240Y37620
X44770Y30480
X43180Y27940
X44770Y25880
X57470Y18260
X61440Y20320
X63500Y20320
X86360Y20320
X91600Y18260
X97470Y20320
X103030Y18260
X100010Y27940
X90960Y26830
X89850Y25400
X88900Y27940
X89850Y30480
X90960Y37620
X89850Y41120
X86360Y43180
X95410Y39050
X97470Y41120
X104620Y39050
X93030Y68100
X87470Y70640
X84930Y68100
X79380Y70640
X76200Y68100
X78820Y65560
X70640Y70640
X67630Y69690
X62070Y71600
X60010Y69690
X54610Y72230
X52390Y69060
X44290Y69690
X41750Y67630
X36670Y69690
X33180Y68580
X33180Y66600
X31590Y58900
X30080Y55960
X30080Y53340
X38260Y52390
X38260Y54450
X47780Y53340
X55880Y53820
X63660Y54450
X24450Y60480
X23500Y70640
X5320Y71680
X5320Y69140
X5320Y58980
T02
X110650Y23260
X110650Y25800
X110650Y28340
T03
X2850Y18340
X2850Y20880
X2850Y23420
X2850Y25960
X2850Y28500
X2850Y31040
X2850Y33580
X2850Y36120
X2850Y38660
X2850Y41200
X2850Y43740
X2850Y46280
X2850Y48820
X2850Y51360
X2850Y53900
X2850Y56440
X2850Y58980
X2850Y61520
X2850Y64060
X2850Y66600
X2850Y69140
X2850Y71680
X10470Y71680
X10470Y69140
X10470Y66600
X10470Y64060
X10470Y61520
X10470Y58980
X10470Y56440
X10470Y53900
X10470Y51360
X10470Y48820
X10470Y46280
X10470Y43740
X10470Y41200
X10470Y38660
X10470Y36120
X10470Y33580
X10470Y31040
X10470Y28500
X10470Y25960
X10470Y23420
X10470Y20880
X10470Y18340
X29020Y49300
X31560Y49300
X34100Y49300
X36640Y49300
X39180Y49300
X41720Y49300
X44260Y49300
X46800Y49300
X49340Y49300
X51880Y49300
X54420Y49300
X56960Y49300
X59500Y49300
X62040Y49300
X64580Y49300
X67120Y49300
X69660Y49300
X72200Y49300
X74740Y49300
X77280Y49300
X79820Y49300
X82360Y49300
X84900Y49300
X87440Y49300
X89980Y49300
X92520Y49300
X95060Y49300
X97600Y49300
X100140Y49300
X102680Y49300
X102680Y62000
X100140Y62000
X97600Y62000
X95060Y62000
X92520Y62000
X89980Y62000
X87440Y62000
X84900Y62000
X82360Y62000
X79820Y62000
X77280Y62000
X74740Y62000
X72200Y62000
X69660Y62000
X67120Y62000
X64580Y62000
X62040Y62000
X59500Y62000
X56960Y62000
X54420Y62000
X51880Y62000
X49340Y62000
X46800Y62000
X44260Y62000
X41720Y62000
X39180Y62000
X36640Y62000
X34100Y62000
X31560Y62000
X29020Y62000
M30
